<svg width="16" height="17" viewBox="0 0 16 17" fill="none" xmlns="http://www.w3.org/2000/svg">
<g clip-path="url(#clip0_749_2801)">
<path d="M13.3346 5.87624C13.3365 5.01281 13.1287 4.16183 12.7292 3.39643C12.3296 2.63102 11.7501 1.97407 11.0406 1.48202C10.3311 0.989971 9.51277 0.67754 8.65587 0.571571C7.79896 0.465602 6.92914 0.569263 6.12114 0.873647C5.31315 1.17803 4.59113 1.67404 4.01713 2.31905C3.44313 2.96406 3.03432 3.73879 2.82581 4.57666C2.61731 5.41454 2.61534 6.29051 2.82009 7.12931C3.02485 7.96811 3.43019 8.74466 4.00129 9.39224V14.8762C4.00128 15.1902 4.08996 15.4978 4.25711 15.7636C4.42426 16.0293 4.66308 16.2425 4.94606 16.3785C5.22905 16.5145 5.54469 16.5678 5.85664 16.5322C6.16859 16.4967 6.46415 16.3737 6.70929 16.1776L8.00129 15.1429L9.29329 16.1762C9.53834 16.3723 9.83378 16.4953 10.1456 16.5308C10.4574 16.5664 10.773 16.5133 11.0559 16.3774C11.3389 16.2416 11.5777 16.0287 11.7449 15.7631C11.9122 15.4975 12.001 15.1901 12.0013 14.8762V9.39224C12.8602 8.42237 13.3344 7.17173 13.3346 5.87624V5.87624ZM8.00129 1.87624C8.79241 1.87624 9.56577 2.11083 10.2236 2.55036C10.8814 2.98989 11.3941 3.6146 11.6968 4.3455C11.9996 5.07641 12.0788 5.88068 11.9244 6.6566C11.7701 7.43252 11.3891 8.14526 10.8297 8.70467C10.2703 9.26408 9.55757 9.64504 8.78165 9.79938C8.00573 9.95372 7.20146 9.87451 6.47056 9.57176C5.73965 9.26901 5.11494 8.75632 4.67541 8.09852C4.23589 7.44072 4.00129 6.66736 4.00129 5.87624C4.00235 4.8157 4.42412 3.7989 5.17403 3.04898C5.92395 2.29907 6.94075 1.8773 8.00129 1.87624V1.87624ZM10.4793 15.1749C10.4229 15.2029 10.3596 15.2139 10.2971 15.2069C10.2345 15.1998 10.1753 15.1748 10.1266 15.1349L8.00129 13.4342L5.87662 15.1349C5.82771 15.1742 5.7687 15.1988 5.70639 15.2061C5.64408 15.2133 5.581 15.2028 5.52438 15.1758C5.46777 15.1488 5.41993 15.1063 5.38636 15.0533C5.3528 15.0004 5.33486 14.939 5.33462 14.8762V10.4882C6.14393 10.9606 7.0642 11.2095 8.00129 11.2095C8.93838 11.2095 9.85864 10.9606 10.668 10.4882V14.8762C10.6687 14.9389 10.6513 15.0005 10.6178 15.0535C10.5843 15.1065 10.5362 15.1487 10.4793 15.1749V15.1749Z" fill="#C3C8D4"/>
</g>
<defs>
<clipPath id="clip0_749_2801">
<rect width="16" height="16" fill="white" transform="translate(0 0.542969)"/>
</clipPath>
</defs>
</svg>
