<svg width="16" height="17" viewBox="0 0 16 17" fill="none" xmlns="http://www.w3.org/2000/svg">
<g clip-path="url(#clip0_749_3076)">
<path d="M15.6765 2.29856C15.4465 1.87762 15.1074 1.52633 14.6949 1.28153C14.2823 1.03673 13.8115 0.907446 13.3318 0.907227L2.66516 0.907227C2.18546 0.907446 1.71466 1.03673 1.30213 1.28153C0.889593 1.52633 0.550528 1.87762 0.320489 2.29856C0.0885499 2.71296 -0.0258356 3.18283 -0.0103275 3.65747C0.00518064 4.13212 0.149994 4.59351 0.408489 4.99189C1.18987 6.12506 2.21979 7.06476 3.41966 7.73927C4.61952 8.41378 5.95761 8.80528 7.33182 8.88389V15.5739H4.66516C4.48834 15.5739 4.31878 15.6441 4.19375 15.7692C4.06873 15.8942 3.99849 16.0637 3.99849 16.2406C3.99849 16.4174 4.06873 16.5869 4.19375 16.712C4.31878 16.837 4.48834 16.9072 4.66516 16.9072H11.3318C11.5086 16.9072 11.6782 16.837 11.8032 16.712C11.9283 16.5869 11.9985 16.4174 11.9985 16.2406C11.9985 16.0637 11.9283 15.8942 11.8032 15.7692C11.6782 15.6441 11.5086 15.5739 11.3318 15.5739H8.66516V8.88389C10.0394 8.80528 11.3775 8.41378 12.5773 7.73927C13.7772 7.06476 14.8071 6.12506 15.5885 4.99189C15.847 4.59351 15.9918 4.13212 16.0073 3.65747C16.0228 3.18283 15.9084 2.71296 15.6765 2.29856V2.29856ZM2.66516 2.24056H13.3318C13.6854 2.24056 14.0246 2.38104 14.2746 2.63108C14.5247 2.88113 14.6652 3.22027 14.6652 3.57389H1.33182C1.33182 3.22027 1.4723 2.88113 1.72235 2.63108C1.9724 2.38104 2.31153 2.24056 2.66516 2.24056V2.24056ZM7.99849 7.57389C6.86793 7.57785 5.74936 7.34225 4.71645 6.88261C3.68354 6.42298 2.75971 5.74974 2.00582 4.90723H13.9912C13.2374 5.74994 12.3136 6.42331 11.2807 6.88297C10.2477 7.34262 9.12909 7.5781 7.99849 7.57389V7.57389Z" fill="#1C1B1A"/>
</g>
<defs>
<clipPath id="clip0_749_3076">
<rect width="16" height="16" fill="white" transform="translate(0 0.907227)"/>
</clipPath>
</defs>
</svg>
