<svg width="16" height="16" viewBox="0 0 16 16" fill="none" xmlns="http://www.w3.org/2000/svg">
<g clip-path="url(#clip0_749_2782)">
<path d="M8.892 0.555207C8.64716 0.334832 8.32941 0.212891 8 0.212891C7.67059 0.212891 7.35284 0.334832 7.108 0.555207L0 6.95254V13.8859C0 14.4517 0.224761 14.9943 0.624839 15.3944C1.02492 15.7944 1.56754 16.0192 2.13333 16.0192H13.8667C14.4325 16.0192 14.9751 15.7944 15.3752 15.3944C15.7752 14.9943 16 14.4517 16 13.8859V6.95254L8.892 0.555207ZM10 14.6839H6V11.3332C6 10.8028 6.21071 10.2941 6.58579 9.91899C6.96086 9.54392 7.46957 9.33321 8 9.33321C8.53043 9.33321 9.03914 9.54392 9.41421 9.91899C9.78929 10.2941 10 10.8028 10 11.3332V14.6839ZM14.6667 13.8839C14.6667 14.096 14.5824 14.2995 14.4324 14.4496C14.2823 14.5996 14.0788 14.6839 13.8667 14.6839H11.3333V11.3332C11.3333 10.4492 10.9821 9.60131 10.357 8.97618C9.7319 8.35106 8.88406 7.99987 8 7.99987C7.11595 7.99987 6.2681 8.35106 5.64298 8.97618C5.01786 9.60131 4.66667 10.4492 4.66667 11.3332V14.6839H2.13333C1.92116 14.6839 1.71768 14.5996 1.56765 14.4496C1.41762 14.2995 1.33333 14.096 1.33333 13.8839V7.54587L8 1.54587L14.6667 7.54587V13.8839Z" fill="#C3C8D4"/>
</g>
<defs>
<clipPath id="clip0_749_2782">
<rect width="16" height="16" fill="white"/>
</clipPath>
</defs>
</svg>
