<svg width="16" height="17" viewBox="0 0 16 17" fill="none" xmlns="http://www.w3.org/2000/svg">
<g clip-path="url(#clip0_749_5094)">
<path d="M15.9707 14.8479C15.9447 14.7643 15.9025 14.6866 15.8465 14.6193C15.7904 14.552 15.7217 14.4964 15.6442 14.4557C15.5667 14.415 15.4819 14.3899 15.3947 14.3819C15.3075 14.374 15.2196 14.3832 15.136 14.4093L14.2693 14.6759L13.6487 12.8513C14.3006 12.4855 14.8091 11.9093 15.091 11.2169C15.3729 10.5246 15.4116 9.75709 15.2007 9.03993L13.972 5.38993C13.8174 4.89163 13.4755 4.47272 13.0183 4.22132C12.5612 3.96991 12.0243 3.90561 11.5207 4.04193L8.95268 4.75793C8.5844 4.8604 8.25373 5.06742 8.00067 5.35393C7.74762 5.06742 7.41695 4.8604 7.04867 4.75793L4.48001 4.04193C3.98005 3.90402 3.44611 3.96517 2.99028 4.21254C2.53445 4.45991 2.19219 4.87425 2.03534 5.36859L0.790675 9.07326C0.58802 9.78987 0.633409 10.5539 0.919478 11.2415C1.20555 11.9291 1.71552 12.4999 2.36667 12.8613L1.73734 14.6799L0.867341 14.4093C0.783733 14.383 0.69577 14.3735 0.608476 14.3812C0.521181 14.3889 0.436263 14.4138 0.358571 14.4543C0.28088 14.4949 0.211935 14.5503 0.155675 14.6175C0.0994141 14.6847 0.0569391 14.7623 0.0306747 14.8459C0.00441033 14.9295 -0.005129 15.0175 0.00260138 15.1048C0.0103318 15.1921 0.0351805 15.277 0.0757287 15.3547C0.116277 15.4324 0.171731 15.5013 0.238924 15.5576C0.306117 15.6139 0.383733 15.6563 0.467341 15.6826L1.90734 16.1299C1.91734 16.1299 1.92334 16.1413 1.93334 16.1453C1.94334 16.1493 1.96801 16.1493 1.98534 16.1539L3.43934 16.6053C3.6082 16.6578 3.791 16.6411 3.94753 16.5588C4.10406 16.4765 4.2215 16.3355 4.27401 16.1666C4.32652 15.9977 4.30981 15.8149 4.22754 15.6584C4.14527 15.5019 4.0042 15.3844 3.83534 15.3319L3.01134 15.0753L3.63467 13.2753C3.7583 13.2911 3.88272 13.3 4.00734 13.3019C4.72812 13.3002 5.4289 13.0648 6.00463 12.6311C6.58036 12.1975 7.00001 11.5889 7.20067 10.8966L8.00067 8.52593L8.78934 10.8593C8.98374 11.5604 9.40218 12.1786 9.98081 12.6196C10.5594 13.0607 11.2665 13.3003 11.994 13.3019C12.1235 13.3007 12.2529 13.2918 12.3813 13.2753L12.9933 15.0753L12.164 15.3326C11.9952 15.3851 11.8541 15.5025 11.7718 15.6591C11.6895 15.8156 11.6728 15.9984 11.7253 16.1673C11.7779 16.3361 11.8953 16.4772 12.0518 16.5595C12.2084 16.6417 12.3912 16.6584 12.56 16.6059L14.01 16.1559C14.0273 16.1513 14.0453 16.1559 14.0627 16.1473C14.08 16.1386 14.08 16.1346 14.0907 16.1306L15.532 15.6833C15.6157 15.6573 15.6934 15.615 15.7608 15.559C15.8281 15.5029 15.8838 15.4341 15.9245 15.3565C15.9653 15.279 15.9903 15.1941 15.9982 15.1068C16.0062 15.0196 15.9968 14.9316 15.9707 14.8479V14.8479ZM8.90534 6.36326C8.94775 6.28514 9.00553 6.21641 9.07518 6.16119C9.14484 6.10596 9.22494 6.0654 9.31067 6.04193L11.878 5.32659C11.9353 5.31055 11.9945 5.30226 12.054 5.30193C12.2006 5.30348 12.3428 5.35224 12.4596 5.44098C12.5763 5.52973 12.6613 5.65373 12.702 5.79459L13.2093 7.30193H8.99401L8.85067 6.87726C8.82511 6.79226 8.81678 6.70301 8.82617 6.61475C8.83555 6.52648 8.86247 6.44098 8.90534 6.36326V6.36326ZM3.94601 5.30193C4.0057 5.30204 4.06511 5.31011 4.12267 5.32593L6.69067 6.04193C6.86033 6.08872 7.0046 6.20069 7.09202 6.35343C7.17944 6.50617 7.20292 6.68728 7.15734 6.85726L7.00734 7.30193H2.79201L3.30534 5.77526C3.34771 5.63836 3.43273 5.51859 3.54798 5.43344C3.66324 5.34828 3.8027 5.3022 3.94601 5.30193V5.30193ZM5.92867 10.5019C5.82219 10.8825 5.60536 11.2229 5.30556 11.4804C5.00576 11.7378 4.63642 11.9006 4.24415 11.9483C3.85189 11.9961 3.45428 11.9265 3.10151 11.7485C2.74874 11.5704 2.45661 11.2918 2.26201 10.9479C2.00436 10.4986 1.9344 9.96583 2.06734 9.46526L2.34334 8.63526H6.55801L5.92867 10.5019ZM11.0167 11.7073C10.7831 11.5747 10.5783 11.3968 10.4145 11.1839C10.2507 10.9711 10.1311 10.7277 10.0627 10.4679L9.44334 8.63526H13.6587L13.9253 9.43126C14.0317 9.81248 14.0226 10.2167 13.8992 10.5927C13.7757 10.9688 13.5435 11.2997 13.2318 11.5437C12.9202 11.7877 12.5432 11.9337 12.1485 11.9633C11.7538 11.9929 11.3592 11.9047 11.0147 11.7099L11.0167 11.7073Z" fill="#1C1B1A"/>
<path d="M10.3677 3.23602C10.4464 3.2756 10.5322 3.29918 10.6201 3.3054C10.708 3.31163 10.7962 3.30038 10.8797 3.27229C10.9632 3.24421 11.0403 3.19986 11.1066 3.1418C11.1728 3.08373 11.2269 3.01311 11.2657 2.93402L11.9324 1.60069C12.0114 1.44244 12.0244 1.25928 11.9684 1.0915C11.9123 0.923716 11.792 0.785055 11.6337 0.706021C11.4755 0.626986 11.2923 0.614052 11.1245 0.670063C10.9568 0.726073 10.8181 0.846442 10.7391 1.00469L10.0724 2.33802C10.0326 2.41633 10.0086 2.50173 10.0019 2.58932C9.99524 2.67692 10.0059 2.76497 10.0334 2.84842C10.0608 2.93187 10.1045 3.00907 10.1619 3.07559C10.2192 3.14211 10.2892 3.19663 10.3677 3.23602V3.23602Z" fill="#1C1B1A"/>
<path d="M4.73752 2.93402C4.81655 3.09271 4.95539 3.2135 5.12348 3.26982C5.20672 3.29771 5.29463 3.30893 5.3822 3.30285C5.46976 3.29676 5.55528 3.27349 5.63385 3.23435C5.71243 3.19522 5.78252 3.14099 5.84014 3.07477C5.89776 3.00854 5.94177 2.93162 5.96965 2.84839C5.99754 2.76516 6.00877 2.67725 6.00268 2.58968C5.99659 2.50211 5.97332 2.41659 5.93418 2.33802L5.26752 1.00469C5.22838 0.926332 5.1742 0.856452 5.10806 0.799037C5.04192 0.741622 4.96512 0.697796 4.88204 0.670063C4.71426 0.614052 4.5311 0.626986 4.37285 0.706021C4.21461 0.785055 4.09424 0.923716 4.03823 1.0915C3.98222 1.25928 3.99515 1.44244 4.07418 1.60069L4.73752 2.93402Z" fill="#1C1B1A"/>
<path d="M7.9987 3.30241C8.17551 3.30241 8.34508 3.23217 8.47011 3.10715C8.59513 2.98212 8.66537 2.81255 8.66537 2.63574V1.30241C8.66537 1.1256 8.59513 0.956029 8.47011 0.831004C8.34508 0.70598 8.17551 0.635742 7.9987 0.635742C7.82189 0.635742 7.65232 0.70598 7.52729 0.831004C7.40227 0.956029 7.33203 1.1256 7.33203 1.30241V2.63574C7.33203 2.81255 7.40227 2.98212 7.52729 3.10715C7.65232 3.23217 7.82189 3.30241 7.9987 3.30241Z" fill="#1C1B1A"/>
</g>
<defs>
<clipPath id="clip0_749_5094">
<rect width="16" height="16" fill="white" transform="translate(0 0.635742)"/>
</clipPath>
</defs>
</svg>
