<svg width="16" height="17" viewBox="0 0 16 17" fill="none" xmlns="http://www.w3.org/2000/svg">
<g clip-path="url(#clip0_749_2175)">
<path d="M11.666 1.54883C10.9153 1.5605 10.181 1.77006 9.53716 2.15634C8.89337 2.54262 8.36289 3.09194 7.99932 3.74883C7.63575 3.09194 7.10528 2.54262 6.46148 2.15634C5.81768 1.77006 5.08335 1.5605 4.33265 1.54883C3.13595 1.60082 2.00846 2.12433 1.19651 3.00498C0.384561 3.88564 -0.0458459 5.05184 -0.000678848 6.24883C-0.000678848 9.28016 3.18999 12.5908 5.86599 14.8355C6.46347 15.3376 7.21889 15.6128 7.99932 15.6128C8.77975 15.6128 9.53518 15.3376 10.1327 14.8355C12.8087 12.5908 15.9993 9.28016 15.9993 6.24883C16.0445 5.05184 15.6141 3.88564 14.8021 3.00498C13.9902 2.12433 12.8627 1.60082 11.666 1.54883ZM9.27599 13.8155C8.91864 14.1164 8.46649 14.2814 7.99932 14.2814C7.53215 14.2814 7.08 14.1164 6.72265 13.8155C3.29732 10.9415 1.33265 8.18416 1.33265 6.24883C1.28708 5.40531 1.5769 4.57798 2.1389 3.94729C2.70089 3.31661 3.48948 2.93373 4.33265 2.88216C5.17583 2.93373 5.96441 3.31661 6.52641 3.94729C7.08841 4.57798 7.37823 5.40531 7.33265 6.24883C7.33265 6.42564 7.40289 6.59521 7.52792 6.72023C7.65294 6.84526 7.82251 6.91549 7.99932 6.91549C8.17613 6.91549 8.3457 6.84526 8.47073 6.72023C8.59575 6.59521 8.66599 6.42564 8.66599 6.24883C8.62041 5.40531 8.91023 4.57798 9.47223 3.94729C10.0342 3.31661 10.8228 2.93373 11.666 2.88216C12.5092 2.93373 13.2977 3.31661 13.8597 3.94729C14.4217 4.57798 14.7116 5.40531 14.666 6.24883C14.666 8.18416 12.7013 10.9415 9.27599 13.8128V13.8155Z" fill="#C3C8D4"/>
</g>
<defs>
<clipPath id="clip0_749_2175">
<rect width="16" height="16" fill="white" transform="translate(0 0.271484)"/>
</clipPath>
</defs>
</svg>
