<svg width="16" height="16" viewBox="0 0 16 16" fill="none" xmlns="http://www.w3.org/2000/svg">
<g clip-path="url(#clip0_749_241)">
<path d="M7.9987 5.5127C7.47128 5.5127 6.95571 5.66909 6.51718 5.96211C6.07865 6.25513 5.73685 6.6716 5.53502 7.15887C5.33319 7.64614 5.28038 8.18232 5.38327 8.6996C5.48617 9.21689 5.74014 9.69204 6.11308 10.065C6.48602 10.4379 6.96118 10.6919 7.47846 10.7948C7.99574 10.8977 8.53192 10.8449 9.01919 10.643C9.50646 10.4412 9.92293 10.0994 10.216 9.66088C10.509 9.22235 10.6654 8.70678 10.6654 8.17936C10.6654 7.47212 10.3844 6.79384 9.88432 6.29374C9.38422 5.79365 8.70594 5.5127 7.9987 5.5127V5.5127ZM7.9987 9.5127C7.73499 9.5127 7.4772 9.4345 7.25794 9.28799C7.03867 9.14148 6.86778 8.93324 6.76686 8.68961C6.66594 8.44597 6.63954 8.17788 6.69099 7.91924C6.74243 7.6606 6.86942 7.42302 7.05589 7.23655C7.24236 7.05008 7.47994 6.9231 7.73858 6.87165C7.99722 6.8202 8.26531 6.84661 8.50894 6.94752C8.75258 7.04844 8.96082 7.21934 9.10733 7.4386C9.25383 7.65787 9.33203 7.91565 9.33203 8.17936C9.33203 8.53298 9.19156 8.87212 8.94151 9.12217C8.69146 9.37222 8.35232 9.5127 7.9987 9.5127Z" fill="#C3C8D4"/>
<path d="M14.1946 9.44538L13.8986 9.27471C14.0318 8.54967 14.0318 7.80642 13.8986 7.08138L14.1946 6.91071C14.4222 6.77939 14.6217 6.60452 14.7818 6.39609C14.9418 6.18765 15.0592 5.94974 15.1273 5.69592C15.1954 5.44211 15.2129 5.17737 15.1786 4.91682C15.1444 4.65626 15.0592 4.405 14.9279 4.17738C14.7966 3.94975 14.6217 3.75022 14.4133 3.59018C14.2048 3.43014 13.9669 3.31272 13.7131 3.24462C13.4593 3.17652 13.1946 3.15909 12.934 3.1933C12.6735 3.22752 12.4222 3.31272 12.1946 3.44404L11.8979 3.61538C11.3376 3.13666 10.6937 2.76554 9.99856 2.52071V2.17871C9.99856 1.64828 9.78785 1.13957 9.41278 0.764497C9.03771 0.389425 8.529 0.178711 7.99856 0.178711C7.46813 0.178711 6.95942 0.389425 6.58435 0.764497C6.20928 1.13957 5.99856 1.64828 5.99856 2.17871V2.52071C5.30349 2.76642 4.6598 3.13844 4.0999 3.61804L3.8019 3.44538C3.34219 3.18016 2.79595 3.10843 2.28335 3.24595C1.77075 3.38348 1.33378 3.719 1.06856 4.17871C0.803347 4.63842 0.731612 5.18466 0.869139 5.69726C1.00667 6.20986 1.34219 6.64683 1.8019 6.91204L2.0979 7.08271C1.96464 7.80775 1.96464 8.55101 2.0979 9.27604L1.8019 9.44671C1.34219 9.71193 1.00667 10.1489 0.869139 10.6615C0.731612 11.1741 0.803347 11.7203 1.06856 12.18C1.33378 12.6398 1.77075 12.9753 2.28335 13.1128C2.79595 13.2503 3.34219 13.1786 3.8019 12.9134L4.09856 12.742C4.65907 13.2208 5.30322 13.592 5.99856 13.8367V14.1787C5.99856 14.7091 6.20928 15.2179 6.58435 15.5929C6.95942 15.968 7.46813 16.1787 7.99856 16.1787C8.529 16.1787 9.03771 15.968 9.41278 15.5929C9.78785 15.2179 9.99856 14.7091 9.99856 14.1787V13.8367C10.6936 13.591 11.3373 13.219 11.8972 12.7394L12.1952 12.9114C12.6549 13.1766 13.2012 13.2483 13.7138 13.1108C14.2264 12.9733 14.6633 12.6378 14.9286 12.178C15.1938 11.7183 15.2655 11.1721 15.128 10.6595C14.9905 10.1469 14.6549 9.70993 14.1952 9.44471L14.1946 9.44538ZM12.4959 6.92804C12.7217 7.74609 12.7217 8.61 12.4959 9.42804C12.4565 9.57043 12.4655 9.72187 12.5215 9.85858C12.5774 9.9953 12.6773 10.1095 12.8052 10.1834L13.5279 10.6007C13.6811 10.6891 13.7929 10.8348 13.8387 11.0056C13.8846 11.1765 13.8606 11.3585 13.7722 11.5117C13.6838 11.6649 13.5382 11.7767 13.3673 11.8226C13.1965 11.8684 13.0144 11.8444 12.8612 11.756L12.1372 11.3374C12.0092 11.2632 11.86 11.2338 11.7134 11.2537C11.5667 11.2736 11.4309 11.3417 11.3272 11.4474C10.7338 12.0531 9.98628 12.4854 9.16523 12.6974C9.02192 12.7342 8.89494 12.8177 8.80429 12.9347C8.71365 13.0516 8.66449 13.1954 8.66456 13.3434V14.1787C8.66456 14.3555 8.59433 14.5251 8.4693 14.6501C8.34428 14.7751 8.17471 14.8454 7.9979 14.8454C7.82109 14.8454 7.65152 14.7751 7.52649 14.6501C7.40147 14.5251 7.33123 14.3555 7.33123 14.1787V13.344C7.3313 13.1961 7.28215 13.0523 7.1915 12.9353C7.10086 12.8184 6.97388 12.7349 6.83056 12.698C6.00946 12.4852 5.26212 12.052 4.66923 11.4454C4.56558 11.3397 4.42972 11.2716 4.28307 11.2517C4.13641 11.2318 3.9873 11.2612 3.85923 11.3354L3.13656 11.7534C3.06072 11.7978 2.97682 11.8269 2.88971 11.8388C2.8026 11.8507 2.714 11.8452 2.629 11.8228C2.544 11.8003 2.46429 11.7612 2.39444 11.7078C2.3246 11.6544 2.26602 11.5877 2.22205 11.5116C2.17809 11.4355 2.14963 11.3514 2.1383 11.2642C2.12696 11.177 2.13299 11.0884 2.15602 11.0036C2.17906 10.9187 2.21865 10.8393 2.27252 10.7698C2.32639 10.7003 2.39347 10.6422 2.4699 10.5987L3.19256 10.1814C3.32053 10.1075 3.42035 9.9933 3.47634 9.85658C3.53233 9.71987 3.54132 9.56843 3.5019 9.42604C3.27614 8.608 3.27614 7.74409 3.5019 6.92604C3.54061 6.78397 3.53119 6.63307 3.47511 6.49691C3.41903 6.36074 3.31944 6.24698 3.1919 6.17338L2.46923 5.75604C2.31602 5.66764 2.20421 5.52199 2.15839 5.35115C2.11257 5.1803 2.13649 4.99825 2.2249 4.84504C2.3133 4.69184 2.45895 4.58002 2.62979 4.5342C2.80064 4.48838 2.98269 4.51231 3.1359 4.60071L3.8599 5.01938C3.98762 5.09372 4.13642 5.12352 4.28292 5.10409C4.42941 5.08466 4.5653 5.01711 4.66923 4.91204C5.26262 4.30627 6.01018 3.87406 6.83123 3.66204C6.97499 3.62509 7.1023 3.54121 7.19299 3.42371C7.28368 3.30621 7.33256 3.16181 7.3319 3.01338V2.17871C7.3319 2.0019 7.40214 1.83233 7.52716 1.70731C7.65218 1.58228 7.82175 1.51204 7.99856 1.51204C8.17537 1.51204 8.34494 1.58228 8.46997 1.70731C8.59499 1.83233 8.66523 2.0019 8.66523 2.17871V3.01338C8.66516 3.16135 8.71432 3.30514 8.80496 3.4221C8.89561 3.53906 9.02259 3.62253 9.1659 3.65938C9.98724 3.87215 10.7348 4.3053 11.3279 4.91204C11.4315 5.01769 11.5674 5.08584 11.7141 5.10576C11.8607 5.12567 12.0098 5.09622 12.1379 5.02204L12.8606 4.60404C12.9364 4.55958 13.0203 4.53056 13.1074 4.51865C13.1945 4.50674 13.2831 4.51217 13.3681 4.53465C13.4531 4.55712 13.5328 4.59618 13.6027 4.64959C13.6725 4.70299 13.7311 4.76969 13.7751 4.84583C13.819 4.92197 13.8475 5.00605 13.8588 5.09324C13.8702 5.18042 13.8641 5.26899 13.8411 5.35384C13.8181 5.43869 13.7785 5.51814 13.7246 5.58763C13.6707 5.65711 13.6037 5.71526 13.5272 5.75871L12.8046 6.17604C12.6773 6.24985 12.578 6.3637 12.5221 6.49984C12.4663 6.63599 12.4571 6.78678 12.4959 6.92871V6.92804Z" fill="#C3C8D4"/>
</g>
<defs>
<clipPath id="clip0_749_241">
<rect width="16" height="16" fill="white" transform="translate(0 0.178711)"/>
</clipPath>
</defs>
</svg>
