<svg width="64" height="64" viewBox="0 0 64 64" fill="none" xmlns="http://www.w3.org/2000/svg">
<g clip-path="url(#clip0_144_1378)">
<path d="M61.3333 29.3333H34.6667V2.66667C34.6667 1.95942 34.3857 1.28115 33.8856 0.781049C33.3855 0.280952 32.7072 0 32 0V0C31.2928 0 30.6145 0.280952 30.1144 0.781049C29.6143 1.28115 29.3333 1.95942 29.3333 2.66667V29.3333H2.66667C1.95942 29.3333 1.28115 29.6143 0.781049 30.1144C0.280952 30.6145 0 31.2928 0 32H0C0 32.7072 0.280952 33.3855 0.781049 33.8856C1.28115 34.3857 1.95942 34.6667 2.66667 34.6667H29.3333V61.3333C29.3333 62.0406 29.6143 62.7189 30.1144 63.219C30.6145 63.7191 31.2928 64 32 64C32.7072 64 33.3855 63.7191 33.8856 63.219C34.3857 62.7189 34.6667 62.0406 34.6667 61.3333V34.6667H61.3333C62.0406 34.6667 62.7189 34.3857 63.219 33.8856C63.7191 33.3855 64 32.7072 64 32C64 31.2928 63.7191 30.6145 63.219 30.1144C62.7189 29.6143 62.0406 29.3333 61.3333 29.3333Z" fill="#475069"/>
</g>
<defs>
<clipPath id="clip0_144_1378">
<rect width="64" height="64" fill="white"/>
</clipPath>
</defs>
</svg>
