<svg width="64" height="64" viewBox="0 0 64 64" fill="none" xmlns="http://www.w3.org/2000/svg">
<g clip-path="url(#clip0_118_1222)">
<path d="M46.6679 5.11084C43.6651 5.15755 40.7277 5.99578 38.1526 7.5409C35.5774 9.08601 33.4555 11.2833 32.0012 13.9108C30.5469 11.2833 28.425 9.08601 25.8498 7.5409C23.2746 5.99578 20.3373 5.15755 17.3345 5.11084C12.5477 5.31882 8.03774 7.41285 4.78995 10.9355C1.54215 14.4581 -0.179477 19.1229 0.00119086 23.9108C0.00119086 36.0362 12.7639 49.2788 23.4679 58.2575C25.8578 60.2659 28.8795 61.3669 32.0012 61.3669C35.1229 61.3669 38.1446 60.2659 40.5345 58.2575C51.2385 49.2788 64.0012 36.0362 64.0012 23.9108C64.1819 19.1229 62.4602 14.4581 59.2124 10.9355C55.9646 7.41285 51.4547 5.31882 46.6679 5.11084Z" fill="#6E0E2E"/>
</g>
<defs>
<clipPath id="clip0_118_1222">
<rect width="64" height="64" fill="white"/>
</clipPath>
</defs>
</svg>
