<svg width="64" height="64" viewBox="0 0 64 64" fill="none" xmlns="http://www.w3.org/2000/svg">
<g clip-path="url(#clip0_144_1387)">
<path d="M46.6679 5.11084C43.6651 5.15755 40.7277 5.99578 38.1526 7.5409C35.5774 9.08601 33.4555 11.2833 32.0012 13.9108C30.5469 11.2833 28.425 9.08601 25.8498 7.5409C23.2746 5.99578 20.3373 5.15755 17.3345 5.11084C12.5477 5.31882 8.03774 7.41285 4.78995 10.9355C1.54215 14.4581 -0.179477 19.1229 0.00119086 23.9108C0.00119086 36.0362 12.7639 49.2788 23.4679 58.2575C25.8578 60.2659 28.8795 61.3669 32.0012 61.3669C35.1229 61.3669 38.1446 60.2659 40.5345 58.2575C51.2385 49.2788 64.0012 36.0362 64.0012 23.9108C64.1819 19.1229 62.4602 14.4581 59.2124 10.9355C55.9646 7.41285 51.4547 5.31882 46.6679 5.11084ZM37.1079 54.1775C35.6785 55.3812 33.8699 56.0413 32.0012 56.0413C30.1325 56.0413 28.3239 55.3812 26.8945 54.1775C13.1932 42.6815 5.33452 31.6522 5.33452 23.9108C5.15223 20.5367 6.3115 17.2275 8.55949 14.7047C10.8075 12.182 13.9618 10.6504 17.3345 10.4442C20.7072 10.6504 23.8616 12.182 26.1096 14.7047C28.3575 17.2275 29.5168 20.5367 29.3345 23.9108C29.3345 24.6181 29.6155 25.2964 30.1156 25.7965C30.6157 26.2966 31.2939 26.5775 32.0012 26.5775C32.7084 26.5775 33.3867 26.2966 33.8868 25.7965C34.3869 25.2964 34.6679 24.6181 34.6679 23.9108C34.4856 20.5367 35.6448 17.2275 37.8928 14.7047C40.1408 12.182 43.2951 10.6504 46.6679 10.4442C50.0406 10.6504 53.1949 12.182 55.4429 14.7047C57.6909 17.2275 58.8502 20.5367 58.6679 23.9108C58.6679 31.6522 50.8092 42.6815 37.1079 54.1668V54.1775Z" fill="#475069"/>
</g>
<defs>
<clipPath id="clip0_144_1387">
<rect width="64" height="64" fill="white"/>
</clipPath>
</defs>
</svg>
