<svg width="20" height="21" viewBox="0 0 20 21" fill="none" xmlns="http://www.w3.org/2000/svg">
<g clip-path="url(#clip0_336_6536)">
<path d="M16.6667 0.708008H3.33333C2.44928 0.708008 1.60143 1.0592 0.976311 1.68432C0.35119 2.30944 0 3.15729 0 4.04134L0 14.0413C0 14.9254 0.35119 15.7732 0.976311 16.3984C1.60143 17.0235 2.44928 17.3747 3.33333 17.3747H5.75L9.45917 20.5105C9.60964 20.6378 9.80038 20.7077 9.9975 20.7077C10.1946 20.7077 10.3854 20.6378 10.5358 20.5105L14.25 17.3747H16.6667C17.5507 17.3747 18.3986 17.0235 19.0237 16.3984C19.6488 15.7732 20 14.9254 20 14.0413V4.04134C20 3.15729 19.6488 2.30944 19.0237 1.68432C18.3986 1.0592 17.5507 0.708008 16.6667 0.708008V0.708008ZM18.3333 14.0413C18.3333 14.4834 18.1577 14.9073 17.8452 15.2199C17.5326 15.5324 17.1087 15.708 16.6667 15.708H14.25C13.8561 15.7081 13.4749 15.8478 13.1742 16.1022L10 18.783L6.8275 16.1022C6.5263 15.8474 6.1445 15.7077 5.75 15.708H3.33333C2.89131 15.708 2.46738 15.5324 2.15482 15.2199C1.84226 14.9073 1.66667 14.4834 1.66667 14.0413V4.04134C1.66667 3.59931 1.84226 3.17539 2.15482 2.86283C2.46738 2.55027 2.89131 2.37467 3.33333 2.37467H16.6667C17.1087 2.37467 17.5326 2.55027 17.8452 2.86283C18.1577 3.17539 18.3333 3.59931 18.3333 4.04134V14.0413Z" fill="#374957"/>
<path d="M5.83333 6.54166H10C10.221 6.54166 10.433 6.45387 10.5893 6.29759C10.7455 6.14131 10.8333 5.92934 10.8333 5.70833C10.8333 5.48732 10.7455 5.27536 10.5893 5.11908C10.433 4.9628 10.221 4.875 10 4.875H5.83333C5.61232 4.875 5.40036 4.9628 5.24408 5.11908C5.0878 5.27536 5 5.48732 5 5.70833C5 5.92934 5.0878 6.14131 5.24408 6.29759C5.40036 6.45387 5.61232 6.54166 5.83333 6.54166Z" fill="#374957"/>
<path d="M14.1667 8.20801H5.83333C5.61232 8.20801 5.40036 8.29581 5.24408 8.45209C5.0878 8.60837 5 8.82033 5 9.04134C5 9.26235 5.0878 9.47431 5.24408 9.63059C5.40036 9.78687 5.61232 9.87467 5.83333 9.87467H14.1667C14.3877 9.87467 14.5996 9.78687 14.7559 9.63059C14.9122 9.47431 15 9.26235 15 9.04134C15 8.82033 14.9122 8.60837 14.7559 8.45209C14.5996 8.29581 14.3877 8.20801 14.1667 8.20801Z" fill="#374957"/>
<path d="M14.1667 11.541H5.83333C5.61232 11.541 5.40036 11.6288 5.24408 11.7851C5.0878 11.9414 5 12.1533 5 12.3744C5 12.5954 5.0878 12.8073 5.24408 12.9636C5.40036 13.1199 5.61232 13.2077 5.83333 13.2077H14.1667C14.3877 13.2077 14.5996 13.1199 14.7559 12.9636C14.9122 12.8073 15 12.5954 15 12.3744C15 12.1533 14.9122 11.9414 14.7559 11.7851C14.5996 11.6288 14.3877 11.541 14.1667 11.541Z" fill="#374957"/>
</g>
<defs>
<clipPath id="clip0_336_6536">
<rect width="20" height="20" fill="white" transform="translate(0 0.708008)"/>
</clipPath>
</defs>
</svg>
