<svg width="17" height="16" viewBox="0 0 17 16" fill="none" xmlns="http://www.w3.org/2000/svg">
<g clip-path="url(#clip0_821_79)">
<path d="M15.7353 0.765302C15.2821 0.312767 14.6678 0.0585938 14.0273 0.0585938C13.3869 0.0585938 12.7726 0.312767 12.3193 0.765302L1.47668 11.608C1.16618 11.9167 0.919985 12.284 0.752342 12.6885C0.584699 13.093 0.498935 13.5268 0.50001 13.9646V15.3333C0.50001 15.5101 0.570248 15.6797 0.695272 15.8047C0.820296 15.9297 0.989866 16 1.16668 16H2.53534C2.97319 16.0012 3.40692 15.9156 3.81145 15.748C4.21597 15.5805 4.58325 15.3344 4.89201 15.024L15.7353 4.18064C16.1877 3.72743 16.4417 3.11328 16.4417 2.47297C16.4417 1.83266 16.1877 1.21851 15.7353 0.765302ZM3.94934 14.0813C3.57335 14.4548 3.06532 14.6651 2.53534 14.6666H1.83334V13.9646C1.83267 13.7019 1.88411 13.4416 1.9847 13.1989C2.08529 12.9562 2.23302 12.7359 2.41934 12.5506L10.648 4.32197L12.1813 5.8553L3.94934 14.0813ZM14.792 3.23797L13.1213 4.9093L11.588 3.3793L13.2593 1.70797C13.36 1.60751 13.4795 1.52786 13.611 1.47358C13.7424 1.41929 13.8833 1.39143 14.0255 1.39158C14.1678 1.39174 14.3086 1.41991 14.4399 1.47448C14.5712 1.52905 14.6905 1.60896 14.791 1.70964C14.8915 1.81032 14.9711 1.9298 15.0254 2.06126C15.0797 2.19272 15.1076 2.33359 15.1074 2.47581C15.1072 2.61804 15.0791 2.75885 15.0245 2.89019C14.9699 3.02153 14.89 3.14084 14.7893 3.2413L14.792 3.23797Z" fill="#475069"/>
</g>
<defs>
<clipPath id="clip0_821_79">
<rect width="16" height="16" fill="white" transform="translate(0.5)"/>
</clipPath>
</defs>
</svg>
