<svg width="19" height="18" viewBox="0 0 19 18" fill="none" xmlns="http://www.w3.org/2000/svg">
<g clip-path="url(#clip0_740_183)">
<path d="M14.3906 0.75H3.89062C2.89643 0.751191 1.94329 1.14666 1.24029 1.84966C0.537286 2.55267 0.141816 3.5058 0.140625 4.5L0.140625 13.5C0.141816 14.4942 0.537286 15.4473 1.24029 16.1503C1.94329 16.8533 2.89643 17.2488 3.89062 17.25H14.3906C15.3848 17.2488 16.338 16.8533 17.041 16.1503C17.744 15.4473 18.1394 14.4942 18.1406 13.5V4.5C18.1394 3.5058 17.744 2.55267 17.041 1.84966C16.338 1.14666 15.3848 0.751191 14.3906 0.75ZM3.89062 2.25H14.3906C14.8397 2.25088 15.2783 2.38614 15.6498 2.63835C16.0214 2.89057 16.309 3.24821 16.4756 3.66525L10.7321 9.4095C10.3094 9.83049 9.73719 10.0669 9.14062 10.0669C8.54406 10.0669 7.9718 9.83049 7.54913 9.4095L1.80562 3.66525C1.97224 3.24821 2.25984 2.89057 2.63141 2.63835C3.00299 2.38614 3.44154 2.25088 3.89062 2.25ZM14.3906 15.75H3.89062C3.29389 15.75 2.72159 15.5129 2.29963 15.091C1.87768 14.669 1.64062 14.0967 1.64062 13.5V5.625L6.48862 10.47C7.1926 11.1722 8.14632 11.5665 9.14062 11.5665C10.1349 11.5665 11.0887 11.1722 11.7926 10.47L16.6406 5.625V13.5C16.6406 14.0967 16.4036 14.669 15.9816 15.091C15.5597 15.5129 14.9874 15.75 14.3906 15.75Z" fill="#475069"/>
</g>
<defs>
<clipPath id="clip0_740_183">
<rect width="18" height="18" fill="white" transform="translate(0.140625)"/>
</clipPath>
</defs>
</svg>
