<svg width="64" height="64" viewBox="0 0 64 64" fill="none" xmlns="http://www.w3.org/2000/svg">
<g clip-path="url(#clip0_118_1322)">
<path d="M63.5632 23.4514C63.0177 21.7151 61.9279 20.2005 60.4551 19.1314C58.9822 18.0624 57.2043 17.4958 55.3845 17.5154H43.7338L40.1952 6.48602C39.6387 4.74991 38.5452 3.2354 37.0724 2.16087C35.5996 1.08634 33.8236 0.507324 32.0005 0.507324C30.1774 0.507324 28.4014 1.08634 26.9286 2.16087C25.4558 3.2354 24.3623 4.74991 23.8058 6.48602L20.2672 17.5154H8.61651C6.8025 17.5179 5.03569 18.0937 3.56846 19.1604C2.10123 20.2272 1.00862 21.7303 0.446705 23.4551C-0.115213 25.1799 -0.117701 27.0381 0.439599 28.7644C0.996898 30.4907 2.08548 31.9967 3.54985 33.0674L13.0325 40.0007L9.42718 51.166C8.84455 52.8977 8.83716 54.7714 9.40614 56.5076C9.97511 58.2438 11.09 59.7497 12.5845 60.8007C14.0535 61.8854 15.8336 62.4666 17.6596 62.4574C19.4856 62.4483 21.2598 61.8494 22.7178 60.75L32.0005 53.918L41.2859 60.742C42.7521 61.8206 44.5226 62.4064 46.3428 62.4152C48.163 62.4241 49.9392 61.8556 51.4159 60.7914C52.8926 59.7272 53.9938 58.2221 54.5613 56.4926C55.1287 54.7631 55.1331 52.8982 54.5738 51.166L50.9685 40.0007L60.4618 33.0674C61.943 32.0102 63.0443 30.5042 63.6029 28.7723C64.1614 27.0404 64.1475 25.1747 63.5632 23.4514ZM57.3152 28.7607L46.2645 36.838C45.8106 37.1691 45.4729 37.6352 45.2996 38.1696C45.1262 38.704 45.1261 39.2795 45.2992 39.814L49.4992 52.8007C49.7117 53.4594 49.7099 54.1685 49.494 54.8261C49.2781 55.4837 48.8593 56.0558 48.2977 56.4604C47.7361 56.8649 47.0607 57.0809 46.3686 57.0774C45.6764 57.0738 45.0033 56.8509 44.4458 56.4407L33.5792 48.4407C33.1215 48.1045 32.5684 47.9232 32.0005 47.9232C31.4326 47.9232 30.8795 48.1045 30.4218 48.4407L19.5552 56.4407C18.9981 56.8565 18.323 57.084 17.6279 57.0903C16.9328 57.0966 16.2537 56.8814 15.6891 56.4758C15.1246 56.0702 14.7038 55.4953 14.488 54.8345C14.2721 54.1737 14.2723 53.4614 14.4885 52.8007L18.7018 39.814C18.875 39.2795 18.8748 38.704 18.7015 38.1696C18.5281 37.6352 18.1904 37.1691 17.7365 36.838L6.68585 28.7607C6.12932 28.3532 5.71581 27.7803 5.50436 27.1237C5.29291 26.4672 5.29435 25.7606 5.50847 25.105C5.72259 24.4493 6.13845 23.878 6.69663 23.4728C7.25481 23.0676 7.92676 22.8492 8.61651 22.8487H22.2165C22.7811 22.8487 23.3311 22.6695 23.7873 22.3369C24.2435 22.0043 24.5824 21.5355 24.7552 20.998L28.8885 8.11536C29.1007 7.45612 29.5166 6.8812 30.0763 6.47336C30.636 6.06551 31.3106 5.84577 32.0032 5.84577C32.6957 5.84577 33.3704 6.06551 33.9301 6.47336C34.4898 6.8812 34.9057 7.45612 35.1178 8.11536L39.2512 20.998C39.4239 21.5355 39.7628 22.0043 40.2191 22.3369C40.6753 22.6695 41.2253 22.8487 41.7898 22.8487H55.3898C56.0796 22.8492 56.7516 23.0676 57.3097 23.4728C57.8679 23.878 58.2838 24.4493 58.4979 25.105C58.712 25.7606 58.7135 26.4672 58.502 27.1237C58.2906 27.7803 57.877 28.3532 57.3205 28.7607H57.3152Z" fill="#6E0E2E"/>
</g>
<defs>
<clipPath id="clip0_118_1322">
<rect width="64" height="64" fill="white"/>
</clipPath>
</defs>
</svg>
