<svg width="30" height="31" viewBox="0 0 30 31" fill="none" xmlns="http://www.w3.org/2000/svg">
<g clip-path="url(#clip0_740_4530)">
<path d="M29.945 27.1486C29.8963 26.9918 29.8171 26.8462 29.7121 26.72C29.6071 26.5938 29.4782 26.4895 29.3329 26.4132C29.1876 26.3368 29.0286 26.2898 28.8651 26.2748C28.7016 26.2599 28.5368 26.2773 28.38 26.3261L26.755 26.8261L25.5913 23.4048C26.8136 22.7189 27.7671 21.6386 28.2957 20.3405C28.8243 19.0423 28.8968 17.6033 28.5013 16.2586L26.1975 9.41483C25.9076 8.48052 25.2666 7.69507 24.4094 7.22369C23.5522 6.75231 22.5456 6.63173 21.6013 6.88733L16.7863 8.22983C16.0958 8.42196 15.4757 8.81012 15.0013 9.34733C14.5268 8.81012 13.9068 8.42196 13.2163 8.22983L8.40002 6.88733C7.4626 6.62875 6.46146 6.74341 5.60678 7.20722C4.7521 7.67104 4.11035 8.44794 3.81627 9.37483L1.48252 16.3211C1.10254 17.6647 1.18764 19.0973 1.72402 20.3866C2.2604 21.6758 3.2166 22.746 4.43752 23.4236L3.25752 26.8336L1.62627 26.3261C1.4695 26.2768 1.30457 26.2589 1.14089 26.2734C0.977214 26.2879 0.817993 26.3345 0.672321 26.4106C0.52665 26.4866 0.397379 26.5906 0.29189 26.7165C0.186402 26.8425 0.106761 26.9881 0.0575151 27.1448C0.00826937 27.3016 -0.00961687 27.4665 0.00487759 27.6302C0.0193721 27.7939 0.0659634 27.9531 0.141991 28.0988C0.218019 28.2444 0.321995 28.3737 0.447982 28.4792C0.573969 28.5847 0.7195 28.6643 0.876265 28.7136L3.57627 29.5523C3.59502 29.5523 3.60627 29.5736 3.62502 29.5811C3.64377 29.5886 3.69002 29.5886 3.72252 29.5973L6.44877 30.4436C6.76537 30.542 7.10812 30.5107 7.40161 30.3565C7.69511 30.2022 7.9153 29.9377 8.01377 29.6211C8.11223 29.3045 8.08089 28.9617 7.92664 28.6682C7.77239 28.3747 7.50787 28.1545 7.19127 28.0561L5.64627 27.5748L6.81502 24.1998C7.04681 24.2296 7.2801 24.2463 7.51377 24.2498C8.86522 24.2465 10.1792 23.8052 11.2587 22.9921C12.3382 22.179 13.125 21.0379 13.5013 19.7398L15.0013 15.2948L16.48 19.6698C16.8445 20.9844 17.6291 22.1436 18.714 22.9705C19.7989 23.7975 21.1246 24.2468 22.4888 24.2498C22.7316 24.2475 22.9741 24.2308 23.215 24.1998L24.3625 27.5748L22.8075 28.0573C22.4909 28.1558 22.2264 28.376 22.0721 28.6695C21.9179 28.963 21.8866 29.3057 21.985 29.6223C22.0835 29.9389 22.3037 30.2035 22.5972 30.3577C22.8907 30.5119 23.2334 30.5433 23.55 30.4448L26.2688 29.6011C26.3013 29.5923 26.335 29.6011 26.3675 29.5848C26.4 29.5686 26.4 29.5611 26.42 29.5536L29.1225 28.7148C29.2794 28.6661 29.4252 28.5869 29.5515 28.4818C29.6778 28.3767 29.7821 28.2477 29.8585 28.1022C29.9349 27.9568 29.9818 27.7977 29.9967 27.634C30.0115 27.4704 29.994 27.3054 29.945 27.1486ZM16.6975 11.2398C16.777 11.0934 16.8854 10.9645 17.016 10.8609C17.1466 10.7574 17.2968 10.6813 17.4575 10.6373L22.2713 9.29608C22.3787 9.266 22.4897 9.25045 22.6013 9.24983C22.8762 9.25273 23.1428 9.34416 23.3617 9.51056C23.5806 9.67695 23.74 9.90945 23.8163 10.1736L24.7675 12.9998H16.8638L16.595 12.2036C16.5471 12.0442 16.5315 11.8769 16.5491 11.7114C16.5667 11.5459 16.6171 11.3856 16.6975 11.2398ZM7.39877 9.24983C7.51069 9.25003 7.62209 9.26517 7.73002 9.29483L12.545 10.6373C12.8631 10.7251 13.1336 10.935 13.2975 11.2214C13.4614 11.5078 13.5055 11.8474 13.42 12.1661L13.1388 12.9998H5.23501L6.19752 10.1373C6.27695 9.88064 6.43636 9.65608 6.65247 9.49641C6.86858 9.33675 7.13007 9.25035 7.39877 9.24983ZM11.1163 18.9998C10.9166 19.7133 10.5101 20.3517 9.94793 20.8344C9.3858 21.3171 8.69329 21.6224 7.95779 21.7119C7.22229 21.8013 6.47677 21.6709 5.81533 21.3371C5.15388 21.0032 4.60615 20.4809 4.24127 19.8361C3.75817 18.9937 3.627 17.9946 3.87627 17.0561L4.39377 15.4998H12.2963L11.1163 18.9998ZM20.6563 21.2598C20.2183 21.0113 19.8344 20.6777 19.5272 20.2786C19.22 19.8795 18.9957 19.4231 18.8675 18.9361L17.7063 15.4998H25.61L26.11 16.9923C26.3095 17.7071 26.2924 18.465 26.061 19.1701C25.8295 19.8752 25.394 20.4957 24.8097 20.9532C24.2253 21.4106 23.5184 21.6844 22.7784 21.7399C22.0384 21.7954 21.2985 21.63 20.6525 21.2648L20.6563 21.2598Z" fill="#FCF8F3"/>
<path d="M19.4395 5.37552C19.5871 5.44972 19.7479 5.49394 19.9127 5.50561C20.0774 5.51729 20.2429 5.49619 20.3994 5.44353C20.556 5.39088 20.7006 5.30772 20.8248 5.19885C20.9491 5.08998 21.0505 4.95757 21.1232 4.80927L22.3732 2.30927C22.5214 2.01256 22.5457 1.66913 22.4407 1.35454C22.3356 1.03995 22.11 0.779962 21.8132 0.631772C21.5165 0.483583 21.1731 0.45933 20.8585 0.564351C20.5439 0.669371 20.2839 0.895061 20.1357 1.19177L18.8857 3.69177C18.8111 3.8386 18.7662 3.99873 18.7536 4.16297C18.7411 4.3272 18.7611 4.4923 18.8126 4.64877C18.864 4.80523 18.9459 4.94999 19.0535 5.07471C19.1611 5.19943 19.2923 5.30166 19.4395 5.37552Z" fill="#FCF8F3"/>
<path d="M8.87943 4.80927C9.02762 5.10681 9.28794 5.3333 9.60311 5.4389C9.75917 5.49119 9.92401 5.51223 10.0882 5.50082C10.2524 5.48941 10.4127 5.44577 10.5601 5.3724C10.7074 5.29902 10.8388 5.19735 10.9468 5.07317C11.0549 4.949 11.1374 4.80477 11.1897 4.64871C11.242 4.49265 11.263 4.32782 11.2516 4.16363C11.2402 3.99944 11.1966 3.8391 11.1232 3.69177L9.87318 1.19177C9.7998 1.04486 9.69821 0.913831 9.57419 0.806177C9.45018 0.698524 9.30618 0.616351 9.15041 0.564351C8.83582 0.45933 8.49239 0.483583 8.19568 0.631772C7.89897 0.779962 7.67328 1.03995 7.56826 1.35454C7.46324 1.66913 7.48749 2.01256 7.63568 2.30927L8.87943 4.80927Z" fill="#FCF8F3"/>
<path d="M15 5.5C15.3315 5.5 15.6495 5.3683 15.8839 5.13388C16.1183 4.89946 16.25 4.58152 16.25 4.25V1.75C16.25 1.41848 16.1183 1.10054 15.8839 0.866117C15.6495 0.631696 15.3315 0.5 15 0.5C14.6685 0.5 14.3505 0.631696 14.1161 0.866117C13.8817 1.10054 13.75 1.41848 13.75 1.75V4.25C13.75 4.58152 13.8817 4.89946 14.1161 5.13388C14.3505 5.3683 14.6685 5.5 15 5.5Z" fill="#FCF8F3"/>
</g>
<defs>
<clipPath id="clip0_740_4530">
<rect width="30" height="30" fill="white" transform="translate(0 0.5)"/>
</clipPath>
</defs>
</svg>
