<svg width="30" height="30" viewBox="0 0 30 30" fill="none" xmlns="http://www.w3.org/2000/svg">
<g clip-path="url(#clip0_595_2548)">
<path d="M29.945 26.6486C29.8963 26.4918 29.8171 26.3462 29.7121 26.22C29.6071 26.0938 29.4782 25.9895 29.3329 25.9132C29.1876 25.8368 29.0286 25.7898 28.8651 25.7748C28.7016 25.7599 28.5368 25.7773 28.38 25.8261L26.755 26.3261L25.5913 22.9048C26.8136 22.2189 27.7671 21.1386 28.2957 19.8405C28.8243 18.5423 28.8968 17.1033 28.5013 15.7586L26.1975 8.91483C25.9076 7.98052 25.2666 7.19507 24.4094 6.72369C23.5522 6.25231 22.5456 6.13173 21.6013 6.38733L16.7863 7.72983C16.0958 7.92196 15.4757 8.31012 15.0013 8.84733C14.5268 8.31012 13.9068 7.92196 13.2163 7.72983L8.40002 6.38733C7.4626 6.12875 6.46146 6.24341 5.60678 6.70722C4.7521 7.17104 4.11035 7.94794 3.81627 8.87483L1.48252 15.8211C1.10254 17.1647 1.18764 18.5973 1.72402 19.8866C2.2604 21.1758 3.2166 22.246 4.43752 22.9236L3.25752 26.3336L1.62627 25.8261C1.4695 25.7768 1.30457 25.7589 1.14089 25.7734C0.977214 25.7879 0.817993 25.8345 0.672321 25.9106C0.52665 25.9866 0.397379 26.0906 0.29189 26.2165C0.186402 26.3425 0.106761 26.4881 0.0575151 26.6448C0.00826937 26.8016 -0.00961687 26.9665 0.00487759 27.1302C0.0193721 27.2939 0.0659634 27.4531 0.141991 27.5988C0.218019 27.7444 0.321995 27.8737 0.447982 27.9792C0.573969 28.0847 0.7195 28.1643 0.876265 28.2136L3.57627 29.0523C3.59502 29.0523 3.60627 29.0736 3.62502 29.0811C3.64377 29.0886 3.69002 29.0886 3.72252 29.0973L6.44877 29.9436C6.76537 30.042 7.10812 30.0107 7.40161 29.8565C7.69511 29.7022 7.9153 29.4377 8.01377 29.1211C8.11223 28.8045 8.08089 28.4617 7.92664 28.1682C7.77239 27.8747 7.50787 27.6545 7.19127 27.5561L5.64627 27.0748L6.81502 23.6998C7.04681 23.7296 7.2801 23.7463 7.51377 23.7498C8.86522 23.7465 10.1792 23.3052 11.2587 22.4921C12.3382 21.679 13.125 20.5379 13.5013 19.2398L15.0013 14.7948L16.48 19.1698C16.8445 20.4844 17.6291 21.6436 18.714 22.4705C19.7989 23.2975 21.1246 23.7468 22.4888 23.7498C22.7316 23.7475 22.9741 23.7308 23.215 23.6998L24.3625 27.0748L22.8075 27.5573C22.4909 27.6558 22.2264 27.876 22.0721 28.1695C21.9179 28.463 21.8866 28.8057 21.985 29.1223C22.0835 29.4389 22.3037 29.7035 22.5972 29.8577C22.8907 30.0119 23.2334 30.0433 23.55 29.9448L26.2688 29.1011C26.3013 29.0923 26.335 29.1011 26.3675 29.0848C26.4 29.0686 26.4 29.0611 26.42 29.0536L29.1225 28.2148C29.2794 28.1661 29.4252 28.0869 29.5515 27.9818C29.6778 27.8767 29.7821 27.7477 29.8585 27.6022C29.9349 27.4568 29.9818 27.2977 29.9967 27.134C30.0115 26.9704 29.994 26.8054 29.945 26.6486ZM16.6975 10.7398C16.777 10.5934 16.8854 10.4645 17.016 10.3609C17.1466 10.2574 17.2968 10.1813 17.4575 10.1373L22.2713 8.79608C22.3787 8.766 22.4897 8.75045 22.6013 8.74983C22.8762 8.75273 23.1428 8.84416 23.3617 9.01056C23.5806 9.17695 23.74 9.40945 23.8163 9.67358L24.7675 12.4998H16.8638L16.595 11.7036C16.5471 11.5442 16.5315 11.3769 16.5491 11.2114C16.5667 11.0459 16.6171 10.8856 16.6975 10.7398ZM7.39877 8.74983C7.51069 8.75003 7.62209 8.76517 7.73002 8.79483L12.545 10.1373C12.8631 10.2251 13.1336 10.435 13.2975 10.7214C13.4614 11.0078 13.5055 11.3474 13.42 11.6661L13.1388 12.4998H5.23501L6.19752 9.63733C6.27695 9.38064 6.43636 9.15608 6.65247 8.99641C6.86858 8.83675 7.13007 8.75035 7.39877 8.74983ZM11.1163 18.4998C10.9166 19.2133 10.5101 19.8517 9.94793 20.3344C9.3858 20.8171 8.69329 21.1224 7.95779 21.2119C7.22229 21.3013 6.47677 21.1709 5.81533 20.8371C5.15388 20.5032 4.60615 19.9809 4.24127 19.3361C3.75817 18.4937 3.627 17.4946 3.87627 16.5561L4.39377 14.9998H12.2963L11.1163 18.4998ZM20.6563 20.7598C20.2183 20.5113 19.8344 20.1777 19.5272 19.7786C19.22 19.3795 18.9957 18.9231 18.8675 18.4361L17.7063 14.9998H25.61L26.11 16.4923C26.3095 17.2071 26.2924 17.965 26.061 18.6701C25.8295 19.3752 25.394 19.9957 24.8097 20.4532C24.2253 20.9106 23.5184 21.1844 22.7784 21.2399C22.0384 21.2954 21.2985 21.13 20.6525 20.7648L20.6563 20.7598Z" fill="#FCF8F3"/>
<path d="M19.4395 4.87552C19.5871 4.94972 19.7479 4.99394 19.9127 5.00561C20.0774 5.01729 20.2429 4.99619 20.3994 4.94353C20.556 4.89088 20.7006 4.80772 20.8248 4.69885C20.9491 4.58998 21.0505 4.45757 21.1232 4.30927L22.3732 1.80927C22.5214 1.51256 22.5457 1.16913 22.4407 0.854542C22.3356 0.53995 22.11 0.279962 21.8132 0.131772C21.5165 -0.0164175 21.1731 -0.0406698 20.8585 0.0643506C20.5439 0.169371 20.2839 0.395061 20.1357 0.691772L18.8857 3.19177C18.8111 3.3386 18.7662 3.49873 18.7536 3.66297C18.7411 3.8272 18.7611 3.9923 18.8126 4.14877C18.864 4.30523 18.9459 4.44999 19.0535 4.57471C19.1611 4.69943 19.2923 4.80166 19.4395 4.87552Z" fill="#FCF8F3"/>
<path d="M8.87943 4.30927C9.02762 4.60681 9.28794 4.8333 9.60311 4.9389C9.75917 4.99119 9.92401 5.01223 10.0882 5.00082C10.2524 4.98941 10.4127 4.94577 10.5601 4.8724C10.7074 4.79902 10.8388 4.69735 10.9468 4.57317C11.0549 4.449 11.1374 4.30477 11.1897 4.14871C11.242 3.99265 11.263 3.82782 11.2516 3.66363C11.2402 3.49944 11.1966 3.3391 11.1232 3.19177L9.87318 0.691772C9.7998 0.544856 9.69821 0.413831 9.57419 0.306177C9.45018 0.198524 9.30618 0.116351 9.15041 0.0643506C8.83582 -0.0406698 8.49239 -0.0164175 8.19568 0.131772C7.89897 0.279962 7.67328 0.53995 7.56826 0.854542C7.46324 1.16913 7.48749 1.51256 7.63568 1.80927L8.87943 4.30927Z" fill="#FCF8F3"/>
<path d="M15 5C15.3315 5 15.6495 4.8683 15.8839 4.63388C16.1183 4.39946 16.25 4.08152 16.25 3.75V1.25C16.25 0.918479 16.1183 0.600537 15.8839 0.366117C15.6495 0.131696 15.3315 0 15 0C14.6685 0 14.3505 0.131696 14.1161 0.366117C13.8817 0.600537 13.75 0.918479 13.75 1.25V3.75C13.75 4.08152 13.8817 4.39946 14.1161 4.63388C14.3505 4.8683 14.6685 5 15 5Z" fill="#FCF8F3"/>
</g>
<defs>
<clipPath id="clip0_595_2548">
<rect width="30" height="30" fill="white"/>
</clipPath>
</defs>
</svg>
