<svg width="64" height="64" viewBox="0 0 64 64" fill="none" xmlns="http://www.w3.org/2000/svg">
<g clip-path="url(#clip0_118_1324)">
<path d="M32.001 1.50732C33.6121 1.50742 35.1819 2.01869 36.4834 2.96826C37.7038 3.85867 38.6294 5.09134 39.1455 6.50635L39.2432 6.7915L42.7812 17.8208L43.0049 18.5151H55.3955C57.0005 18.4979 58.5682 18.9982 59.8672 19.9409C61.1663 20.8838 62.1282 22.22 62.6094 23.7515L62.6123 23.7622L62.6162 23.7729C63.1314 25.2927 63.1439 26.9381 62.6514 28.4653C62.1896 29.8972 61.3068 31.1539 60.1221 32.0737L59.8809 32.2534L59.8721 32.2603L50.3789 39.1929L49.7949 39.6196L50.0166 40.3081L53.6221 51.4731C54.1163 53.004 54.1128 54.6526 53.6113 56.1812C53.1098 57.7096 52.1361 59.0395 50.8311 59.98C49.526 60.9205 47.9563 61.4234 46.3477 61.4155C44.739 61.4077 43.1738 60.8892 41.8779 59.936L32.5928 53.1118L32 52.6763L31.4082 53.1128L22.125 59.9448L22.1162 59.9517C20.8303 60.9213 19.2648 61.4495 17.6543 61.4575C16.044 61.4655 14.4741 60.9531 13.1787 59.9966L13.1689 59.9897L13.1602 59.9829L12.917 59.8042C11.7208 58.8888 10.827 57.6316 10.3564 56.1958C9.88612 54.7604 9.86201 53.2184 10.2842 51.7729L10.375 51.4849L10.3789 51.4731L13.9844 40.3081L14.2061 39.6196L13.623 39.1938L4.13965 32.2603C2.84566 31.3141 1.88415 29.983 1.3916 28.4575C0.899097 26.9319 0.900938 25.2894 1.39746 23.7651C1.89406 22.2408 2.8596 20.912 4.15625 19.9692C5.37206 19.0853 6.82088 18.5831 8.31836 18.522L8.61816 18.5151H20.9961L21.2197 17.8208L24.7578 6.7915C25.2496 5.25716 26.216 3.91792 27.5176 2.96826C28.8192 2.0186 30.3897 1.50732 32.001 1.50732ZM32.0029 4.84619C31.89 4.8462 31.777 4.85001 31.665 4.85889C31.6357 4.86121 31.6064 4.86377 31.5771 4.8667C30.8253 4.94227 30.1026 5.21719 29.4873 5.66553C28.7566 6.19801 28.2135 6.94844 27.9365 7.80908V7.81006L23.8027 20.6919C23.6948 21.0278 23.4834 21.3209 23.1982 21.5288C22.9508 21.7092 22.6602 21.8167 22.3574 21.8423L22.3564 21.8433C22.3101 21.8472 22.2635 21.8491 22.2168 21.8491H8.61621C8.50366 21.8492 8.39091 21.8529 8.2793 21.8618C8.24895 21.8642 8.21871 21.8675 8.18848 21.8706C7.44022 21.9464 6.72211 22.2188 6.10938 22.6636C5.3806 23.1926 4.83718 23.9384 4.55762 24.7944C4.27806 25.6505 4.27668 26.573 4.55273 27.4302C4.8288 28.2873 5.36815 29.0359 6.09473 29.5679H6.0957L17.1465 37.645L17.1475 37.646C17.431 37.8529 17.6417 38.1442 17.75 38.478C17.8583 38.8118 17.859 39.1715 17.751 39.5054L13.5381 52.4897C13.2558 53.3523 13.2553 54.2823 13.5371 55.145C13.8189 56.0077 14.3685 56.7581 15.1055 57.2876C15.8425 57.8171 16.7292 58.0985 17.6367 58.0903C17.6934 58.0898 17.7502 58.0882 17.8066 58.0854C17.9029 58.0807 17.9994 58.0732 18.0947 58.062C18.8363 57.9752 19.5442 57.6935 20.1475 57.2446L20.1484 57.2456L31.0137 49.2466C31.2635 49.0631 31.559 48.9531 31.8662 48.9282C31.9107 48.9246 31.956 48.9233 32.001 48.9233C32.3113 48.9234 32.6145 49.0101 32.877 49.1724L32.9873 49.2466L43.8525 57.2456L43.8535 57.2466C44.5812 57.7819 45.4599 58.073 46.3633 58.0776C47.2668 58.0823 48.1487 57.8 48.8818 57.272C49.615 56.7438 50.1625 55.9967 50.4443 55.1382C50.7262 54.2797 50.7286 53.3536 50.4512 52.4937L50.4502 52.4927L46.251 39.5063L46.2148 39.3794C46.1439 39.0822 46.1562 38.7702 46.251 38.478C46.3593 38.1442 46.57 37.8529 46.8535 37.646L46.8545 37.645L57.6416 29.7603H57.6475L57.9111 29.5679C58.6377 29.0359 59.178 28.2874 59.4541 27.4302C59.7301 26.573 59.7278 25.6504 59.4482 24.7944C59.1687 23.9385 58.6261 23.1926 57.8975 22.6636C57.1687 22.1345 56.2912 21.8498 55.3906 21.8491H41.79C41.4373 21.8491 41.0937 21.7365 40.8086 21.5288C40.5235 21.3209 40.3111 21.0278 40.2031 20.6919L36.0703 7.81006L36.0693 7.80908L35.9531 7.4917C35.6536 6.76416 35.158 6.13144 34.5186 5.66553C33.7878 5.1331 32.9071 4.84619 32.0029 4.84619ZM32.0029 6.84619C32.4837 6.84619 32.9522 6.99861 33.3408 7.28174C33.6808 7.52948 33.9452 7.86561 34.1045 8.25244L34.166 8.42139L38.2988 21.3032V21.3042C38.5364 22.0432 39.0026 22.6877 39.6299 23.145C40.2572 23.6023 41.0137 23.8491 41.79 23.8491H55.3887L55.5684 23.856C55.9837 23.8891 56.3836 24.0356 56.7227 24.2817C57.1102 24.5631 57.3982 24.9603 57.5469 25.4155C57.6955 25.8708 57.6966 26.3611 57.5498 26.8169C57.4109 27.2481 57.1453 27.6256 56.79 27.9048L56.7246 27.9536L45.6748 36.0298C45.0508 36.485 44.587 37.1261 44.3486 37.8608C44.1401 38.5038 44.1133 39.1903 44.2695 39.8442L44.3477 40.1226L48.5479 53.1089C48.6951 53.5659 48.6937 54.0579 48.5439 54.5142C48.394 54.9708 48.1028 55.368 47.7129 55.6489C47.3231 55.9297 46.8544 56.08 46.374 56.0776C45.8936 56.0752 45.4261 55.92 45.0391 55.6353L34.1719 47.6353L34.1709 47.6343C33.5418 47.1723 32.7815 46.9234 32.001 46.9233C31.9021 46.9233 31.8031 46.9271 31.7051 46.9351C31.0294 46.9897 30.3796 47.2307 29.8301 47.6343L29.8291 47.6353L18.9619 55.6353L18.957 55.6392C18.6357 55.879 18.2578 56.0284 17.8623 56.0747C17.8116 56.0806 17.7602 56.0849 17.709 56.0874C17.6791 56.0889 17.6491 56.0901 17.6191 56.0903C17.1365 56.0947 16.6645 55.9452 16.2725 55.6636C15.8805 55.3819 15.5884 54.9827 15.4385 54.5239C15.2886 54.0652 15.2884 53.5705 15.4385 53.1118L15.4395 53.1089L19.6533 40.1226C19.8914 39.3876 19.8907 38.5957 19.6523 37.8608C19.414 37.1261 18.9492 36.485 18.3252 36.0298L7.27637 27.9536C6.89007 27.6707 6.60284 27.2727 6.45605 26.8169C6.30935 26.3611 6.31039 25.8707 6.45898 25.4155C6.60767 24.9602 6.89659 24.5631 7.28418 24.2817C7.61001 24.0453 7.99176 23.9002 8.38965 23.8599C8.40585 23.8582 8.42224 23.8573 8.43848 23.856L8.61719 23.8491H22.2168C22.32 23.8491 22.4232 23.8441 22.5254 23.8354L22.5244 23.8345C23.1918 23.7783 23.8321 23.5414 24.376 23.145C25.0032 22.6878 25.4695 22.0432 25.707 21.3042V21.3032L29.8408 8.42139C29.9882 7.96387 30.2766 7.56484 30.665 7.28174C30.9918 7.04362 31.3762 6.89722 31.7764 6.85693C31.7919 6.85538 31.8076 6.85427 31.8232 6.85303C31.8827 6.84831 31.9429 6.8462 32.0029 6.84619Z" fill="#6E0E2E" stroke="#6E0E2E" stroke-width="2"/>
</g>
<defs>
<clipPath id="clip0_118_1324">
<rect width="64" height="64" fill="white"/>
</clipPath>
</defs>
</svg>
