<svg width="24" height="24" viewBox="0 0 24 24" fill="none" xmlns="http://www.w3.org/2000/svg">
<g clip-path="url(#clip0_673_6260)">
<path d="M6.66691 8.00003C6.56364 8.00006 6.46179 7.97586 6.36958 7.92936C3.44958 6.46936 1.38024 2.91203 0.702244 0.877365C0.646283 0.709659 0.659235 0.526593 0.738251 0.368437C0.817266 0.210281 0.955872 0.089992 1.12358 0.0340313C1.29128 -0.0219294 1.47435 -0.00897744 1.63251 0.0700379C1.79066 0.149053 1.91095 0.287659 1.96691 0.455365C2.55158 2.21003 4.42558 5.4667 6.96624 6.7367C7.10087 6.80379 7.20885 6.91445 7.27264 7.05068C7.33642 7.18691 7.35226 7.3407 7.31758 7.48707C7.2829 7.63344 7.19974 7.76378 7.08161 7.85691C6.96348 7.95003 6.81733 8.00047 6.66691 8.00003Z" fill="#77B255"/>
<path d="M12.6667 24.0001C15.244 24.0001 17.3333 21.9107 17.3333 19.3334C17.3333 16.7561 15.244 14.6667 12.6667 14.6667C10.0893 14.6667 8 16.7561 8 19.3334C8 21.9107 10.0893 24.0001 12.6667 24.0001Z" fill="#553788"/>
<path d="M6.66667 14.6666C9.24399 14.6666 11.3333 12.5772 11.3333 9.99992C11.3333 7.42259 9.24399 5.33325 6.66667 5.33325C4.08934 5.33325 2 7.42259 2 9.99992C2 12.5772 4.08934 14.6666 6.66667 14.6666Z" fill="#9266CC"/>
<path d="M12.6667 12.6666C15.244 12.6666 17.3333 10.5772 17.3333 7.99992C17.3333 5.42259 15.244 3.33325 12.6667 3.33325C10.0893 3.33325 8 5.42259 8 7.99992C8 10.5772 10.0893 12.6666 12.6667 12.6666Z" fill="#AA8DD8"/>
<path d="M18.0007 16.6666C20.578 16.6666 22.6673 14.5772 22.6673 11.9999C22.6673 9.42259 20.578 7.33325 18.0007 7.33325C15.4233 7.33325 13.334 9.42259 13.334 11.9999C13.334 14.5772 15.4233 16.6666 18.0007 16.6666Z" fill="#744EAA"/>
<path d="M6.00065 22.0001C8.57798 22.0001 10.6673 19.9107 10.6673 17.3334C10.6673 14.7561 8.57798 12.6667 6.00065 12.6667C3.42332 12.6667 1.33398 14.7561 1.33398 17.3334C1.33398 19.9107 3.42332 22.0001 6.00065 22.0001Z" fill="#744EAA"/>
<path d="M12.0007 18.6666C14.578 18.6666 16.6673 16.5772 16.6673 13.9999C16.6673 11.4226 14.578 9.33325 12.0007 9.33325C9.42332 9.33325 7.33398 11.4226 7.33398 13.9999C7.33398 16.5772 9.42332 18.6666 12.0007 18.6666Z" fill="#9266CC"/>
<path d="M19.3327 24.0001C21.91 24.0001 23.9993 21.9107 23.9993 19.3334C23.9993 16.7561 21.91 14.6667 19.3327 14.6667C16.7554 14.6667 14.666 16.7561 14.666 19.3334C14.666 21.9107 16.7554 24.0001 19.3327 24.0001Z" fill="#9266CC"/>
</g>
<defs>
<clipPath id="clip0_673_6260">
<rect width="24" height="24" fill="white"/>
</clipPath>
</defs>
</svg>
