<svg width="64" height="64" viewBox="0 0 64 64" fill="none" xmlns="http://www.w3.org/2000/svg">
<g clip-path="url(#clip0_118_1328)">
<path fill-rule="evenodd" clip-rule="evenodd" d="M60.5136 19.1241C61.9865 20.1931 63.0763 21.7078 63.6218 23.444C64.2061 25.1674 64.22 27.0331 63.6615 28.7649C63.1029 30.4968 62.0015 32.0028 60.5204 33.06L51.0271 39.9934L54.6324 51.1587C55.1917 52.8909 55.1873 54.7558 54.6199 56.4853C54.0524 58.2148 52.9512 59.7199 51.4745 60.7841C49.9978 61.8483 48.2216 62.4168 46.4014 62.4079C44.5812 62.3991 42.8107 61.8132 41.3444 60.7347L32.0591 53.9107L22.7764 60.7427C21.3184 61.8421 19.5442 62.441 17.7182 62.4501C15.8922 62.4592 14.112 61.8781 12.6431 60.7934C11.1486 59.7424 10.0337 58.2365 9.46473 56.5003C8.89576 54.764 8.90314 52.8904 9.48577 51.1587L13.0911 39.9934L3.60844 33.06C2.14407 31.9894 1.05549 30.4834 0.498192 28.7571C-0.0591068 27.0308 -0.0566197 25.1725 0.505299 23.4477C1.06722 21.7229 2.15982 20.2198 3.62705 19.1531C5.09429 18.0864 6.86109 17.5106 8.67511 17.508H20.3258L23.8644 6.4787C24.4209 4.74259 25.5144 3.22807 26.9872 2.15354C28.46 1.07901 30.236 0.5 32.0591 0.5C33.8822 0.5 35.6582 1.07901 37.131 2.15354C38.6038 3.22807 39.6973 4.74259 40.2538 6.4787L43.7924 17.508H55.4431C57.2629 17.4885 59.0408 18.0551 60.5136 19.1241ZM46.263 36.838L57.3137 28.7607H57.319C57.8755 28.3532 58.289 27.7803 58.5005 27.1237C58.7119 26.4672 58.7105 25.7606 58.4964 25.105C58.2822 24.4493 57.8664 23.878 57.3082 23.4728C56.75 23.0676 56.0781 22.8492 55.3883 22.8487H41.7883C41.2238 22.8487 40.6738 22.6695 40.2175 22.3369C39.7613 22.0043 39.4224 21.5355 39.2497 20.998L35.1163 8.11536C34.9042 7.45612 34.4883 6.8812 33.9286 6.47336C33.3689 6.06551 32.6942 5.84577 32.0017 5.84577C31.9151 5.84577 31.8288 5.84921 31.743 5.85601C31.7204 5.85781 31.6978 5.85983 31.6752 5.86209C31.7466 5.85633 31.999 47.9232 31.999 47.9232C32.5669 47.9232 33.12 48.1045 33.5777 48.4407L44.4443 56.4407C45.0018 56.8509 45.6749 57.0738 46.367 57.0774C47.0591 57.0809 47.7345 56.8649 48.2961 56.4604C48.8577 56.0558 49.2766 55.4837 49.4925 54.8261C49.7084 54.1685 49.7102 53.4594 49.4977 52.8007L45.2977 39.814C45.1245 39.2795 45.1247 38.704 45.298 38.1696C45.4714 37.6352 45.8091 37.1691 46.263 36.838Z" fill="#6E0E2E"/>
</g>
<defs>
<clipPath id="clip0_118_1328">
<rect width="64" height="64" fill="white"/>
</clipPath>
</defs>
</svg>
