<svg width="64" height="64" viewBox="0 0 64 64" fill="none" xmlns="http://www.w3.org/2000/svg">
<path fill-rule="evenodd" clip-rule="evenodd" d="M31.9987 9.43606C19.5369 9.43606 9.43459 19.5383 9.43459 32.0002C9.43459 44.462 19.5369 54.5642 31.9987 54.5642C44.4606 54.5642 54.5627 44.462 54.5627 32.0002C54.5627 19.5383 44.4606 9.43606 31.9987 9.43606ZM5.33203 32.0002C5.33203 17.2726 17.2711 5.3335 31.9987 5.3335C46.7262 5.3335 58.6654 17.2726 58.6654 32.0002C58.6654 46.7276 46.7262 58.6668 31.9987 58.6668C17.2711 58.6668 5.33203 46.7276 5.33203 32.0002Z" fill="#475069"/>
<path fill-rule="evenodd" clip-rule="evenodd" d="M32.0004 43.624C33.1332 43.624 34.0516 42.7056 34.0516 41.5725V30.6325C34.0516 29.4995 33.1332 28.5811 32.0004 28.5811C30.8676 28.5811 29.9492 29.4995 29.9492 30.6325V41.5725C29.9492 42.7056 30.8676 43.624 32.0004 43.624Z" fill="#475069"/>
<path d="M34.7355 22.4274C34.7355 20.9169 33.511 19.6924 32.0006 19.6924C30.4902 19.6924 29.2656 20.9169 29.2656 22.4274C29.2656 23.9379 30.4902 25.1625 32.0006 25.1625C33.511 25.1625 34.7355 23.9379 34.7355 22.4274Z" fill="#475069"/>
</svg>
