<svg width="20" height="21" viewBox="0 0 20 21" fill="none" xmlns="http://www.w3.org/2000/svg">
<g clip-path="url(#clip0_937_2148)">
<path d="M18.9741 8.00094C18.5834 7.48383 18.1006 7.06916 17.5582 6.78503C17.0158 6.50089 16.4266 6.35392 15.8305 6.35407H12.5069L12.7869 4.40097C12.8859 3.71319 12.7664 3.00743 12.4502 2.41242C12.1339 1.8174 11.6419 1.37278 11.064 1.15966C10.4861 0.946528 9.86074 0.979092 9.30199 1.25141C8.74323 1.52373 8.28833 2.01765 8.02024 2.6431L6.42552 6.35407H4.16592C3.06146 6.35559 2.00261 6.86017 1.22163 7.75714C0.440656 8.6541 0.00132298 9.87021 0 11.1387L0 15.9234C0.00132298 17.1919 0.440656 18.408 1.22163 19.3049C2.00261 20.2019 3.06146 20.7065 4.16592 20.708H15.2473C16.25 20.7033 17.2179 20.2853 17.975 19.5302C18.732 18.775 19.2279 17.7328 19.3724 16.5932L19.9598 11.8086C20.0425 11.1298 19.9973 10.4386 19.8272 9.78172C19.6572 9.1248 19.3663 8.51751 18.9741 8.00094ZM1.66637 15.9234V11.1387C1.66637 10.3773 1.92971 9.64714 2.39847 9.10876C2.86723 8.57038 3.503 8.26793 4.16592 8.26793H5.83229V18.7941H4.16592C3.503 18.7941 2.86723 18.4917 2.39847 17.9533C1.92971 17.4149 1.66637 16.6847 1.66637 15.9234ZM18.3059 11.5397L17.7177 16.3243C17.6317 17.0076 17.335 17.6326 16.8817 18.0859C16.4283 18.5392 15.8483 18.7905 15.2473 18.7941H7.49866V8.01338C7.57718 7.93482 7.64218 7.84004 7.69029 7.73396L9.51414 3.48998C9.58253 3.34828 9.67923 3.22725 9.79628 3.13683C9.91332 3.04641 10.0474 2.98918 10.1874 2.96985C10.3275 2.95051 10.4695 2.96962 10.6019 3.02561C10.7343 3.08159 10.8532 3.17285 10.9489 3.29189C11.0307 3.40122 11.0906 3.52995 11.1241 3.66889C11.1577 3.80784 11.1641 3.95358 11.143 4.09571L10.7031 7.15789C10.6838 7.29471 10.6906 7.43472 10.723 7.56822C10.7555 7.70173 10.8128 7.82555 10.891 7.93112C10.9692 8.03668 11.0664 8.12147 11.176 8.17963C11.2855 8.23778 11.4048 8.26791 11.5254 8.26793H15.8305C16.1883 8.26787 16.5419 8.35603 16.8674 8.52644C17.193 8.69685 17.4829 8.94554 17.7176 9.2557C17.9523 9.56587 18.1262 9.93028 18.2277 10.3243C18.3292 10.7183 18.3559 11.1328 18.3059 11.5397Z" fill="#475069"/>
</g>
<defs>
<clipPath id="clip0_937_2148">
<rect width="20" height="20" fill="white" transform="translate(0 0.708008)"/>
</clipPath>
</defs>
</svg>
