<svg width="64" height="64" viewBox="0 0 64 64" fill="none" xmlns="http://www.w3.org/2000/svg">
<path d="M60.7172 23.3374C59.467 21.6826 57.9218 20.3557 56.1862 19.4465C54.4506 18.5372 52.5652 18.0669 50.6576 18.0674H40.0222L40.918 11.8175C41.235 9.61659 40.8526 7.35816 39.8405 5.45411C38.8285 3.55007 37.2542 2.12729 35.4049 1.44528C33.5555 0.763265 31.5544 0.867471 29.7664 1.73889C27.9784 2.6103 26.5226 4.19086 25.6648 6.19228L20.5617 18.0674H13.331C9.79667 18.0723 6.40835 19.6869 3.90922 22.5572C1.4101 25.4275 0.00423353 29.3191 0 33.3783L0 48.6891C0.00423353 52.7483 1.4101 56.6399 3.90922 59.5102C6.40835 62.3805 9.79667 63.9951 13.331 64H48.7913C52 63.9849 55.0973 62.6475 57.5199 60.231C59.9424 57.8144 61.5292 54.4794 61.9916 50.8327L63.8713 35.5218C64.136 33.3499 63.9914 31.138 63.4472 29.0359C62.903 26.9338 61.972 24.9904 60.7172 23.3374ZM5.33238 48.6891V33.3783C5.33238 30.9418 6.17509 28.6052 7.67511 26.8824C9.17513 25.1596 11.2096 24.1917 13.331 24.1917H18.6633V57.8757H13.331C11.2096 57.8757 9.17513 56.9078 7.67511 55.185C6.17509 53.4622 5.33238 51.1255 5.33238 48.6891Z" fill="#6E0E2E"/>
</svg>
