<svg width="19" height="18" viewBox="0 0 19 18" fill="none" xmlns="http://www.w3.org/2000/svg">
<g clip-path="url(#clip0_740_3319)">
<path d="M5.76985 18C4.41216 17.9991 3.1006 17.5072 2.07719 16.6151C1.05377 15.7229 0.387574 14.4907 0.201519 13.1459C0.0154635 11.801 0.32211 10.4342 1.06487 9.29769C1.80764 8.1612 2.93639 7.3317 4.24285 6.96227C5.19244 6.69033 6.19757 6.6779 7.1536 6.92626L13.0846 0.996764C13.3995 0.679727 13.7741 0.428365 14.1869 0.257261C14.5997 0.0861575 15.0423 -0.00128235 15.4891 1.42104e-05C16.1923 0.000610035 16.8665 0.280208 17.3637 0.777425C17.8609 1.27464 18.1405 1.94884 18.1411 2.65201C18.1423 3.09886 18.0548 3.5415 17.8839 3.95435C17.7129 4.36719 17.4618 4.74206 17.1451 5.05726L16.6411 5.56126C16.3591 5.84134 15.9781 5.99899 15.5806 6.00001H14.3911V6.75001C14.3911 7.14784 14.2331 7.52937 13.9518 7.81067C13.6705 8.09198 13.2889 8.25002 12.8911 8.25002H12.1411V9.43952C12.1416 9.63657 12.1031 9.83177 12.0276 10.0138C11.9522 10.1958 11.8414 10.3611 11.7016 10.5L11.2141 10.9875C11.4638 11.9431 11.4516 12.9483 11.1788 13.8975C10.8719 14.979 10.2491 15.9443 9.3902 16.6697C8.53132 17.3951 7.47546 17.8476 6.35785 17.9693C6.1625 17.9896 5.96624 17.9998 5.76985 18ZM5.76985 8.25002C5.00196 8.24927 4.24911 8.46288 3.59604 8.8668C2.94297 9.27073 2.41561 9.84892 2.07332 10.5363C1.73104 11.2237 1.58742 11.993 1.65863 12.7575C1.72984 13.5221 2.01305 14.2516 2.47639 14.864C2.93972 15.4763 3.56478 15.9472 4.28121 16.2236C4.99764 16.5 5.77699 16.5709 6.53154 16.4283C7.28608 16.2858 7.98586 15.9355 8.5521 15.4168C9.11834 14.8981 9.52857 14.2317 9.7366 13.4925C9.97059 12.6799 9.94437 11.8145 9.6616 11.0175C9.61545 10.8844 9.60772 10.741 9.63928 10.6037C9.67085 10.4665 9.74045 10.3408 9.8401 10.2413L10.6411 9.43952V8.25002C10.6411 7.85219 10.7991 7.47066 11.0804 7.18935C11.3617 6.90805 11.7433 6.75001 12.1411 6.75001H12.8911V6.00001C12.8911 5.60219 13.0491 5.22066 13.3304 4.93935C13.6117 4.65805 13.9933 4.50001 14.3911 4.50001H15.5806L16.0846 3.99601C16.2616 3.81988 16.4019 3.61041 16.4974 3.37972C16.5929 3.14903 16.6418 2.9017 16.6411 2.65201C16.6409 2.34668 16.5196 2.05389 16.3037 1.83791C16.0879 1.62193 15.7952 1.50041 15.4898 1.50001C15.24 1.4994 14.9925 1.54833 14.7617 1.64398C14.5308 1.73963 14.3213 1.8801 14.1451 2.05726L7.89685 8.30476C7.79713 8.40443 7.67134 8.47396 7.53391 8.5054C7.39648 8.53684 7.25297 8.52891 7.11985 8.48252C6.6849 8.32938 6.22722 8.25077 5.7661 8.25002H5.76985ZM3.8911 13.5C3.8911 13.6484 3.93508 13.7934 4.01749 13.9167C4.09991 14.04 4.21704 14.1362 4.35408 14.1929C4.49113 14.2497 4.64193 14.2645 4.78741 14.2356C4.9329 14.2067 5.06654 14.1352 5.17143 14.0303C5.27632 13.9255 5.34775 13.7918 5.37669 13.6463C5.40562 13.5008 5.39077 13.35 5.33401 13.213C5.27724 13.076 5.18111 12.9588 5.05777 12.8764C4.93444 12.794 4.78943 12.75 4.6411 12.75C4.44218 12.75 4.25142 12.829 4.11077 12.9697C3.97011 13.1103 3.8911 13.3011 3.8911 13.5Z" fill="#475069"/>
</g>
<defs>
<clipPath id="clip0_740_3319">
<rect width="18" height="18" fill="white" transform="translate(0.140625)"/>
</clipPath>
</defs>
</svg>
