<svg width="19" height="18" viewBox="0 0 19 18" fill="none" xmlns="http://www.w3.org/2000/svg">
<path d="M3.15947 3.0537L2.62924 2.52327L2.62924 2.52327L3.15947 3.0537ZM6.87178 3.0537L7.40201 2.52327L6.87178 3.0537ZM6.87178 6.76456L6.34155 6.23413L6.34155 6.23413L6.87178 6.76456ZM11.3796 11.2706L10.8494 10.7402L10.8494 10.7402L11.3796 11.2706ZM15.0919 14.9815L14.5617 14.451L14.5617 14.451L15.0919 14.9815ZM5.81112 12.3309L5.28089 12.8613L5.81112 12.3309ZM2.40452 5.17962L3.15451 5.17536C3.15437 5.1511 3.15306 5.12686 3.15057 5.10272L2.40452 5.17962ZM12.9652 15.7361L13.042 14.9901C13.0179 14.9876 12.9936 14.9863 12.9694 14.9861L12.9652 15.7361ZM5.43232 7.50003L5.31393 6.75943C5.07401 6.79778 4.86753 6.94998 4.75991 7.16781C4.65229 7.38564 4.65686 7.64211 4.77216 7.85597L5.43232 7.50003ZM10.6438 12.7095L10.2881 13.3698C10.502 13.485 10.7584 13.4895 10.9761 13.3819C11.1939 13.2743 11.346 13.0678 11.3844 12.828L10.6438 12.7095ZM3.15947 3.0537L3.6897 3.58413C4.42195 2.85216 5.6093 2.85216 6.34155 3.58413L6.87178 3.0537L7.40201 2.52327C6.08401 1.20579 3.94724 1.20579 2.62924 2.52327L3.15947 3.0537ZM6.87178 3.0537L6.34155 3.58413C7.07365 4.31594 7.07365 5.50232 6.34155 6.23413L6.87178 6.76456L7.40201 7.295C8.72016 5.97735 8.72016 3.84091 7.40201 2.52327L6.87178 3.0537ZM11.3796 11.2706L11.9098 11.801C12.6421 11.0691 13.8294 11.0691 14.5617 11.801L15.0919 11.2706L15.6221 10.7402C14.3041 9.42269 12.1674 9.42269 10.8494 10.7402L11.3796 11.2706ZM15.0919 11.2706L14.5617 11.801C15.2938 12.5329 15.2938 13.7192 14.5617 14.451L15.0919 14.9815L15.6221 15.5119C16.9403 14.1943 16.9403 12.0578 15.6221 10.7402L15.0919 11.2706ZM5.81112 12.3309L6.34135 11.8004C4.24842 9.70832 3.16605 7.20738 3.15451 5.17536L2.40452 5.17962L1.65454 5.18387C1.6688 7.69721 2.97629 10.5576 5.28089 12.8613L5.81112 12.3309ZM2.40452 5.17962L3.15057 5.10272C3.09455 4.55918 3.27461 3.99906 3.6897 3.58413L3.15947 3.0537L2.62924 2.52327C1.88137 3.27085 1.55813 4.28294 1.65848 5.25651L2.40452 5.17962ZM15.0919 14.9815L14.5617 14.451C14.1466 14.866 13.586 15.0461 13.042 14.9901L12.9652 15.7361L12.8883 16.4822C13.862 16.5824 14.8743 16.2595 15.6221 15.5119L15.0919 14.9815ZM12.9652 15.7361L12.9694 14.9861C10.9363 14.9746 8.43425 13.8925 6.34135 11.8004L5.81112 12.3309L5.28089 12.8613C7.58551 15.165 10.4469 16.4719 12.9609 16.4861L12.9652 15.7361ZM6.87178 6.76456L6.34155 6.23413C6.05075 6.52482 5.69019 6.69928 5.31393 6.75943L5.43232 7.50003L5.55071 8.24063C6.22843 8.13229 6.88036 7.81644 7.40201 7.295L6.87178 6.76456ZM7.66728 10.4754L8.1975 9.94499C7.31903 9.06686 6.61388 8.11113 6.09248 7.14409L5.43232 7.50003L4.77216 7.85597C5.36487 8.95526 6.15864 10.0278 7.13705 11.0059L7.66728 10.4754ZM10.6438 12.7095L11.3844 12.828C11.4446 12.4521 11.619 12.0917 11.9098 11.801L11.3796 11.2706L10.8494 10.7402C10.3277 11.2616 10.0117 11.9134 9.90325 12.591L10.6438 12.7095ZM10.6438 12.7095L10.9996 12.0492C10.0321 11.528 9.07597 10.8231 8.1975 9.94499L7.66728 10.4754L7.13705 11.0059C8.11546 11.9839 9.18843 12.7773 10.2881 13.3698L10.6438 12.7095Z" fill="#292556"/>
</svg>
