<svg width="19" height="19" viewBox="0 0 19 19" fill="none" xmlns="http://www.w3.org/2000/svg">
<g clip-path="url(#clip0_740_903)">
<path d="M14.3906 0.5H3.89062C2.89643 0.501191 1.94329 0.896661 1.24029 1.59966C0.537286 2.30267 0.141816 3.2558 0.140625 4.25L0.140625 14.75C0.141816 15.7442 0.537286 16.6973 1.24029 17.4003C1.94329 18.1033 2.89643 18.4988 3.89062 18.5H14.3906C15.3848 18.4988 16.338 18.1033 17.041 17.4003C17.744 16.6973 18.1394 15.7442 18.1406 14.75V4.25C18.1394 3.2558 17.744 2.30267 17.041 1.59966C16.338 0.896661 15.3848 0.501191 14.3906 0.5V0.5ZM5.39062 17V16.25C5.39063 15.2554 5.78571 14.3016 6.48897 13.5983C7.19224 12.8951 8.14606 12.5 9.14062 12.5C10.1352 12.5 11.089 12.8951 11.7923 13.5983C12.4955 14.3016 12.8906 15.2554 12.8906 16.25V17H5.39062ZM16.6406 14.75C16.6406 15.3467 16.4036 15.919 15.9816 16.341C15.5597 16.7629 14.9874 17 14.3906 17V16.25C14.3906 14.8576 13.8375 13.5223 12.8529 12.5377C11.8684 11.5531 10.533 11 9.14062 11C7.74824 11 6.41288 11.5531 5.42831 12.5377C4.44375 13.5223 3.89063 14.8576 3.89062 16.25V17C3.29389 17 2.72159 16.7629 2.29963 16.341C1.87768 15.919 1.64063 15.3467 1.64062 14.75V4.25C1.64063 3.65326 1.87768 3.08097 2.29963 2.65901C2.72159 2.23705 3.29389 2 3.89062 2H14.3906C14.9874 2 15.5597 2.23705 15.9816 2.65901C16.4036 3.08097 16.6406 3.65326 16.6406 4.25V14.75Z" fill="#475069"/>
<path d="M9.14063 3.5C8.54728 3.5 7.96726 3.67595 7.47392 4.00559C6.98057 4.33524 6.59605 4.80377 6.36899 5.35195C6.14192 5.90013 6.08251 6.50333 6.19827 7.08527C6.31403 7.66721 6.59975 8.20176 7.01931 8.62132C7.43886 9.04088 7.97341 9.3266 8.55536 9.44236C9.1373 9.55811 9.7405 9.4987 10.2887 9.27164C10.8369 9.04458 11.3054 8.66006 11.635 8.16671C11.9647 7.67336 12.1406 7.09334 12.1406 6.5C12.1406 5.70435 11.8246 4.94129 11.2619 4.37868C10.6993 3.81607 9.93628 3.5 9.14063 3.5ZM9.14063 8C8.84395 8 8.55394 7.91203 8.30727 7.7472C8.0606 7.58238 7.86834 7.34811 7.75481 7.07403C7.64128 6.79994 7.61157 6.49834 7.66945 6.20736C7.72733 5.91639 7.87019 5.64912 8.07997 5.43934C8.28975 5.22956 8.55702 5.0867 8.84799 5.02882C9.13896 4.97094 9.44056 5.00065 9.71465 5.11418C9.98874 5.22771 10.223 5.41997 10.3878 5.66664C10.5527 5.91332 10.6406 6.20333 10.6406 6.5C10.6406 6.89783 10.4826 7.27936 10.2013 7.56066C9.91998 7.84196 9.53845 8 9.14063 8Z" fill="#475069"/>
</g>
<defs>
<clipPath id="clip0_740_903">
<rect width="18" height="18" fill="white" transform="translate(0.140625 0.5)"/>
</clipPath>
</defs>
</svg>
