<svg width="24" height="24" viewBox="0 0 24 24" fill="none" xmlns="http://www.w3.org/2000/svg">
<g clip-path="url(#clip0_1014_5478)">
<path d="M3.4149 3.33301H7.4149C8.1509 3.33301 8.66623 3.26367 8.66623 3.99967V2.66634C8.66623 1.93034 8.1509 1.33301 7.4149 1.33301H2.08156C0.748229 1.33301 -0.307104 2.74967 0.0815627 4.66634C0.0815627 4.66634 1.27556 10.9163 1.35956 11.305C1.58156 12.333 2.77556 13.333 4.05356 13.333H8.69223C9.4289 13.333 8.66623 12.069 8.66623 11.333V9.99967C8.66623 10.7357 8.1509 11.333 7.4149 11.333H4.74823C4.01223 11.333 3.52623 10.6383 3.4149 9.99967C3.30356 9.36101 2.3589 5.11101 2.3589 5.11101C2.1369 3.83301 2.67823 3.33301 3.4149 3.33301ZM20.6229 3.33301H16.6229C15.8869 3.33301 14.6662 3.26367 14.6662 3.99967V2.66634C14.6662 1.93034 15.8869 1.33301 16.6229 1.33301H21.9562C23.2896 1.33301 24.3456 2.74967 23.9562 4.66634C23.9562 4.66634 22.8676 10.9457 22.7756 11.333C22.5396 12.333 21.4142 13.333 20.1089 13.333H15.3449C14.6089 13.333 14.6662 12.069 14.6662 11.333V9.99967C14.6662 10.7357 15.8869 11.333 16.6229 11.333H19.2896C20.0256 11.333 20.5122 10.6383 20.6229 9.99967C20.7336 9.36101 21.6789 5.11101 21.6789 5.11101C21.9002 3.83301 21.3596 3.33301 20.6229 3.33301ZM13.8876 14.6663C13.8876 10.0277 12.0816 14.6663 12.0816 14.6663C12.0816 14.6663 10.0816 10.0277 10.0816 14.6663C10.0816 19.305 7.88756 21.333 7.88756 21.333H16.0822C16.0816 21.333 13.8876 19.305 13.8876 14.6663Z" fill="#FFAC33"/>
<path d="M19.4167 4.38465C19.4167 8.90132 14.9033 16.5127 12.0833 16.5127C9.26267 16.5127 4.75 8.90132 4.75 4.38465C4.75 0.921321 5.41667 0.171988 6.75 0.171988C7.666 0.171988 10.7667 0.153988 12.0833 0.153988L16.75 0.153321C18.6947 0.152654 19.4167 0.609321 19.4167 4.38465Z" fill="#FFCC4D"/>
<path d="M18 22C18 22.736 18.1513 23.3333 17.4153 23.3333H6.74867C6.012 23.3333 6 22.736 6 22V21.3333C6 20.5973 6.776 20 7.47067 20H16.7487C17.4433 20 18 20.5973 18 21.3333V22Z" fill="#C1694F"/>
<path d="M19.3346 23.0833C19.3346 23.59 19.4446 24 18.5 24H5.66664C4.8053 24 4.66797 23.59 4.66797 23.0833V22.9167C4.66797 22.41 5.15997 22 5.66664 22H18.5C19.006 22 19.3346 22.41 19.3346 22.9167V23.0833Z" fill="#C1694F"/>
</g>
<defs>
<clipPath id="clip0_1014_5478">
<rect width="24" height="24" fill="white"/>
</clipPath>
</defs>
</svg>
