<svg width="25" height="24" viewBox="0 0 25 24" fill="none" xmlns="http://www.w3.org/2000/svg">
<path d="M24.7195 22.3152L18.7505 16.3462C20.3771 14.3568 21.1769 11.8183 20.9843 9.2558C20.7918 6.69327 19.6217 4.30277 17.7161 2.57876C15.8104 0.854753 13.3151 -0.0708648 10.7461 -0.00663303C8.17717 0.0575988 5.73118 1.10677 3.91409 2.92386C2.097 4.74095 1.04783 7.18693 0.983601 9.75588C0.91937 12.3248 1.84499 14.8202 3.569 16.7258C5.29301 18.6315 7.68351 19.8016 10.246 19.9941C12.8086 20.1866 15.3471 19.3869 17.3365 17.7602L23.3055 23.7292C23.4941 23.9114 23.7467 24.0122 24.0089 24.0099C24.2711 24.0076 24.5219 23.9025 24.7073 23.7171C24.8927 23.5317 24.9979 23.2808 25.0002 23.0186C25.0024 22.7564 24.9016 22.5038 24.7195 22.3152ZM11.0125 18.0222C9.43023 18.0222 7.88351 17.5531 6.56791 16.674C5.25232 15.7949 4.22694 14.5455 3.62144 13.0837C3.01594 11.6219 2.85751 10.0134 3.16619 8.46152C3.47488 6.90967 4.2368 5.48421 5.35562 4.36539C6.47444 3.24657 7.89991 2.48464 9.45175 2.17596C11.0036 1.86728 12.6121 2.02571 14.0739 2.63121C15.5358 3.23671 16.7852 4.26209 17.6642 5.57768C18.5433 6.89327 19.0125 8.43999 19.0125 10.0222C19.0101 12.1432 18.1665 14.1767 16.6667 15.6765C15.1669 17.1762 13.1335 18.0199 11.0125 18.0222Z" fill="#A8AEBF"/>
</svg>
