<svg width="19" height="19" viewBox="0 0 19 19" fill="none" xmlns="http://www.w3.org/2000/svg">
<g clip-path="url(#clip0_740_3139)">
<path d="M17.5933 7.5645C16.9162 6.4558 16.0622 5.46544 15.0651 4.63275L17.1651 2.53275C17.3017 2.3913 17.3773 2.20185 17.3756 2.0052C17.3739 1.80855 17.295 1.62044 17.1559 1.48139C17.0169 1.34233 16.8288 1.26346 16.6321 1.26175C16.4355 1.26004 16.246 1.33563 16.1046 1.47225L13.8208 3.759C12.4051 2.91812 10.7866 2.47985 9.14005 2.4915C4.4968 2.4915 1.8508 5.67 0.686803 7.5645C0.327199 8.14613 0.136719 8.81643 0.136719 9.50025C0.136719 10.1841 0.327199 10.8544 0.686803 11.436C1.36387 12.5447 2.21792 13.5351 3.21505 14.3678L1.11505 16.4678C1.04342 16.5369 0.986284 16.6197 0.946977 16.7112C0.90767 16.8027 0.886981 16.9011 0.886115 17.0007C0.88525 17.1003 0.904226 17.199 0.941937 17.2912C0.979648 17.3834 1.03534 17.4671 1.10576 17.5375C1.17618 17.608 1.25992 17.6637 1.35209 17.7014C1.44426 17.7391 1.54302 17.7581 1.6426 17.7572C1.74219 17.7563 1.8406 17.7356 1.93211 17.6963C2.02361 17.657 2.10637 17.5999 2.17555 17.5283L4.46455 15.2393C5.8785 16.08 7.49506 16.519 9.14005 16.509C13.7833 16.509 16.4293 13.3305 17.5933 11.436C17.9529 10.8544 18.1434 10.1841 18.1434 9.50025C18.1434 8.81643 17.9529 8.14613 17.5933 7.5645V7.5645ZM1.9648 10.6508C1.75115 10.305 1.63799 9.90666 1.63799 9.50025C1.63799 9.09385 1.75115 8.69547 1.9648 8.34975C2.9653 6.72525 5.22655 3.9915 9.14005 3.9915C10.3853 3.98453 11.613 4.28463 12.7146 4.86525L11.2048 6.375C10.4848 5.89695 9.62148 5.68275 8.76148 5.76874C7.90147 5.85472 7.0977 6.23561 6.48656 6.84675C5.87541 7.4579 5.49452 8.26167 5.40854 9.12168C5.32255 9.98168 5.53675 10.845 6.0148 11.565L4.2823 13.2975C3.36363 12.5548 2.57968 11.6595 1.9648 10.6508V10.6508ZM11.3901 9.50025C11.3901 10.097 11.153 10.6693 10.731 11.0912C10.3091 11.5132 9.73679 11.7503 9.14005 11.7503C8.80594 11.749 8.47645 11.672 8.1763 11.5253L11.1651 8.5365C11.3118 8.83665 11.3888 9.16614 11.3901 9.50025V9.50025ZM6.89005 9.50025C6.89005 8.90351 7.12711 8.33122 7.54906 7.90926C7.97102 7.4873 8.54332 7.25025 9.14005 7.25025C9.47417 7.25155 9.80366 7.32847 10.1038 7.47525L7.11505 10.464C6.96827 10.1639 6.89135 9.83437 6.89005 9.50025ZM16.3153 10.6508C15.3148 12.2753 13.0536 15.009 9.14005 15.009C7.89485 15.016 6.66713 14.7159 5.56555 14.1353L7.0753 12.6255C7.79535 13.1036 8.65862 13.3178 9.51863 13.2318C10.3786 13.1458 11.1824 12.7649 11.7936 12.1538C12.4047 11.5426 12.7856 10.7388 12.8716 9.87883C12.9576 9.01882 12.7434 8.15555 12.2653 7.4355L13.9978 5.703C14.9165 6.44571 15.7004 7.34104 16.3153 8.34975C16.529 8.69547 16.6421 9.09385 16.6421 9.50025C16.6421 9.90666 16.529 10.305 16.3153 10.6508V10.6508Z" fill="#475069"/>
</g>
<defs>
<clipPath id="clip0_740_3139">
<rect width="18" height="18" fill="white" transform="translate(0.140625 0.5)"/>
</clipPath>
</defs>
</svg>
