<svg width="19" height="18" viewBox="0 0 19 18" fill="none" xmlns="http://www.w3.org/2000/svg">
<g clip-path="url(#clip0_740_3323)">
<path d="M17.5933 7.06323C16.4301 5.16873 13.7841 1.99023 9.14005 1.99023C4.49605 1.99023 1.85005 5.16873 0.686803 7.06323C0.327199 7.64486 0.136719 8.31517 0.136719 8.99898C0.136719 9.6828 0.327199 10.3531 0.686803 10.9347C1.85005 12.8292 4.49605 16.0077 9.14005 16.0077C13.7841 16.0077 16.4301 12.8292 17.5933 10.9347C17.9529 10.3531 18.1434 9.6828 18.1434 8.99898C18.1434 8.31517 17.9529 7.64486 17.5933 7.06323ZM16.3146 10.1495C15.3156 11.774 13.0543 14.5077 9.14005 14.5077C5.2258 14.5077 2.96455 11.774 1.96555 10.1495C1.7519 9.80377 1.63874 9.40539 1.63874 8.99898C1.63874 8.59258 1.7519 8.1942 1.96555 7.84848C2.96455 6.22398 5.2258 3.49023 9.14005 3.49023C13.0543 3.49023 15.3156 6.22098 16.3146 7.84848C16.5282 8.1942 16.6414 8.59258 16.6414 8.99898C16.6414 9.40539 16.5282 9.80377 16.3146 10.1495Z" fill="#475069"/>
<path d="M9.14063 5.25C8.39895 5.25 7.67392 5.46993 7.05724 5.88199C6.44055 6.29404 5.95991 6.87971 5.67608 7.56494C5.39225 8.25016 5.31799 9.00416 5.46268 9.73159C5.60738 10.459 5.96453 11.1272 6.48898 11.6517C7.01342 12.1761 7.68161 12.5333 8.40904 12.6779C9.13647 12.8226 9.89047 12.7484 10.5757 12.4645C11.2609 12.1807 11.8466 11.7001 12.2586 11.0834C12.6707 10.4667 12.8906 9.74168 12.8906 9C12.8894 8.0058 12.494 7.05267 11.791 6.34967C11.088 5.64666 10.1348 5.25119 9.14063 5.25ZM9.14063 11.25C8.69562 11.25 8.2606 11.118 7.89059 10.8708C7.52058 10.6236 7.23219 10.2722 7.0619 9.86104C6.8916 9.4499 6.84704 8.9975 6.93386 8.56105C7.02068 8.12459 7.23497 7.72368 7.54964 7.40901C7.8643 7.09434 8.26522 6.88005 8.70167 6.79323C9.13813 6.70642 9.59053 6.75097 10.0017 6.92127C10.4128 7.09157 10.7642 7.37996 11.0114 7.74997C11.2587 8.11998 11.3906 8.55499 11.3906 9C11.3906 9.59674 11.1536 10.169 10.7316 10.591C10.3097 11.0129 9.73736 11.25 9.14063 11.25Z" fill="#475069"/>
</g>
<defs>
<clipPath id="clip0_740_3323">
<rect width="18" height="18" fill="white" transform="translate(0.140625)"/>
</clipPath>
</defs>
</svg>
