<svg width="32" height="32" viewBox="0 0 32 32" fill="none" xmlns="http://www.w3.org/2000/svg">
<path d="M16.8896 18.0045C16.8896 18.0045 25.8158 16.0374 25.8158 3.77781C25.8158 2.46137 24.7785 1.77781 22.7794 1.77781H8.11536C7.11536 1.77781 5.15625 1.54492 5.15625 3.6667C5.15625 15.8516 14.2229 18.0045 14.2229 18.0045V27.0027C14.2229 27.0027 10.1482 29.0827 9.33581 29.5654C8.46114 30.0649 9.04247 30.8649 9.3918 31.0027C9.97492 31.232 11.3945 31.9823 15.4185 31.9823C19.5438 31.9823 20.9314 31.1698 21.4318 31.0027C21.6247 30.9387 22.6291 30.1743 21.4416 29.4711C19.3278 28.2196 16.8896 27.0027 16.8896 27.0027V18.0045Z" fill="#8899A6"/>
<path d="M25.7783 3.05957C25.7783 4.50046 22.6255 5.66846 15.4468 5.66846C8.26812 5.66846 5.11523 4.50046 5.11523 3.05957C5.11523 1.61779 8.26812 0.450684 15.4468 0.450684C22.6255 0.450684 25.7783 1.61868 25.7783 3.05957Z" fill="#CCD6DD"/>
<path d="M6.62891 3.18489C8.44402 11.6293 11.4805 14.5556 14.3613 15.4827C15.348 15.8009 16.1622 15.8631 16.8511 15.592C19.9622 14.3698 23.5551 10.5547 24.1107 3.51823C24.2538 1.70756 6.62891 3.18489 6.62891 3.18489Z" fill="#CCD6DD"/>
<path d="M8 8.44434C8 11.5554 10.9627 15.9999 15.4071 15.9999C19.8516 15.9999 23.1111 11.1483 23.1111 8.48167C17.7778 8.48167 8 8.44434 8 8.44434Z" fill="#A0041E"/>
<path d="M15.5556 9.77775C19.7284 9.77775 23.1111 9.1808 23.1111 8.44442C23.1111 7.70804 19.7284 7.11108 15.5556 7.11108C11.3827 7.11108 8 7.70804 8 8.44442C8 9.1808 11.3827 9.77775 15.5556 9.77775Z" fill="#DD2E44"/>
<path d="M15.2607 5.9192C10.7896 5.9192 7.45361 4.93253 6.54872 4.50853C6.33525 4.40846 6.17028 4.22768 6.0901 4.00597C6.00992 3.78426 6.02109 3.53978 6.12117 3.32631C6.22124 3.11284 6.40202 2.94787 6.62373 2.86768C6.84544 2.7875 7.08992 2.79868 7.30339 2.89875C8.40472 3.41609 15.7078 5.4712 23.8332 2.78586C23.9441 2.74933 24.0611 2.73499 24.1775 2.74367C24.2939 2.75235 24.4075 2.78388 24.5118 2.83646C24.616 2.88904 24.7089 2.96164 24.7851 3.05011C24.8613 3.13858 24.9193 3.24119 24.9558 3.35209C24.9924 3.46298 25.0067 3.57998 24.998 3.69642C24.9893 3.81285 24.9578 3.92644 24.9052 4.03069C24.8527 4.13494 24.7801 4.22781 24.6916 4.304C24.6031 4.3802 24.5005 4.43822 24.3896 4.47475C21.1221 5.55386 17.9816 5.9192 15.2607 5.9192Z" fill="white"/>
</svg>
