<svg width="32" height="32" viewBox="0 0 32 32" fill="none" xmlns="http://www.w3.org/2000/svg">
<path d="M27.5564 19.5555C24.8897 29.3333 23.0951 32 16.0008 32C8.88974 32 7.11196 29.3333 4.44529 19.5555C2.6364 12.9244 6.22307 7.11108 16.0008 7.11108C25.7786 7.11108 29.3644 12.9244 27.5564 19.5555Z" fill="#F4900C"/>
<path d="M25.7776 9.77767C27.5554 13.3332 23.111 16.8888 15.9999 16.8888C8.88875 16.8888 4.44431 13.3332 6.22209 9.77767C7.53942 7.143 10.1092 4.44434 15.9999 4.44434C21.8905 4.44434 24.4612 7.143 25.7776 9.77767Z" fill="#BE1931"/>
<path d="M16.0007 15.111C21.8917 15.111 26.6673 12.7232 26.6673 9.77767C26.6673 6.83215 21.8917 4.44434 16.0007 4.44434C10.1096 4.44434 5.33398 6.83215 5.33398 9.77767C5.33398 12.7232 10.1096 15.111 16.0007 15.111Z" fill="#FFAC33"/>
<path d="M24.0002 8.88896C24.8891 9.77785 25.778 10.6667 25.778 11.5556C25.778 12.4445 24.8891 14.2223 24.0002 13.3334C24.0002 13.3334 26.6206 14.3592 25.778 16.889C24.8891 19.5556 22.2224 18.6667 22.2224 16.889C22.2224 15.1112 20.842 13.9183 20.4446 15.1112C19.5558 17.7778 17.778 17.7778 16.8891 16.889C16.0002 16.0001 16.0002 15.1112 16.0002 15.1112C16.0002 15.1112 13.3335 15.1112 14.2224 13.3334C15.1113 11.5556 14.2224 11.5556 14.2224 11.5556C14.2224 11.5556 14.2224 10.6667 15.1113 10.6667C16.0002 10.6667 21.3335 9.77785 22.2224 8.88896C23.1113 8.00007 24.0002 8.88896 24.0002 8.88896Z" fill="#FFE8B6"/>
<path d="M24.8891 8.247C24.8891 10.5652 20.9095 12.4443 16.0002 12.4443C11.0909 12.4443 7.11133 10.5652 7.11133 8.247C7.11133 5.92878 11.0909 4.44434 16.0002 4.44434C20.9095 4.44434 24.8891 5.92878 24.8891 8.247Z" fill="#662113"/>
<path d="M16.0007 12.4446C20.0433 12.4446 23.4487 11.169 24.5278 9.42589C24.3541 9.24493 24.1784 9.06596 24.0007 8.889C24.0007 8.889 22.2229 7.11122 21.334 8.00011C20.4451 8.889 16.0007 8.889 15.1118 8.889C14.2229 8.889 13.334 9.77789 13.334 9.77789C13.334 9.77789 14.7447 11.5654 14.5758 12.3859C15.0407 12.4214 15.5144 12.4446 16.0007 12.4446Z" fill="#F4900C"/>
<path d="M23.1109 7.55564C23.1109 9.27386 19.9269 10.6667 15.9998 10.6667C12.0727 10.6667 8.88867 9.27386 8.88867 7.55564C8.88867 5.83741 12.0727 2.66675 15.9998 2.66675C19.9269 2.66675 23.1109 5.83741 23.1109 7.55564Z" fill="#FFCC4D"/>
<path d="M16.0004 3.55558C16.9823 3.55558 17.7782 2.95863 17.7782 2.22225C17.7782 1.48587 16.9823 0.888916 16.0004 0.888916C15.0186 0.888916 14.2227 1.48587 14.2227 2.22225C14.2227 2.95863 15.0186 3.55558 16.0004 3.55558Z" fill="#F4900C"/>
<path d="M5.05273 21.6978C5.69718 23.8818 6.3194 25.64 7.01185 27.0426C9.77718 29.3333 14.2216 29.3333 15.9994 29.3333C17.7772 29.3333 22.2216 29.3333 24.9825 27.0435C25.6758 25.6426 26.3007 23.8826 26.9452 21.6978C24.5407 23.0871 20.5434 24 15.9994 24C11.4554 24 7.45718 23.0871 5.05273 21.6978Z" fill="#FFCC4D"/>
</svg>
