<svg width="32" height="32" viewBox="0 0 32 32" fill="none" xmlns="http://www.w3.org/2000/svg">
<path d="M7.1907 0.888916C7.1907 0.888916 12.3978 1.43647 14.7818 4.49781C17.6316 8.15736 15.5738 11.5751 15.5738 11.5751C15.5738 11.5751 11.2849 11.1974 9.32493 8.76892C6.47781 5.24092 7.1907 0.888916 7.1907 0.888916Z" fill="#5C913B"/>
<path d="M19.4666 0.888916C19.4666 0.888916 20.2782 4.99292 18.5724 7.52892C16.5342 10.56 13.5271 9.78669 13.5271 9.78669C13.5271 9.78669 12.8044 6.42314 14.1413 4.35914C16.0844 1.36003 19.4666 0.888916 19.4666 0.888916Z" fill="#77B255"/>
<path d="M21.0987 15.6116C24.4939 15.6116 27.2463 13.2131 27.2463 10.2543C27.2463 7.29553 24.4939 4.89697 21.0987 4.89697C17.7035 4.89697 14.9512 7.29553 14.9512 10.2543C14.9512 13.2131 17.7035 15.6116 21.0987 15.6116Z" fill="#2D2C54"/>
<path d="M17.1909 15.1076C17.1909 14.3511 17.0807 13.6498 16.8887 12.9983C18.0306 12.6195 19.226 12.4271 20.4291 12.4285C22.4407 12.4285 24.3002 12.9174 25.8273 13.8169C24.7269 15.2418 22.8442 16 20.7038 16C19.3918 16 18.1847 15.7058 17.1882 15.1565C17.1882 15.1396 17.1909 15.1245 17.1909 15.1076Z" fill="#1A2137"/>
<path d="M19.3432 14.7182C19.3432 14.9582 19.3281 15.1902 19.3076 15.4195C16.7867 14.8577 14.9512 13.0719 14.9512 10.2542C14.9512 9.56261 15.0658 8.93594 15.2703 8.37061C17.6987 9.47816 19.3432 11.6942 19.3432 14.7182Z" fill="#1A2137"/>
<path d="M9.68134 21.8604C14.0466 21.8604 17.5853 18.6627 17.5853 14.7182C17.5853 10.7736 14.0466 7.57593 9.68134 7.57593C5.31609 7.57593 1.77734 10.7736 1.77734 14.7182C1.77734 18.6627 5.31609 21.8604 9.68134 21.8604Z" fill="#2D2C54"/>
<path d="M9.68164 21.4144C9.68164 16.7228 13.015 13.6695 17.4034 13.0535C17.5208 13.577 17.5865 14.1317 17.5865 14.7175C17.5865 19.1477 14.0594 21.8499 9.70475 21.8588C9.69764 21.7112 9.68164 21.5664 9.68164 21.4144Z" fill="#1A2137"/>
<path d="M17.4849 20.2397C18.1047 19.1662 17.7455 17.7985 16.6826 17.1848C15.6197 16.5712 14.2557 16.9439 13.6359 18.0174C13.0161 19.0909 13.3753 20.4586 14.4382 21.0723C15.501 21.6859 16.8651 21.3132 17.4849 20.2397Z" fill="#AA8DD8"/>
<path d="M19.9453 30.7885C25.1294 30.7885 29.3319 26.9911 29.3319 22.3067C29.3319 17.6224 25.1294 13.825 19.9453 13.825C14.7611 13.825 10.5586 17.6224 10.5586 22.3067C10.5586 26.9911 14.7611 30.7885 19.9453 30.7885Z" fill="#2D2C54"/>
<path d="M15.1487 17.552C15.7727 16.4605 16.659 17.0276 17.7096 16.3378C18.5541 15.7831 18.6687 14.9387 19.5576 14.9387C20.4465 14.9387 20.9834 15.6782 21.4847 15.8631C22.6643 16.2978 23.3683 15.6605 24.2572 16.5493C25.1461 17.4382 23.571 18.2391 23.4385 18.9253C23.2705 19.7982 24.363 20.4302 23.5967 20.8525C22.4972 21.4596 22.2199 20.3582 20.4439 20.4445C19.1087 20.5093 18.5807 21.8027 17.419 21.4062C16.2287 21.0009 17.8412 19.8489 17.1283 19.1093C16.2563 18.2045 14.7265 18.2916 15.1487 17.552ZM5.48564 10.4498C5.88119 9.5289 6.4323 10.0596 7.20297 9.41779C7.82164 8.90135 7.83586 8.22223 8.53986 8.14135C9.24386 8.06046 9.7363 8.59823 10.1505 8.69868C11.1247 8.93601 11.8216 8.62757 12.4092 8.99112C13.2616 9.51912 12.2865 10.1573 12.2439 10.7129C12.1896 11.4196 12.8447 12.056 12.2759 12.4605C11.459 13.0418 10.9496 12.3058 9.55053 12.5342C8.49897 12.7067 8.42075 13.456 7.4643 13.2471C6.48475 13.0338 7.33008 12.0782 6.69897 11.5573C5.92653 10.9209 5.21719 11.0738 5.48564 10.4498ZM21.6794 5.9369C22.4181 5.67379 22.4065 6.27201 23.1843 6.37246C23.8092 6.45335 24.2065 6.09957 24.6279 6.46135C25.0483 6.82223 25.0021 7.39023 25.1647 7.68179C25.5461 8.36623 26.0945 8.60268 26.1976 9.13246C26.3487 9.90223 25.4634 9.68179 25.1221 9.95379C24.6883 10.2987 24.6705 11.0125 24.1372 10.9013C23.3692 10.7413 23.5212 10.0587 22.6456 9.37779C21.9879 8.86579 21.5167 9.22046 21.1274 8.5609C20.7292 7.88534 21.7265 7.86312 21.6892 7.22312C21.6439 6.44001 21.1799 6.11468 21.6794 5.9369Z" fill="#1A2137"/>
<path d="M20.1471 20.0614C21.992 20.0614 23.4875 19.1115 23.4875 17.9396C23.4875 16.7678 21.992 15.8179 20.1471 15.8179C18.3022 15.8179 16.8066 16.7678 16.8066 17.9396C16.8066 19.1115 18.3022 20.0614 20.1471 20.0614Z" fill="#111527"/>
<path d="M9.292 12.2099C10.6754 12.2099 11.7969 11.4971 11.7969 10.6179C11.7969 9.73864 10.6754 9.02588 9.292 9.02588C7.90859 9.02588 6.78711 9.73864 6.78711 10.6179C6.78711 11.4971 7.90859 12.2099 9.292 12.2099Z" fill="#111527"/>
<path d="M24.8983 9.62942C25.3835 9.22024 25.2549 8.26939 24.6109 7.50564C23.9669 6.74188 23.0514 6.45443 22.5662 6.86361C22.0809 7.27279 22.2096 8.22364 22.8535 8.9874C23.4975 9.75115 24.413 10.0386 24.8983 9.62942Z" fill="#111527"/>
</svg>
