<?xml version="1.0" ?><!-- Uploaded to: SVG Repo, www.svgrepo.com, Generator: SVG Repo Mixer Tools -->
<svg width="800px" height="800px" viewBox="0 0 128 128" data-name="Layer 2" id="Layer_2" xmlns="http://www.w3.org/2000/svg"><defs><style>.cls-1{fill:#e5dec1;}.cls-2{fill:#f1edd8;}.cls-3{fill:#ea563a;}.cls-4{fill:#616834;}.cls-5{fill:#8d934e;}.cls-6{fill:#553f07;}</style></defs><title/><path class="cls-1" d="M22,56,69.92,25.41A53.3,53.3,0,0,1,102.71,56Z"/><rect class="cls-2" height="47.77" width="80.71" x="22" y="55.97"/><rect class="cls-3" height="15.62" width="80.71" x="22" y="75.77"/><path class="cls-4" d="M111.25,28.4,97.94,25h0a22,22,0,0,1-15.52,7.72l-1.13.06L77.38,44.22l11.27,4.34.78-.83a22,22,0,0,1,15.87-6.95h0Z"/><path class="cls-5" d="M111.93,28.08a.75.75,0,0,0-1-.36L92.07,36.53a11,11,0,0,0,2.19-6.11.72.72,0,0,0-.77-.72.74.74,0,0,0-.72.77,6.42,6.42,0,0,1-.46,2.43l-1,2.1a19.92,19.92,0,0,1-2.18,2.92L82.46,41h0l-5.39,2.52A.74.74,0,0,0,77.38,45a.71.71,0,0,0,.32-.07l5.24-2.45c.77,0,4.67.15,7.22,2.42a.74.74,0,1,0,1-1.11,11.57,11.57,0,0,0-5.59-2.54l9-4.18a12.72,12.72,0,0,1,3.34.1l2.15.51a15.07,15.07,0,0,1,3.52,1.55.78.78,0,0,0,.41.12.72.72,0,0,0,.62-.35.74.74,0,0,0-.22-1,17.62,17.62,0,0,0-6.72-2.35l14-6.52A.75.75,0,0,0,111.93,28.08Z"/><path class="cls-3" d="M73.76,26.93a5.72,5.72,0,0,1,9.68,0c2.31,3.64,4.63,8.19,4.94,12.1.53,6.77-6.76,7.06-9.08,7-.47,0-.92,0-1.39,0-2.32.08-9.61-.21-9.08-7C69.14,35.12,71.46,30.57,73.76,26.93Z"/><path class="cls-6" d="M73.56,41.44a.7.7,0,0,1-.37-.11l-1.5-.87a.74.74,0,0,1-.27-1,.76.76,0,0,1,1-.27l1.49.87a.75.75,0,0,1-.37,1.4Z"/><path class="cls-6" d="M75.92,39.28a.72.72,0,0,1-.47-.17.75.75,0,0,1-.1-1l1.46-1.75a.75.75,0,0,1,1.15,1L76.5,39A.77.77,0,0,1,75.92,39.28Z"/><path class="cls-6" d="M76.24,35.24a.72.72,0,0,1-.49-.19l-.94-.82a.74.74,0,0,1-.08-1,.74.74,0,0,1,1-.07l1,.82a.74.74,0,0,1,.07,1A.73.73,0,0,1,76.24,35.24Z"/><path class="cls-6" d="M78.61,32.29a.79.79,0,0,1-.44-.14.75.75,0,0,1-.17-1l.79-1.1a.74.74,0,1,1,1.21.86L79.21,32A.74.74,0,0,1,78.61,32.29Z"/><path class="cls-6" d="M83.41,42.14a.73.73,0,0,1-.55-.25l-1-1.14a.74.74,0,0,1,.06-1,.73.73,0,0,1,1,.06l1,1.14A.74.74,0,0,1,83.91,42,.73.73,0,0,1,83.41,42.14Z"/><path class="cls-6" d="M78.61,43.76a.88.88,0,0,1-.32-.07l-2-.91a.75.75,0,0,1-.36-1,.73.73,0,0,1,1-.36l2,.9a.75.75,0,0,1,.36,1A.73.73,0,0,1,78.61,43.76Z"/><path class="cls-6" d="M81.91,37.06a.75.75,0,0,1-.38-1.39l2-1.17a.74.74,0,0,1,1,.26.75.75,0,0,1-.26,1l-2,1.17A.73.73,0,0,1,81.91,37.06Z"/><path class="cls-6" d="M84.44,34.18a.73.73,0,0,1-.25,0l-2-.7a.74.74,0,0,1-.46-.95.75.75,0,0,1,1-.46l2,.7a.74.74,0,0,1,.46,1A.73.73,0,0,1,84.44,34.18Z"/><path class="cls-6" d="M76.65,29.14a.74.74,0,0,1-.28-1.43l1.95-.8a.75.75,0,1,1,.57,1.38l-2,.8A1,1,0,0,1,76.65,29.14Z"/><path class="cls-6" d="M85.78,40.56a.74.74,0,0,1-.69-.45l-.55-1.28a.75.75,0,1,1,1.37-.59l.55,1.28a.74.74,0,0,1-.39,1A.58.58,0,0,1,85.78,40.56Z"/></svg>