<svg width="32" height="32" viewBox="0 0 32 32" fill="none" xmlns="http://www.w3.org/2000/svg">
<path d="M15.4141 1.63101C9.98385 2.06479 8.00074 4.79901 8.00074 7.41323C8.00074 9.28079 7.69141 23.3279 7.69141 25.1955C7.69141 27.063 9.53229 29.0932 12.0878 30.2648C15.8087 31.9706 25.1216 31.2195 25.0381 24.9972C24.943 17.887 25.0781 8.32434 25.0781 8.32434C25.0772 3.69057 20.7714 1.20257 15.4141 1.63101Z" fill="#662113"/>
<path d="M9.73109 9.77144C13.0804 12.5625 18.5809 12.4034 21.8209 10.6834C24.932 9.03188 25.1951 6.34388 23.1435 4.20522C21.3951 2.3821 17.2129 1.4221 13.6093 2.24344C9.55509 3.16788 6.44665 7.03366 9.73109 9.77144Z" fill="#C1694F"/>
<path d="M10.6218 9.39388C13.5294 11.817 18.0618 11.5334 21.1169 10.1859C23.9143 8.95121 24.2458 6.62143 22.2654 4.56188C20.7454 2.98143 17.1169 2.14588 13.9881 2.85876C10.4689 3.66054 7.77028 7.01699 10.6218 9.39388Z" fill="#FFE8B6"/>
<path d="M8.12546 13.3599C7.03835 12.5812 5.17879 11.1519 4.73879 10.8675C4.01879 10.4008 2.44279 12.4008 3.65523 13.9892C4.86768 15.5777 7.28901 17.8079 7.8739 20.8595C8.45968 23.911 8.12546 13.3599 8.12546 13.3599Z" fill="#662113"/>
<path d="M4.94157 12.4399C5.08651 11.8857 4.93218 11.3653 4.59687 11.2776C4.26156 11.1899 3.87223 11.5681 3.72729 12.1224C3.58234 12.6767 3.73667 13.1971 4.07198 13.2847C4.4073 13.3724 4.79662 12.9942 4.94157 12.4399Z" fill="#C1694F"/>
<path d="M16.5921 10.3006C14.5947 10.3006 12.5823 9.62323 11.6072 8.82678C10.889 8.24011 10.5201 7.45434 10.5956 6.67122C10.6561 6.04634 11.0303 5.13967 12.4703 4.36811C14.5379 3.25967 16.6747 2.93167 18.6472 3.41789C20.6881 3.91922 22.8232 5.513 22.6267 6.99656C22.417 8.56811 19.4232 9.929 17.945 10.1877C17.4981 10.2643 17.0455 10.302 16.5921 10.3006ZM16.8347 4.089C15.545 4.089 14.2054 4.44722 12.8899 5.15211C12.025 5.61522 11.5379 6.17078 11.481 6.75745C11.4339 7.23922 11.6854 7.74322 12.1699 8.13878C13.2214 8.99745 15.7334 9.67478 17.793 9.31211C19.3459 9.04011 21.6267 7.76367 21.7459 6.87922C21.8596 6.02411 20.1885 4.71211 18.4356 4.281C17.9117 4.15239 17.3742 4.08792 16.8347 4.089Z" fill="#D99E82"/>
<path d="M16.3844 8.3769C15.508 8.3769 14.6902 8.16357 14.2306 7.78757C13.8457 7.4729 13.6493 7.04535 13.6911 6.61335C13.724 6.27557 13.9177 5.79023 14.6546 5.39468C15.2137 5.09512 16.492 4.82135 17.3595 4.91112C18.3417 5.00979 19.6929 5.68357 19.6609 6.55824C19.6084 7.9129 18.1977 8.14846 17.2635 8.30401C16.973 8.35244 16.679 8.37682 16.3844 8.3769ZM16.9951 5.78312C16.2929 5.78312 15.4093 5.99912 15.0733 6.17868C14.7737 6.33957 14.5915 6.5289 14.5755 6.69868C14.5631 6.82757 14.644 6.9769 14.7924 7.09868C15.1497 7.39112 16.116 7.5929 17.1169 7.42757C18.3666 7.21957 18.7533 7.00801 18.7711 6.52446C18.7364 6.33512 18.0191 5.87024 17.2706 5.79557C17.179 5.78723 17.0871 5.78308 16.9951 5.78312Z" fill="#D99E82"/>
<path d="M12.6328 30.3894L12.9893 24.8054L13.4248 30.6667L12.6328 30.3894ZM23.2861 28.9245L23.4444 22.3894L23.8799 28.2507L23.2861 28.9245Z" fill="#292F33"/>
<path d="M13.9004 20.2907L14.5333 16.2116L14.6133 20.6471L15.0088 24.8445L13.9004 20.2907ZM18.5733 30.1911L18.4151 21.32L19.1671 27.8942L18.5733 30.1911ZM21.0284 17.9138L21.1475 12.2898L21.6017 15.4667C21.6161 15.5655 21.6104 15.6662 21.5848 15.7627L21.0284 17.9138Z" fill="#C1694F"/>
</svg>
