<svg width="32" height="32" viewBox="0 0 32 32" fill="none" xmlns="http://www.w3.org/2000/svg">
<path d="M25.7236 24.3919C23.4534 23.6008 18.5138 24.0106 16.8898 25.5751V15.1111C16.8898 14.8753 16.7961 14.6492 16.6294 14.4825C16.4627 14.3158 16.2367 14.2222 16.0009 14.2222C15.7652 14.2222 15.5391 14.3158 15.3724 14.4825C15.2057 14.6492 15.112 14.8753 15.112 15.1111V25.5751C13.488 24.0106 8.54846 23.6008 6.27824 24.3919C5.61957 24.6222 10.9574 32.1688 14.7289 28.3982C14.8782 28.2488 15.0009 28.1048 15.112 27.9626V31.1111C15.112 31.3468 15.2057 31.5729 15.3724 31.7396C15.5391 31.9063 15.7652 31.9999 16.0009 31.9999C16.2367 31.9999 16.4627 31.9063 16.6294 31.7396C16.7961 31.5729 16.8898 31.3468 16.8898 31.1111V27.9626C17.0009 28.1048 17.1236 28.2488 17.2729 28.3982C21.0445 32.1688 26.3822 24.6222 25.7236 24.3919Z" fill="#77B255"/>
<path d="M11.1671 22.7999C10.6169 22.5635 10.1831 22.0559 9.94221 21.455L8.81687 18.5163L5.92087 17.2781C4.73332 16.7679 4.25332 15.5697 4.76176 14.3812L5.97243 11.5537L4.75998 8.6479C4.2791 7.4479 4.89332 6.09857 6.09332 5.61857L9.00176 4.4799L10.2898 1.4719C10.7991 0.284343 11.9973 -0.195657 13.1858 0.312787L16.0818 1.55368L18.9858 0.339454C19.5858 0.0985652 20.24 0.0941208 20.7902 0.329676C21.3404 0.565232 21.7804 1.05768 22.0213 1.65768L23.1538 4.58212L26.0951 5.84168C27.2827 6.35012 27.7618 7.54923 27.2551 8.73768L25.9653 11.7457L27.1787 14.6497C27.6595 15.8497 27.0453 17.1972 25.8453 17.6781L22.9378 18.8168L21.7262 21.6461C21.2178 22.8337 20.0178 23.3146 18.8302 22.8061L15.8898 21.5466L12.9858 22.759C12.3849 22.9999 11.7173 23.0355 11.1671 22.7999Z" fill="#CCD6DD"/>
<path d="M26.0951 5.84176L23.1538 4.58221L23.1049 4.4551C21.7138 5.64354 18.4693 8.32532 18.4693 8.32532L18.4755 8.43465C17.7745 7.86897 16.9017 7.55892 16.0009 7.55554V1.5191L13.1858 0.313764C11.9973 -0.19468 10.7991 0.28532 10.2898 1.47287L9.00176 4.48087L8.94754 4.50221L13.1724 8.72799C12.8004 9.09879 12.5054 9.53951 12.3043 10.0248C12.1032 10.51 12.0001 11.0303 12.0009 11.5555H5.97154L4.76176 14.3804C4.25332 15.5689 4.73332 16.768 5.92087 17.2773L8.81687 18.5164L8.81865 18.5218L12.8151 13.9511C13.1848 14.4478 13.6653 14.8514 14.2183 15.13C14.7713 15.4085 15.3817 15.5542 16.0009 15.5555H16.0053C16.0107 17.3147 16.0187 20.2427 16.016 21.6009L18.8284 22.8062C20.016 23.3147 21.216 22.8338 21.7244 21.6462L22.9351 18.8195L18.32 14.8044C18.8387 14.4363 19.2619 13.9493 19.5541 13.3843C19.8464 12.8193 19.9993 12.1926 20 11.5564C20 11.4933 19.984 11.4347 19.9813 11.3715C21.5831 11.5333 24.3822 11.7911 26.0453 11.9422L25.9635 11.7467L27.2542 8.73776C27.7618 7.54932 27.2818 6.35021 26.0951 5.84176Z" fill="#E1E8ED"/>
<path d="M15.9991 16C18.4537 16 20.4436 14.0101 20.4436 11.5555C20.4436 9.10093 18.4537 7.11108 15.9991 7.11108C13.5445 7.11108 11.5547 9.10093 11.5547 11.5555C11.5547 14.0101 13.5445 16 15.9991 16Z" fill="#F4900C"/>
</svg>
