<svg width="32" height="32" viewBox="0 0 32 32" fill="none" xmlns="http://www.w3.org/2000/svg">
<path d="M21.3327 6.22217C18.666 6.22217 18.666 7.11106 15.9993 7.11106C13.3327 7.11106 13.3327 6.22217 10.666 6.22217C7.11046 6.22217 2.66602 7.99995 2.66602 14.2222C2.66602 23.9999 7.99935 31.9999 11.5549 31.9999C14.2216 31.9999 14.2216 31.1111 15.9993 31.1111C17.7771 31.1111 17.7771 31.9999 20.4438 31.9999C23.9993 31.9999 29.3327 23.9999 29.3327 14.2222C29.3327 7.99906 24.8882 6.22217 21.3327 6.22217Z" fill="#77B255"/>
<path d="M15.3868 7.00449C15.3868 7.00449 13.809 2.84983 9.53787 1.61783C6.12187 0.632936 3.92188 1.84894 3.92188 1.84894C3.92188 1.84894 6.59921 5.39649 9.16187 6.13516C11.7237 6.87294 15.3868 7.00449 15.3868 7.00449Z" fill="#3E721D"/>
<path d="M16.0002 8.889C15.7645 8.889 15.5384 8.79535 15.3717 8.62865C15.205 8.46195 15.1113 8.23586 15.1113 8.00011C15.1113 4.94144 16.178 2.12011 18.0384 0.260554C18.2051 0.0938805 18.4312 0.000244141 18.6669 0.000244141C18.9026 0.000244141 19.1287 0.0938805 19.2953 0.260554C19.462 0.427228 19.5556 0.653286 19.5556 0.888999C19.5556 1.12471 19.462 1.35077 19.2953 1.51744C17.7656 3.04633 16.8891 5.409 16.8891 8.00011C16.8891 8.23586 16.7955 8.46195 16.6288 8.62865C16.4621 8.79535 16.236 8.889 16.0002 8.889Z" fill="#662113"/>
</svg>
