<svg width="32" height="32" viewBox="0 0 32 32" fill="none" xmlns="http://www.w3.org/2000/svg">
<path d="M18.5938 20.0019C16.1885 19.7077 15.1316 18.3557 13.0178 15.6561C15.7191 13.5441 17.0702 12.4872 19.4765 12.7806C21.8854 13.0757 24.1431 14.5726 25.0525 17.1263C23.5565 19.3868 21.0018 20.2934 18.5938 20.0019ZM13.2969 27.8366C11.0311 27.6703 9.97868 26.4561 7.87646 24.025C10.3076 21.9237 11.5227 20.8721 13.7894 21.0348C16.0569 21.1992 18.2418 22.4961 19.2098 24.8454C17.9129 27.0303 15.5654 27.9992 13.2969 27.8366ZM7.76802 13.8748C8.95735 15.3246 8.82668 16.6454 8.56624 19.2863C5.92624 19.025 4.60535 18.8952 3.41513 17.4454C2.22491 15.993 1.76091 13.9477 2.61691 12.0339C4.66224 11.5681 6.5778 12.4241 7.76802 13.8748ZM26.5378 9.03211C24.3734 9.93878 22.84 9.31122 19.7707 8.057C21.0249 4.98767 21.6534 3.45256 23.8142 2.54322C25.9778 1.63567 28.5947 1.809 30.5805 3.51745C30.408 6.13433 28.6987 8.12278 26.5378 9.03211ZM15.2036 5.87389C15.9805 8.42411 15.0934 10.089 13.32 13.4188C9.99113 11.6446 8.32535 10.7574 7.54757 8.20634C6.76891 5.65345 7.26757 2.713 9.43024 0.659668C12.3707 1.15833 14.4249 3.32011 15.2036 5.87389Z" fill="#77B255"/>
<path d="M7.54635 8.20625C8.31257 10.72 9.94813 11.6223 13.1801 13.3449V13.3405C13.1179 11.0996 10.7508 3.67292 9.38724 0.705811C7.26368 2.75737 6.77301 5.67203 7.54635 8.20625ZM2.57568 12.1431C1.78457 14.0258 2.2459 16.0205 3.4139 17.4454C4.60502 18.896 5.9259 19.0249 8.56501 19.2863C7.67879 17.5645 4.19968 13.608 2.57568 12.1431Z" fill="#A6D388"/>
<path d="M19.4748 12.7805C17.1966 12.5032 15.8508 13.4472 13.4233 15.3397C14.9753 15.433 21.2331 16.0019 25.0322 17.1503C25.0375 17.1414 25.0455 17.1352 25.0508 17.1263C24.1415 14.5725 21.8837 13.0757 19.4748 12.7805ZM19.2046 24.8383C18.2348 22.4943 16.0535 21.1992 13.7877 21.0348C11.5655 20.8757 10.3477 21.889 8.01172 23.9077C10.4713 23.6365 15.0384 23.1343 19.2046 24.8383Z" fill="#5C913B"/>
<path d="M19.9297 8.12173C22.887 9.32973 24.4124 9.92084 26.5359 9.03195C28.6861 8.12706 30.3866 6.15284 30.5732 3.5564C27.087 4.23284 21.3368 7.24529 19.9297 8.12173Z" fill="#A6D388"/>
<path d="M4.22385 31.1653C3.70473 31.0845 3.01229 30.4267 3.09229 29.9067C3.57762 26.7405 5.63273 19.0907 19.3572 7.90223C19.7643 7.5689 20.2247 7.31645 20.5696 7.71379C20.9172 8.11112 20.5234 8.55823 20.127 8.90401C8.3154 19.1885 6.33673 27.3342 5.88429 30.2951C5.8034 30.8151 4.74385 31.2436 4.22385 31.1653Z" fill="#A06253"/>
</svg>
