<svg width="32" height="32" viewBox="0 0 32 32" fill="none" xmlns="http://www.w3.org/2000/svg">
<path d="M25.9173 3.697C25.7068 3.59132 25.5467 3.40665 25.4719 3.18331C25.3971 2.95997 25.4138 2.71612 25.5182 2.505L26.4693 0.597449C26.6871 0.160116 27.224 -0.0194399 27.6613 0.198338C28.0986 0.416116 28.2782 0.953004 28.0604 1.39034L27.1093 3.29789C27.0036 3.50838 26.8189 3.66849 26.5956 3.74327C26.3723 3.81805 26.1284 3.80141 25.9173 3.697ZM26.7884 5.65167L26.7644 5.57789C26.6933 5.36418 26.7099 5.13101 26.8103 4.92944C26.9108 4.72787 27.087 4.5743 27.3004 4.50234L30.7706 3.35034C30.9843 3.27929 31.2175 3.2958 31.4191 3.39625C31.6206 3.49671 31.7742 3.67292 31.8462 3.88634L31.8702 3.96012C31.941 4.17408 31.9242 4.40735 31.8237 4.60903C31.7231 4.8107 31.5468 4.96439 31.3333 5.03656L27.864 6.18767C27.6502 6.25847 27.4172 6.24185 27.2157 6.14143C27.0142 6.04101 26.8606 5.86494 26.7884 5.65167ZM27.2453 7.66411C27.1409 7.87523 27.1242 8.11908 27.199 8.34242C27.2738 8.56576 27.4339 8.75043 27.6444 8.85612L29.552 9.80723C29.9893 10.025 30.5262 9.84545 30.744 9.40811C30.9617 8.97078 30.7822 8.43389 30.3448 8.21611L28.4373 7.265C28.2262 7.16059 27.9823 7.14396 27.759 7.21874C27.5356 7.29352 27.351 7.45363 27.2453 7.66411Z" fill="#FA743E"/>
<path d="M9.89275 28.4675C8.96653 28.1573 7.1212 27.6222 7.51231 24.4888L8.08653 19.8897C8.19409 19.0275 9.13275 18.7653 10.1568 18.28C11.0465 17.8577 13.1923 16.4106 13.7203 12.1848C14.1808 8.49062 13.4848 2.65418 13.3025 1.24529L9.2332 0.775066L5.16209 0.303955C4.66253 1.63462 2.65275 7.15729 2.25809 10.8595C1.80742 15.0942 3.56653 16.9928 4.33631 17.6071C5.22253 18.3128 6.07675 18.7822 5.98431 19.6462C5.89275 20.5102 5.82697 21.1146 5.49364 24.2551C5.15942 27.3946 3.24031 27.4942 2.26786 27.5848C0.421641 27.7564 0.319419 29.2577 1.21186 29.352C2.10609 29.448 5.8652 29.888 5.8652 29.888C5.8652 29.888 9.62609 30.3182 10.5176 30.4284C11.4083 30.5413 11.651 29.056 9.89275 28.4675Z" fill="#E1E8ED"/>
<path d="M12.251 3.12523C11.9105 3.34123 10.1541 4.2879 8.03498 4.46567C6.56565 4.59012 4.7452 4.40345 4.44653 5.39101C3.84387 7.38301 3.36476 9.14301 3.17187 10.9572C2.80565 14.3928 3.99676 16.0497 4.70965 16.7172L4.7292 16.7341C4.81631 16.8043 5.66431 17.4523 7.26253 17.6372C8.85009 17.8212 9.85542 17.3946 9.97098 17.3421C9.98342 17.3368 9.98698 17.3341 9.99853 17.3279C10.8456 16.8399 12.3808 15.4986 12.8083 12.0719C13.123 9.54567 12.8696 5.90834 12.6359 3.54123C12.6181 3.3599 12.5914 2.90923 12.251 3.12523Z" fill="#FFCC4D"/>
<path d="M10.9796 6.38055C11.2962 6.38055 11.5529 6.12386 11.5529 5.80722C11.5529 5.49058 11.2962 5.23389 10.9796 5.23389C10.6629 5.23389 10.4062 5.49058 10.4062 5.80722C10.4062 6.12386 10.6629 6.38055 10.9796 6.38055Z" fill="#FFD983"/>
<path d="M9.10263 8.29071C9.41927 8.29071 9.67596 8.03402 9.67596 7.71738C9.67596 7.40073 9.41927 7.14404 9.10263 7.14404C8.78599 7.14404 8.5293 7.40073 8.5293 7.71738C8.5293 8.03402 8.78599 8.29071 9.10263 8.29071Z" fill="#FFD983"/>
<path d="M11.255 10.4924C11.5716 10.4924 11.8283 10.2357 11.8283 9.91904C11.8283 9.60239 11.5716 9.3457 11.255 9.3457C10.9383 9.3457 10.6816 9.60239 10.6816 9.91904C10.6816 10.2357 10.9383 10.4924 11.255 10.4924Z" fill="#FFD983"/>
<path d="M8.15341 11.9235C8.47006 11.9235 8.72674 11.6668 8.72674 11.3502C8.72674 11.0335 8.47006 10.7769 8.15341 10.7769C7.83677 10.7769 7.58008 11.0335 7.58008 11.3502C7.58008 11.6668 7.83677 11.9235 8.15341 11.9235Z" fill="#FFD983"/>
<path d="M6.32138 9.54657C6.63802 9.54657 6.89471 9.28988 6.89471 8.97324C6.89471 8.65659 6.63802 8.3999 6.32138 8.3999C6.00474 8.3999 5.74805 8.65659 5.74805 8.97324C5.74805 9.28988 6.00474 9.54657 6.32138 9.54657Z" fill="#FFD983"/>
<path d="M6.01669 6.83465C6.33334 6.83465 6.59003 6.57796 6.59003 6.26132C6.59003 5.94468 6.33334 5.68799 6.01669 5.68799C5.70005 5.68799 5.44336 5.94468 5.44336 6.26132C5.44336 6.57796 5.70005 6.83465 6.01669 6.83465Z" fill="#FFD983"/>
<path d="M18.4823 29.7574C19.4086 29.4472 21.2539 28.9121 20.8628 25.7787L20.2886 21.1796C20.181 20.3174 19.2423 20.0552 18.2183 19.5698C17.3286 19.1476 15.1828 17.7005 14.6548 13.4747C14.1943 9.7805 14.8903 3.94406 15.0726 2.53517L19.1419 2.06495L23.2112 1.59473C23.7108 2.92539 25.7206 8.44806 26.1152 12.1503C26.5659 16.3849 24.8068 18.2836 24.037 18.8978C23.1508 19.6036 22.2966 20.0729 22.389 20.9369C22.4806 21.8009 22.5463 22.4054 22.8797 25.5458C23.2139 28.6854 25.133 28.7849 26.1054 28.8756C27.9517 29.0472 28.0539 30.5485 27.1614 30.6427C26.2672 30.7387 22.5081 31.1787 22.5081 31.1787C22.5081 31.1787 18.7472 31.6089 17.8557 31.7192C16.9668 31.8312 16.7241 30.3467 18.4823 29.7574Z" fill="#E1E8ED"/>
<path d="M16.1254 4.41503C16.4659 4.63103 18.2232 5.57769 20.3414 5.75547C21.8108 5.87903 23.6321 5.69236 23.9308 6.6808C24.5334 8.6728 25.0125 10.4328 25.2054 12.247C25.5716 15.6826 24.3805 17.3395 23.6676 18.007L23.6481 18.0239C23.561 18.0941 22.713 18.7421 21.1148 18.927C19.5272 19.111 18.5219 18.6844 18.4063 18.6319C18.3939 18.6266 18.3903 18.6239 18.3787 18.6177C17.5316 18.1297 15.9965 16.7884 15.569 13.3617C15.2543 10.8355 15.5076 7.19814 15.7414 4.83103C15.7583 4.64969 15.785 4.19903 16.1254 4.41503Z" fill="#FFCC4D"/>
<path d="M17.3956 7.67108C17.7122 7.67108 17.9689 7.41439 17.9689 7.09775C17.9689 6.7811 17.7122 6.52441 17.3956 6.52441C17.079 6.52441 16.8223 6.7811 16.8223 7.09775C16.8223 7.41439 17.079 7.67108 17.3956 7.67108Z" fill="#FFD983"/>
<path d="M19.2726 9.5805C19.5892 9.5805 19.8459 9.32381 19.8459 9.00717C19.8459 8.69053 19.5892 8.43384 19.2726 8.43384C18.9559 8.43384 18.6992 8.69053 18.6992 9.00717C18.6992 9.32381 18.9559 9.5805 19.2726 9.5805Z" fill="#FFD983"/>
<path d="M17.1222 11.7822C17.4388 11.7822 17.6955 11.5255 17.6955 11.2088C17.6955 10.8922 17.4388 10.6355 17.1222 10.6355C16.8055 10.6355 16.5488 10.8922 16.5488 11.2088C16.5488 11.5255 16.8055 11.7822 17.1222 11.7822Z" fill="#FFD983"/>
<path d="M20.2218 13.2143C20.5384 13.2143 20.7951 12.9576 20.7951 12.641C20.7951 12.3243 20.5384 12.0676 20.2218 12.0676C19.9051 12.0676 19.6484 12.3243 19.6484 12.641C19.6484 12.9576 19.9051 13.2143 20.2218 13.2143Z" fill="#FFD983"/>
<path d="M22.0538 10.8364C22.3704 10.8364 22.6271 10.5797 22.6271 10.263C22.6271 9.94639 22.3704 9.6897 22.0538 9.6897C21.7372 9.6897 21.4805 9.94639 21.4805 10.263C21.4805 10.5797 21.7372 10.8364 22.0538 10.8364Z" fill="#FFD983"/>
<path d="M22.3604 8.12543C22.6771 8.12543 22.9338 7.86874 22.9338 7.55209C22.9338 7.23545 22.6771 6.97876 22.3604 6.97876C22.0438 6.97876 21.7871 7.23545 21.7871 7.55209C21.7871 7.86874 22.0438 8.12543 22.3604 8.12543Z" fill="#FFD983"/>
</svg>
