<svg width="32" height="32" viewBox="0 0 32 32" fill="none" xmlns="http://www.w3.org/2000/svg">
<g clip-path="url(#clip0_266_4325)">
<path d="M20.4552 21.6196L15.5254 16.6898L10.5947 11.76C10.5947 11.76 10.9992 21.7005 0.654297 24.2871C0.654297 24.2871 1.57163 26.4978 3.64452 28.5707C5.71741 30.6436 7.92807 31.5609 7.92807 31.5609C10.5147 21.2151 20.4552 21.6196 20.4552 21.6196Z" fill="#77B255"/>
<path d="M12.2938 14.7502C11.6476 17.9831 7.76758 23.1556 7.76758 23.1556L15.5258 15.3973C18.1116 12.8116 12.2938 14.7502 12.2938 14.7502ZM23.2849 20.5689C23.2849 20.5689 13.5871 21.2151 7.76758 25.7413C14.8796 18.6293 18.1125 17.9831 18.1125 17.9831L23.2849 20.5689Z" fill="#5C913B"/>
<path d="M26.8055 25.0595C27.1085 25.082 27.4129 25.039 27.6978 24.9335C27.9828 24.828 28.2417 24.6624 28.4571 24.448C28.8571 24.0479 29.0818 23.5053 29.0818 22.9395C29.0818 22.3737 28.8571 21.8311 28.4571 21.4311C28.3815 21.3555 28.2971 21.2942 28.2135 21.232C28.5909 21.1419 28.9363 20.9497 29.2117 20.6764C29.476 20.4095 29.6641 20.0769 29.7566 19.7128C30.1205 19.62 30.4531 19.432 30.7202 19.168C31.1202 18.7679 31.345 18.2253 31.345 17.6595C31.345 17.0937 31.1202 16.5511 30.7202 16.1511C30.9939 15.8772 31.188 15.534 31.2815 15.1583C31.3751 14.7826 31.3646 14.3885 31.2513 14.0182C31.1379 13.648 30.9259 13.3156 30.638 13.0567C30.3501 12.7977 29.9972 12.622 29.6171 12.5484C29.8101 12.1512 29.8748 11.7038 29.8022 11.2682C29.7295 10.8326 29.5232 10.4304 29.2117 10.1173C28.9363 9.84396 28.5909 9.65175 28.2135 9.56174C28.2971 9.49951 28.3815 9.43818 28.4571 9.36262C28.8571 8.96255 29.0818 8.41995 29.0818 7.85418C29.0818 7.28841 28.8571 6.74581 28.4571 6.34574C28.1442 6.03392 27.742 5.82733 27.3063 5.75468C26.8706 5.68204 26.423 5.74695 26.0259 5.9404C25.9278 5.43015 25.6458 4.97368 25.2333 4.6576C24.8209 4.34153 24.3068 4.18786 23.7886 4.22574C23.8111 3.92269 23.7681 3.61836 23.6626 3.33339C23.5571 3.04842 23.3915 2.78949 23.1771 2.57418C22.777 2.17413 22.2344 1.94939 21.6686 1.94939C21.1028 1.94939 20.5602 2.17413 20.1602 2.57418C19.8473 2.26236 19.4451 2.05577 19.0094 1.98313C18.5737 1.91048 18.1262 1.9754 17.7291 2.16885C17.6347 1.68269 17.3741 1.24453 16.992 0.92948C16.6099 0.614434 16.1301 0.442139 15.6348 0.442139C15.1396 0.442139 14.6598 0.614434 14.2777 0.92948C13.8956 1.24453 13.635 1.68269 13.5406 2.16885C13.1434 1.97579 12.696 1.9111 12.2604 1.98372C11.8248 2.05635 11.4226 2.26271 11.1095 2.57418C10.8362 2.8496 10.644 3.19496 10.5539 3.5724C10.4917 3.48885 10.4304 3.4044 10.3548 3.32885C9.95476 2.9288 9.41216 2.70406 8.84639 2.70406C8.28062 2.70406 7.73802 2.9288 7.33794 3.32885C7.02591 3.64136 6.81902 4.04335 6.74606 4.4789C6.67309 4.91446 6.73768 5.36193 6.93083 5.75907C6.55069 5.83269 6.19775 6.00839 5.90986 6.26732C5.62196 6.52625 5.40997 6.85866 5.29661 7.2289C5.18324 7.59914 5.17278 7.99325 5.26634 8.36898C5.35991 8.74471 5.55397 9.08789 5.82772 9.36174C6.11305 9.64707 6.46061 9.82751 6.82594 9.91729C6.74239 9.97951 6.65794 10.0408 6.58239 10.1164C6.30863 10.3902 6.11457 10.7334 6.02101 11.1092C5.92745 11.4849 5.93791 11.879 6.05127 12.2492C6.16464 12.6195 6.37663 12.9519 6.66452 13.2108C6.95242 13.4698 7.30536 13.6454 7.6855 13.7191C7.49245 14.1163 7.42775 14.5637 7.50038 14.9993C7.573 15.4349 7.77936 15.8371 8.09083 16.1502C8.40369 16.462 8.80593 16.6686 9.24163 16.7412C9.67733 16.8139 10.1248 16.749 10.5219 16.5555C10.5982 16.9551 10.7883 17.3242 11.0693 17.6185C11.3503 17.9127 11.7102 18.1196 12.1059 18.2142C12.0224 18.2764 11.9379 18.3377 11.8624 18.4133C11.4623 18.8134 11.2376 19.356 11.2376 19.9217C11.2376 20.4875 11.4623 21.0301 11.8624 21.4302C12.1752 21.742 12.5775 21.9486 13.0132 22.0212C13.4489 22.0939 13.8964 22.029 14.2935 21.8355C14.3492 22.1249 14.4646 22.3996 14.6322 22.642C14.7999 22.8844 15.0163 23.0892 15.2675 23.2434C15.5186 23.3976 15.7992 23.4978 16.0912 23.5376C16.3833 23.5774 16.6804 23.556 16.9637 23.4746C17.0206 23.5493 17.0739 23.6248 17.1424 23.6933C17.5957 24.1466 18.2011 24.344 18.7939 24.3048C18.7714 24.6079 18.8144 24.9122 18.9199 25.1972C19.0255 25.4822 19.1911 25.7411 19.4055 25.9564C19.8056 26.3564 20.3482 26.5812 20.9139 26.5812C21.4797 26.5812 22.0223 26.3564 22.4224 25.9564C22.4979 25.8808 22.5593 25.7964 22.6215 25.7128C22.7113 26.0782 22.8917 26.4257 23.1771 26.7111C23.5771 27.1111 24.1197 27.3359 24.6855 27.3359C25.2513 27.3359 25.7939 27.1111 26.1939 26.7111C26.6473 26.2577 26.8446 25.6524 26.8055 25.0595Z" fill="#3E721D"/>
<path d="M9.70749 6.42304C10.465 6.42304 11.079 5.80898 11.079 5.05149C11.079 4.294 10.465 3.67993 9.70749 3.67993C8.95 3.67993 8.33594 4.294 8.33594 5.05149C8.33594 5.80898 8.95 6.42304 9.70749 6.42304Z" fill="#5C913B"/>
<path d="M13.5864 6.42304C14.3439 6.42304 14.958 5.80898 14.958 5.05149C14.958 4.294 14.3439 3.67993 13.5864 3.67993C12.8289 3.67993 12.2148 4.294 12.2148 5.05149C12.2148 5.80898 12.8289 6.42304 13.5864 6.42304Z" fill="#5C913B"/>
<path d="M16.1723 3.83735C16.9298 3.83735 17.5439 3.22328 17.5439 2.46579C17.5439 1.7083 16.9298 1.09424 16.1723 1.09424C15.4148 1.09424 14.8008 1.7083 14.8008 2.46579C14.8008 3.22328 15.4148 3.83735 16.1723 3.83735Z" fill="#5C913B"/>
<path d="M19.4048 5.7768C20.1622 5.7768 20.7763 5.16274 20.7763 4.40525C20.7763 3.64776 20.1622 3.03369 19.4048 3.03369C18.6473 3.03369 18.0332 3.64776 18.0332 4.40525C18.0332 5.16274 18.6473 5.7768 19.4048 5.7768Z" fill="#5C913B"/>
<path d="M21.9907 5.7768C22.7482 5.7768 23.3623 5.16274 23.3623 4.40525C23.3623 3.64776 22.7482 3.03369 21.9907 3.03369C21.2332 3.03369 20.6191 3.64776 20.6191 4.40525C20.6191 5.16274 21.2332 5.7768 21.9907 5.7768Z" fill="#5C913B"/>
<path d="M22.6391 7.7165C23.3966 7.7165 24.0107 7.10243 24.0107 6.34494C24.0107 5.58746 23.3966 4.97339 22.6391 4.97339C21.8816 4.97339 21.2676 5.58746 21.2676 6.34494C21.2676 7.10243 21.8816 7.7165 22.6391 7.7165Z" fill="#5C913B"/>
<path d="M24.5786 8.36274C25.3361 8.36274 25.9501 7.74867 25.9501 6.99118C25.9501 6.23369 25.3361 5.61963 24.5786 5.61963C23.8211 5.61963 23.207 6.23369 23.207 6.99118C23.207 7.74867 23.8211 8.36274 24.5786 8.36274Z" fill="#5C913B"/>
<path d="M27.1645 9.65595C27.922 9.65595 28.5361 9.04189 28.5361 8.2844C28.5361 7.52691 27.922 6.91284 27.1645 6.91284C26.407 6.91284 25.793 7.52691 25.793 8.2844C25.793 9.04189 26.407 9.65595 27.1645 9.65595Z" fill="#5C913B"/>
<path d="M26.518 11.5957C27.2755 11.5957 27.8896 10.9816 27.8896 10.2241C27.8896 9.46661 27.2755 8.85254 26.518 8.85254C25.7606 8.85254 25.1465 9.46661 25.1465 10.2241C25.1465 10.9816 25.7606 11.5957 26.518 11.5957Z" fill="#5C913B"/>
<path d="M28.4575 14.8286C29.215 14.8286 29.829 14.2145 29.829 13.457C29.829 12.6995 29.215 12.0854 28.4575 12.0854C27.7 12.0854 27.0859 12.6995 27.0859 13.457C27.0859 14.2145 27.7 14.8286 28.4575 14.8286Z" fill="#5C913B"/>
<path d="M29.104 18.0612C29.8615 18.0612 30.4755 17.4472 30.4755 16.6897C30.4755 15.9322 29.8615 15.3181 29.104 15.3181C28.3465 15.3181 27.7324 15.9322 27.7324 16.6897C27.7324 17.4472 28.3465 18.0612 29.104 18.0612Z" fill="#5C913B"/>
<path d="M23.9302 11.5957C24.6876 11.5957 25.3017 10.9816 25.3017 10.2241C25.3017 9.46661 24.6876 8.85254 23.9302 8.85254C23.1727 8.85254 22.5586 9.46661 22.5586 10.2241C22.5586 10.9816 23.1727 11.5957 23.9302 11.5957Z" fill="#5C913B"/>
<path d="M21.3442 9.00971C22.1017 9.00971 22.7158 8.39565 22.7158 7.63816C22.7158 6.88067 22.1017 6.2666 21.3442 6.2666C20.5867 6.2666 19.9727 6.88067 19.9727 7.63816C19.9727 8.39565 20.5867 9.00971 21.3442 9.00971Z" fill="#5C913B"/>
<path d="M18.1118 7.07026C18.8693 7.07026 19.4833 6.45619 19.4833 5.6987C19.4833 4.94121 18.8693 4.32715 18.1118 4.32715C17.3543 4.32715 16.7402 4.94121 16.7402 5.6987C16.7402 6.45619 17.3543 7.07026 18.1118 7.07026Z" fill="#5C913B"/>
<path d="M14.2329 8.36274C14.9904 8.36274 15.6044 7.74867 15.6044 6.99118C15.6044 6.23369 14.9904 5.61963 14.2329 5.61963C13.4754 5.61963 12.8613 6.23369 12.8613 6.99118C12.8613 7.74867 13.4754 8.36274 14.2329 8.36274Z" fill="#5C913B"/>
<path d="M15.5259 7.07026C16.2833 7.07026 16.8974 6.45619 16.8974 5.6987C16.8974 4.94121 16.2833 4.32715 15.5259 4.32715C14.7684 4.32715 14.1543 4.94121 14.1543 5.6987C14.1543 6.45619 14.7684 7.07026 15.5259 7.07026Z" fill="#5C913B"/>
<path d="M11.6469 9.65595C12.4044 9.65595 13.0185 9.04189 13.0185 8.2844C13.0185 7.52691 12.4044 6.91284 11.6469 6.91284C10.8895 6.91284 10.2754 7.52691 10.2754 8.2844C10.2754 9.04189 10.8895 9.65595 11.6469 9.65595Z" fill="#5C913B"/>
<path d="M18.1118 10.9494C18.8693 10.9494 19.4833 10.3353 19.4833 9.57785C19.4833 8.82036 18.8693 8.2063 18.1118 8.2063C17.3543 8.2063 16.7402 8.82036 16.7402 9.57785C16.7402 10.3353 17.3543 10.9494 18.1118 10.9494Z" fill="#5C913B"/>
<path d="M22.6391 15.4746C23.3966 15.4746 24.0107 14.8605 24.0107 14.103C24.0107 13.3455 23.3966 12.7314 22.6391 12.7314C21.8816 12.7314 21.2676 13.3455 21.2676 14.103C21.2676 14.8605 21.8816 15.4746 22.6391 15.4746Z" fill="#5C913B"/>
<path d="M23.9302 19.3547C24.6876 19.3547 25.3017 18.7406 25.3017 17.9831C25.3017 17.2256 24.6876 16.6116 23.9302 16.6116C23.1727 16.6116 22.5586 17.2256 22.5586 17.9831C22.5586 18.7406 23.1727 19.3547 23.9302 19.3547Z" fill="#5C913B"/>
</g>
<defs>
<clipPath id="clip0_266_4325">
<rect width="32" height="32" fill="white"/>
</clipPath>
</defs>
</svg>
