<svg width="32" height="32" viewBox="0 0 32 32" fill="none" xmlns="http://www.w3.org/2000/svg">
<g clip-path="url(#clip0_266_4369)">
<path d="M23.1107 21.3334C22.9287 21.3333 22.7512 21.2772 22.6023 21.1726C16.7863 17.1014 11.788 10.1806 8.91604 5.67122C10.4263 15.0294 9.80226 20.3006 9.77115 20.5548C9.73652 20.7839 9.61378 20.9904 9.4291 21.1304C9.24441 21.2703 9.01237 21.3326 8.78243 21.304C8.55248 21.2754 8.3428 21.1581 8.19807 20.9771C8.05333 20.7962 7.98499 20.5658 8.00759 20.3352C8.01559 20.265 8.83959 13.1948 6.24226 1.07478C6.19752 0.865256 6.22995 0.646625 6.33359 0.45912C6.43724 0.271614 6.60512 0.12785 6.80633 0.0542865C7.00755 -0.0192772 7.22857 -0.0176908 7.42871 0.0587537C7.62885 0.135198 7.79465 0.281357 7.89559 0.470331C7.96582 0.601886 15.0129 13.6908 23.6209 19.7166C23.7757 19.825 23.892 19.98 23.9527 20.159C24.0134 20.3381 24.0155 20.5318 23.9586 20.712C23.9017 20.8923 23.7888 21.0498 23.6363 21.1615C23.4839 21.2733 23.2997 21.3335 23.1107 21.3334Z" fill="#77B255"/>
<path d="M23.5965 7.8381C20.5067 8.69144 19.1067 10.1012 14.0419 8.43099C9.8463 7.04699 7.78674 4.69144 8.40185 2.82655C9.01696 0.961659 11.2285 0.0149922 15.4241 1.39899C19.6454 2.79188 19.089 4.47988 23.5965 7.8381Z" fill="#5C913B"/>
<path d="M23.1111 32.0001C27.0385 32.0001 30.2222 28.8163 30.2222 24.8889C30.2222 20.9616 27.0385 17.7778 23.1111 17.7778C19.1838 17.7778 16 20.9616 16 24.8889C16 28.8163 19.1838 32.0001 23.1111 32.0001Z" fill="#BE1931"/>
<path d="M9.77713 32.0001C13.7045 32.0001 16.8882 28.8163 16.8882 24.8889C16.8882 20.9616 13.7045 17.7778 9.77713 17.7778C5.84977 17.7778 2.66602 20.9616 2.66602 24.8889C2.66602 28.8163 5.84977 32.0001 9.77713 32.0001Z" fill="#BE1931"/>
</g>
<defs>
<clipPath id="clip0_266_4369">
<rect width="32" height="32" fill="white"/>
</clipPath>
</defs>
</svg>
