<svg width="32" height="32" viewBox="0 0 32 32" fill="none" xmlns="http://www.w3.org/2000/svg">
<g clip-path="url(#clip0_266_4374)">
<path d="M23.1109 3.55544C23.1109 6.22211 19.9269 8.88878 15.9998 8.88878C12.0727 8.88878 8.88867 6.22211 8.88867 3.55544C8.88867 -0.37167 14.222 -0.000114362 15.9998 -0.000114362C17.7776 -0.000114362 23.1109 -0.37167 23.1109 3.55544Z" fill="#66757F"/>
<path d="M21.6056 10.6665H10.395C9.97413 10.6665 9.56692 10.8157 9.24578 11.0877C8.92465 11.3597 8.71041 11.7367 8.64118 12.1518L5.67852 29.9296C5.63604 30.1843 5.64956 30.4452 5.71813 30.6942C5.78671 30.9431 5.90869 31.1742 6.07561 31.3712C6.24252 31.5682 6.45035 31.7265 6.68464 31.8351C6.91894 31.9436 7.17407 31.9999 7.43229 31.9998H24.5683C24.8265 31.9999 25.0816 31.9436 25.3159 31.8351C25.5502 31.7265 25.7581 31.5682 25.925 31.3712C26.0919 31.1742 26.2139 30.9431 26.2825 30.6942C26.351 30.4452 26.3645 30.1843 26.3221 29.9296L23.3594 12.1518C23.29 11.7368 23.0757 11.3598 22.7546 11.0879C22.4335 10.8159 22.0264 10.6666 21.6056 10.6665Z" fill="#CCD6DD"/>
<path d="M17.1954 12.4443H11.1492C10.9388 12.4443 10.7351 12.5189 10.5746 12.655C10.4141 12.7911 10.3071 12.9798 10.2728 13.1874L7.60611 29.1874C7.58464 29.3147 7.5912 29.4451 7.62532 29.5696C7.65944 29.694 7.72031 29.8095 7.80368 29.9081C7.88704 30.0066 7.99089 30.0857 8.10799 30.1399C8.22509 30.1942 8.35261 30.2222 8.48166 30.2221H17.7501L17.1954 12.4443ZM21.7297 13.1874C21.6952 12.9799 21.5881 12.7913 21.4277 12.6552C21.2672 12.5192 21.0636 12.4444 20.8532 12.4443H18.7083L19.5163 30.2221H23.5208C23.6498 30.2221 23.7773 30.1939 23.8943 30.1396C24.0114 30.0853 24.1152 30.0062 24.1986 29.9078C24.282 29.8093 24.343 29.6939 24.3773 29.5695C24.4116 29.4451 24.4184 29.3147 24.3972 29.1874L21.7297 13.1874Z" fill="#D5DDE2"/>
<path d="M13.3342 1.86647C13.9233 1.86647 14.4009 1.62769 14.4009 1.33314C14.4009 1.03859 13.9233 0.799805 13.3342 0.799805C12.7451 0.799805 12.2676 1.03859 12.2676 1.33314C12.2676 1.62769 12.7451 1.86647 13.3342 1.86647Z" fill="#CCD6DD"/>
<path d="M18.6663 1.86647C19.2554 1.86647 19.7329 1.62769 19.7329 1.33314C19.7329 1.03859 19.2554 0.799805 18.6663 0.799805C18.0772 0.799805 17.5996 1.03859 17.5996 1.33314C17.5996 1.62769 18.0772 1.86647 18.6663 1.86647Z" fill="#CCD6DD"/>
<path d="M16.0003 3.6443C16.5894 3.6443 17.0669 3.40552 17.0669 3.11097C17.0669 2.81642 16.5894 2.57764 16.0003 2.57764C15.4112 2.57764 14.9336 2.81642 14.9336 3.11097C14.9336 3.40552 15.4112 3.6443 16.0003 3.6443Z" fill="#CCD6DD"/>
<path d="M22.2218 10.6665H9.77734V8.46919C9.77734 7.71897 10.3853 7.34741 11.1356 7.34741H20.8636C21.6138 7.34741 22.2218 7.71897 22.2218 8.46919V10.6665Z" fill="#66757F"/>
<path d="M20.8636 7.11108H11.1356C10.5516 7.11108 10.0573 7.48175 9.86534 7.99997H22.1329C21.9418 7.48175 21.4485 7.11108 20.8636 7.11108ZM9.77734 8.88886H22.2218V9.77775H9.77734V8.88886ZM9.77734 10.6666H22.2218V11.1111H9.77734V10.6666Z" fill="#CCD6DD"/>
</g>
<defs>
<clipPath id="clip0_266_4374">
<rect width="32" height="32" fill="white"/>
</clipPath>
</defs>
</svg>
