<svg width="32" height="32" viewBox="0 0 32 32" fill="none" xmlns="http://www.w3.org/2000/svg">
<path d="M16.2146 8.56277C15.9684 5.62321 18.1435 4.36721 18.1435 4.36721C15.3 4.46765 13.7933 6.87921 13.7933 6.87921C13.1249 5.72365 14.6342 3.31299 15.7213 2.68454C12.8786 2.78499 12.4591 4.56899 12.4591 4.56899C11.1231 2.25699 11.5435 0.473877 11.5435 0.473877C10.5471 1.04899 9.97286 2.3521 9.64041 3.59565L7.57997 1.22232C7.37552 2.15032 7.71952 4.04365 8.0893 5.63032C5.37375 4.03921 2.84219 5.49699 2.84219 5.49699C6.3533 6.55299 7.68664 8.8641 7.68664 8.8641C7.68664 8.8641 4.1773 7.80899 2.66797 10.2205C4.97641 10.1388 6.66797 10.6641 7.8733 11.3139C6.83952 11.5708 5.07775 11.1041 4.00219 12.5325C4.00219 12.5325 6.84486 12.4321 7.4253 13.4703C5.49464 14.0161 4.24752 15.4712 4.24752 15.4712C8.17819 14.7441 12.3569 16.9548 12.3569 16.9548L17.796 13.8152C16.8813 9.7201 20.1444 7.83565 20.1444 7.83565C17.7231 6.15121 16.2146 8.56277 16.2146 8.56277Z" fill="#5C913B"/>
<path d="M26.2752 20.3377C28.4867 24.168 27.3579 28.96 23.7534 31.0409C20.149 33.1217 15.4343 31.704 13.2236 27.8746L11.8112 25.4275C9.59963 21.5964 10.7294 16.8062 14.333 14.7253C17.9374 12.6444 22.6521 14.0613 24.8627 17.8915L26.2752 20.3377Z" fill="#FFAC33"/>
<path d="M27.1661 22.5457C26.9749 21.7713 26.6751 21.028 26.2754 20.3377L26.1101 20.0506V20.0515L24.3758 19.3155L24.9305 18.0079L24.8638 17.8915C23.0638 14.7715 19.6016 13.2542 16.4318 13.9217L15.7047 15.6337L14.0301 14.9226C11.1145 16.8088 9.9705 20.5395 11.1305 23.9253L12.0247 24.3048L11.6683 25.1457C11.7172 25.239 11.7589 25.3342 11.8132 25.4257L13.2256 27.8728C13.8117 28.8882 14.6045 29.7692 15.5527 30.4586L15.7563 29.9804L17.4905 30.7164L17.2025 31.3955C17.7902 31.639 18.4054 31.8097 19.0345 31.9039L19.2256 31.4533L20.4727 31.9822C21.5086 31.9399 22.5227 31.672 23.4443 31.1973L23.4292 31.191L24.1652 29.4568L25.2221 29.9048C25.6844 29.4456 26.0832 28.9267 26.4078 28.3617L24.9029 27.7217L25.6389 25.9875L27.1207 26.6159C27.2905 25.9937 27.3883 25.3475 27.4016 24.6897L26.3749 24.2542L27.1109 22.5199L27.1661 22.5457ZM21.6443 16.1075L23.3776 16.8444L22.6416 18.5777L20.9074 17.8417L21.6443 16.1075ZM21.9056 20.3128L21.1696 22.0462L19.4354 21.311L20.1714 19.5768L21.9056 20.3128ZM18.1749 14.6355L19.9092 15.3715L19.1723 17.1066L17.4381 16.3706L18.1749 14.6355ZM16.7029 18.1039L18.4372 18.8399L17.7012 20.5742L15.9678 19.8382L16.7029 18.1039ZM13.2345 16.6328L14.9678 17.3688L14.2318 19.1013L12.4985 18.3653L13.2345 16.6328ZM11.0265 21.8355L11.7625 20.1004L13.4967 20.8364L12.7598 22.5715L11.0265 21.8355ZM14.7563 27.511L13.0221 26.7759L13.7581 25.0417L15.4923 25.7777L14.7563 27.511ZM14.4941 23.3066L15.2309 21.5724L16.9652 22.3075L16.2283 24.0426L14.4941 23.3066ZM18.2238 28.983L16.4905 28.247L17.2265 26.5137L18.9598 27.2506L18.2238 28.983ZM17.9625 24.7786L18.6985 23.0435L20.4327 23.7804L19.6967 25.5155L17.9625 24.7786ZM21.6932 30.4568L19.9589 29.7208L20.6949 27.9866L22.4292 28.7226L21.6932 30.4568ZM23.1661 26.9866L21.4327 26.2515L22.1687 24.5164L23.9021 25.2524L23.1661 26.9866ZM24.6381 23.519L22.9038 22.783L23.6398 21.0497L25.3741 21.7848L24.6381 23.519Z" fill="#FFCC4D"/>
</svg>
