<svg width="32" height="32" viewBox="0 0 32 32" fill="none" xmlns="http://www.w3.org/2000/svg">
<path d="M32 23.9999C32 24.9429 31.6254 25.8473 30.9586 26.514C30.2918 27.1808 29.3874 27.5554 28.4444 27.5554H3.55556C2.61256 27.5554 1.70819 27.1808 1.0414 26.514C0.374602 25.8473 0 24.9429 0 23.9999V7.99989C0 7.0569 0.374602 6.15253 1.0414 5.48573C1.70819 4.81894 2.61256 4.44434 3.55556 4.44434H28.4444C29.3874 4.44434 30.2918 4.81894 30.9586 5.48573C31.6254 6.15253 32 7.0569 32 7.99989V23.9999Z" fill="#75AADB"/>
<path d="M0 11.5557H32V20.4446H0V11.5557Z" fill="#EEEEEE"/>
<path d="M15.9991 11.5557L16.4329 13.8206L17.7005 11.8943L17.2338 14.1521L19.1414 12.857L17.8462 14.7654L20.1049 14.2997L18.1787 15.5663L20.4436 16.0001L18.1787 16.4339L20.1049 17.7014L17.8462 17.2348L19.1414 19.1423L17.2338 17.8472L17.7005 20.1059L16.4329 18.1797L15.9991 20.4446L15.5654 18.1797L14.2987 20.1059L14.7645 17.8472L12.856 19.1423L14.1511 17.2348L11.8934 17.7014L13.8196 16.4339L11.5547 16.0001L13.8196 15.5663L11.8934 14.2997L14.1511 14.7654L12.856 12.857L14.7645 14.1521L14.2987 11.8943L15.5654 13.8206L15.9991 11.5557Z" fill="#FCBF49"/>
<path d="M15.9991 12.7379L16.2142 13.8623L16.3174 14.4001L16.6187 13.9432L17.248 12.9868L17.016 14.1077L16.9049 14.6446L17.3582 14.337L18.3058 13.6943L17.6631 14.6419L17.3556 15.0952L17.8916 14.9841L19.0134 14.753L18.0569 15.3823L17.5991 15.6819L18.1369 15.785L19.2614 16.0001L18.1369 16.2152L17.5991 16.3183L18.056 16.6197L19.0125 17.249L17.8907 17.017L17.3538 16.9059L17.6614 17.3592L18.304 18.3059L17.3574 17.6632L16.904 17.3557L17.0151 17.8926L17.2471 19.0143L16.6178 18.0579L16.3174 17.6001L16.2142 18.1379L15.9991 19.2623L15.784 18.1379L15.6809 17.6001L15.3796 18.0579L14.7502 19.0143L14.9814 17.8926L15.0925 17.3566L14.6391 17.6641L13.6916 18.3068L14.3342 17.3592L14.6418 16.9059L14.1049 17.017L12.984 17.249L13.9405 16.6197L14.3974 16.3183L13.8596 16.2152L12.7369 16.0001L13.8614 15.785L14.3991 15.6819L13.9414 15.3806L12.9849 14.7512L14.1058 14.9823L14.6418 15.0934L14.3342 14.6401L13.6907 13.6926L14.6382 14.3361L15.0916 14.6437L14.9805 14.1077L14.7494 12.9868L15.3787 13.9432L15.68 14.401L15.7831 13.8632L15.9991 12.7379ZM15.9991 11.5557L15.5654 13.8206L14.2987 11.8943L14.7645 14.153L12.856 12.8579L14.1511 14.7663L11.8934 14.3006L13.8196 15.5672L11.5547 16.0001L13.8196 16.4339L11.8934 17.7014L14.1511 17.2348L12.856 19.1423L14.7645 17.8472L14.2987 20.1059L15.5654 18.1797L15.9991 20.4446L16.4329 18.1797L17.7005 20.1059L17.2338 17.8472L19.1414 19.1423L17.8462 17.2348L20.1049 17.7014L18.1787 16.4339L20.4436 16.0001L18.1787 15.5663L20.1049 14.2997L17.8462 14.7654L19.1414 12.857L17.2338 14.1521L17.7005 11.8934L16.4329 13.8197L15.9991 11.5557Z" fill="#843511"/>
<path d="M16.0004 17.7777C16.9823 17.7777 17.7782 16.9818 17.7782 15.9999C17.7782 15.0181 16.9823 14.2222 16.0004 14.2222C15.0186 14.2222 14.2227 15.0181 14.2227 15.9999C14.2227 16.9818 15.0186 17.7777 16.0004 17.7777Z" fill="#FCBF49"/>
<path d="M16.0002 17.8889C14.9584 17.8889 14.1113 17.0418 14.1113 16C14.1113 14.9582 14.9584 14.1111 16.0002 14.1111C17.042 14.1111 17.8891 14.9582 17.8891 16C17.8891 17.0418 17.042 17.8889 16.0002 17.8889ZM16.0002 14.3333C15.0811 14.3333 14.3336 15.0809 14.3336 16C14.3336 16.9191 15.0811 17.6666 16.0002 17.6666C16.9193 17.6666 17.6669 16.9191 17.6669 16C17.6669 15.0809 16.9193 14.3333 16.0002 14.3333Z" fill="#843511"/>
<path d="M15.8225 15.7992C15.8225 15.937 15.5905 16.0481 15.3043 16.0481C15.0172 16.0481 14.7852 15.937 14.7852 15.7992C14.7852 15.6614 15.0172 15.5503 15.3043 15.5503C15.5905 15.5503 15.8225 15.6614 15.8225 15.7992ZM17.2029 15.7779C17.2029 15.6348 16.9665 15.5183 16.6749 15.5183C16.3834 15.5183 16.1469 15.6339 16.1469 15.7779C16.1469 15.9219 16.3834 16.0374 16.6749 16.0374C16.9674 16.0374 17.2029 15.921 17.2029 15.7779Z" fill="#C16540"/>
<path d="M15.5234 16.7768C15.5234 16.6648 15.7421 16.5732 16.0105 16.5732C16.2799 16.5732 16.4977 16.6639 16.4977 16.7768C16.4977 16.8888 16.279 16.9804 16.0105 16.9804C15.7412 16.9804 15.5234 16.8888 15.5234 16.7768Z" fill="#ED8662"/>
</svg>
