<svg width="32" height="32" viewBox="0 0 32 32" fill="none" xmlns="http://www.w3.org/2000/svg">
<g clip-path="url(#clip0_665_5974)">
<path d="M28.4444 4.44434H3.55556C3.37334 4.44434 3.19378 4.45767 3.01867 4.48434L3.01511 6.04345L0.588448 6.03989C0.20369 6.62108 -0.00100626 7.30289 3.71948e-06 7.99989V23.9999C3.71948e-06 24.9429 0.374606 25.8473 1.0414 26.514C1.7082 27.1808 2.61257 27.5554 3.55556 27.5554H28.4444C29.3874 27.5554 30.2918 27.1808 30.9586 26.514C31.6254 25.8473 32 24.9429 32 23.9999V7.99989C32 7.0569 31.6254 6.15253 30.9586 5.48573C30.2918 4.81894 29.3874 4.44434 28.4444 4.44434Z" fill="#00247D"/>
<path d="M7.99948 23.1315L6.91326 24.1351L7.02082 22.6595L5.55859 22.4364L6.77904 21.6009L6.04215 20.3182L7.45637 20.752L7.99948 19.3751L8.54348 20.752L9.9577 20.3182L9.21993 21.6009L10.4413 22.4364L8.97904 22.6595L9.08659 24.1351L7.99948 23.1315ZM24.8439 8.49953L24.1337 9.15553L24.2039 8.19019L23.2466 8.04441L24.0457 7.49775L23.5639 6.65864L24.4884 6.94219L24.8439 6.04175L25.2004 6.94219L26.1257 6.65864L25.643 7.49775L26.4413 8.04441L25.4848 8.19019L25.555 9.15553L24.8439 8.49953ZM21.2884 13.8329L20.5781 14.4897L20.6484 13.5244L19.691 13.3786L20.4901 12.8311L20.0084 11.992L20.9328 12.2755L21.2884 11.3751L21.6448 12.2755L22.5701 11.992L22.0875 12.8311L22.8857 13.3786L21.9293 13.5244L21.9995 14.4897L21.2884 13.8329ZM29.2884 12.0551L28.5782 12.712L28.6484 11.7466L27.691 11.6009L28.4901 11.0533L28.0084 10.2142L28.9328 10.4977L29.2884 9.5973L29.6448 10.4977L30.5701 10.2142L30.0875 11.0533L30.8857 11.6009L29.9293 11.7466L29.9995 12.712L29.2884 12.0551ZM24.8439 24.4995L24.1337 25.1564L24.2039 24.1911L23.2466 24.0453L24.0457 23.4977L23.5639 22.6586L24.4884 22.9422L24.8439 22.0417L25.2004 22.9422L26.1257 22.6586L25.643 23.4977L26.4413 24.0453L25.4848 24.1911L25.555 25.1564L24.8439 24.4995ZM27.555 14.2222L27.8164 14.752L28.4004 14.8364L27.9781 15.248L28.0777 15.8302L27.555 15.5555L27.0324 15.8302L27.1319 15.248L26.7097 14.8364L27.2937 14.752L27.555 14.2222Z" fill="white"/>
<path d="M16.8889 15.9999V4.44434H3.55556C3.27111 4.44434 3.01867 4.48434 3.01867 4.48434L3.01511 6.04345L0.588447 6.03989C0.588447 6.03989 0.551114 6.09234 0.475558 6.22211C0.163303 6.76251 -0.000743507 7.37577 2.53327e-06 7.99989V15.9999H16.8889Z" fill="#00247D"/>
<path d="M16.8889 4.44434H14.8169L10.6667 7.35011V4.44434H6.22222V6.72789L3.01867 4.48434C2.48431 4.56416 1.97565 4.76646 1.53244 5.07545L5.712 7.99989H4.16889L0.859556 5.68078C0.761962 5.79486 0.671423 5.91478 0.588444 6.03989L3.38933 7.99989H0V12.4443H3.45333L0 14.903V15.9999H2.96178L6.22222 13.7172V15.9999H10.6667V13.0941L14.816 15.9999H16.8889V14.1963L14.3867 12.4443H16.8889V7.99989H14.3876L16.8889 6.24789V4.44434Z" fill="#EEEEEE"/>
<path d="M9.77778 4.44434H7.11111V8.88878H0V11.5554H7.11111V15.9999H9.77778V11.5554H16.8889V8.88878H9.77778V4.44434Z" fill="#CF1B2B"/>
<path d="M16.8888 4.44434H15.5901L10.6666 7.89234V7.99989H12.063L16.8888 4.62034V4.44434ZM1.53234 5.07545C1.28349 5.24813 1.05741 5.45151 0.859455 5.68078L4.16879 7.99989H5.71101L1.53234 5.07545ZM5.72168 12.4443L0.652344 15.9999H2.18745L6.22212 13.175V12.4443H5.72168ZM16.8888 15.8239V14.7394L13.6115 12.4443H12.0621L16.8888 15.8239Z" fill="#CF1B2B"/>
</g>
<defs>
<clipPath id="clip0_665_5974">
<rect width="32" height="32" fill="white"/>
</clipPath>
</defs>
</svg>
