<svg width="32" height="32" viewBox="0 0 32 32" fill="none" xmlns="http://www.w3.org/2000/svg">
<g clip-path="url(#clip0_665_6126)">
<path d="M3.55556 4.44446C2.61256 4.44446 1.70819 4.81906 1.0414 5.48586C0.374602 6.15265 0 7.05702 0 8.00001L0 24C0 24.943 0.374602 25.8474 1.0414 26.5142C1.70819 27.181 2.61256 27.5556 3.55556 27.5556H10.6667V4.44446H3.55556Z" fill="#141414"/>
<path d="M10.666 4.44446H21.3327V27.5556H10.666V4.44446Z" fill="#FEE833"/>
<path d="M28.4451 4.44446H21.334V27.5556H28.4451C29.3881 27.5556 30.2925 27.181 30.9593 26.5142C31.626 25.8474 32.0007 24.943 32.0007 24V8.00001C32.0007 7.05702 31.626 6.15265 30.9593 5.48586C30.2925 4.81906 29.3881 4.44446 28.4451 4.44446Z" fill="#EE232C"/>
</g>
<defs>
<clipPath id="clip0_665_6126">
<rect width="32" height="32" fill="white"/>
</clipPath>
</defs>
</svg>
