<svg width="32" height="32" viewBox="0 0 32 32" fill="none" xmlns="http://www.w3.org/2000/svg">
<path d="M28.4444 4.44446H8.15733L7.56622 4.87468L7.89067 5.8729L7.04089 5.25512L6.19111 5.8729L6.51556 4.87468L5.92444 4.44446H3.55556C2.61256 4.44446 1.70819 4.81906 1.0414 5.48586C0.374602 6.15265 0 7.05702 0 8.00001L0 24C0 24.943 0.374602 25.8474 1.0414 26.5142C1.70819 27.181 2.61256 27.5556 3.55556 27.5556H21.0889L21.1822 27.2676L20.3333 26.6498H21.3831L21.7076 25.6516L22.032 26.6498H23.0818L22.2329 27.2676L22.3262 27.5556H28.4444C29.3874 27.5556 30.2918 27.181 30.9586 26.5142C31.6254 25.8474 32 24.943 32 24V8.00001C32 7.05702 31.6254 6.15265 30.9586 5.48586C30.2918 4.81906 29.3874 4.44446 28.4444 4.44446Z" fill="#2D3189"/>
<path d="M6.19049 5.8729L7.04027 5.25512L7.88916 5.8729L7.56561 4.87468L8.15672 4.44446H5.92383L6.51494 4.87468L6.19049 5.8729ZM23.0812 26.6498H22.0314L21.7069 25.6525L21.3825 26.6498H20.3327L21.1816 27.2676L21.0883 27.5556H22.3256L22.2314 27.2676L23.0812 26.6498ZM8.88738 6.05779L9.21094 7.05601H10.2616L9.41183 7.67379L9.73627 8.67201L8.88738 8.05424L8.03761 8.67201L8.36205 7.67379L7.51316 7.05601H8.56205L8.88738 6.05779ZM10.7265 8.85779L11.0509 9.85512H12.1016L11.2518 10.4729L11.5763 11.4711L10.7265 10.8542L9.87761 11.4711L10.2021 10.4729L9.35227 9.85512H10.4021L10.7265 8.85779ZM12.5523 11.656L12.8767 12.6542H13.9265L13.0767 13.272L13.4012 14.2702L12.5523 13.6525L11.7025 14.2702L12.0269 13.272L11.1781 12.6542H12.2278L12.5523 11.656ZM14.3843 14.456L14.7087 15.4542H15.7585L14.9096 16.0711L15.2341 17.0693L14.3843 16.4525L13.5354 17.0693L13.8598 16.0711L13.0101 15.4542H14.0598L14.3843 14.456ZM16.2163 17.2551L16.5407 18.2533H17.5914L16.7416 18.8702L17.0661 19.8693L16.2163 19.2516L15.3674 19.8693L15.6918 18.8702L14.8429 18.2533H15.8927L16.2163 17.2551ZM18.0492 20.0542L18.3736 21.0525H19.4234L18.5745 21.6693L18.8981 22.6676L18.0492 22.0507L17.2003 22.6676L17.5238 21.6693L16.6749 21.0525H17.7247L18.0492 20.0542ZM19.874 22.8525L20.1985 23.8516H21.2492L20.3994 24.4685L20.7238 25.4667L19.874 24.8498L19.0252 25.4667L19.3496 24.4685L18.4998 23.8516H19.5496L19.874 22.8525Z" fill="#E1E8ED"/>
<path d="M24.8885 27.5556V4.44446H9.77734L24.8885 27.5556Z" fill="#FBD116"/>
</svg>
