<svg width="32" height="32" viewBox="0 0 32 32" fill="none" xmlns="http://www.w3.org/2000/svg">
<path d="M32 23.9999C32 24.9429 31.6254 25.8473 30.9586 26.514C30.2918 27.1808 29.3874 27.5554 28.4444 27.5554H3.55556C2.61256 27.5554 1.70819 27.1808 1.0414 26.514C0.374602 25.8473 0 24.9429 0 23.9999V7.99989C0 7.0569 0.374602 6.15253 1.0414 5.48573C1.70819 4.81894 2.61256 4.44434 3.55556 4.44434H28.4444C29.3874 4.44434 30.2918 4.81894 30.9586 5.48573C31.6254 6.15253 32 7.0569 32 7.99989V23.9999Z" fill="#009B3A"/>
<path d="M29.0913 16L15.9998 25.888L2.9082 16L15.9998 6.11108L29.0913 16Z" fill="#FEDF01"/>
<path d="M15.9787 21.6728C19.1491 21.6728 21.7192 19.1027 21.7192 15.9323C21.7192 12.762 19.1491 10.1919 15.9787 10.1919C12.8084 10.1919 10.2383 12.762 10.2383 15.9323C10.2383 19.1027 12.8084 21.6728 15.9787 21.6728Z" fill="#002776"/>
<path d="M10.9137 13.233C10.6156 13.7948 10.4137 14.4027 10.3164 15.0312C13.8675 14.7734 18.6871 16.7121 20.7555 19.1157C21.1129 18.5788 21.3777 17.9779 21.5404 17.3343C18.9875 14.8383 14.5031 13.2188 10.9137 13.233Z" fill="#CBE9D4"/>
<path d="M10.666 16.207H11.5549V17.0959H10.666V16.207ZM11.5549 17.9848H12.4438V18.8737H11.5549V17.9848Z" fill="#88C9F9"/>
<path d="M13.334 16.2072H14.2229V17.0961H13.334V16.2072ZM15.1118 17.0961H16.0007V17.985H15.1118V17.0961ZM18.6673 18.8739H19.5562V19.7628H18.6673V18.8739ZM16.0007 19.7628H16.8895V20.6517H16.0007V19.7628ZM18.6673 14.4294H19.5562V15.3183H18.6673V14.4294Z" fill="#55ACEE"/>
<path d="M16.8887 17.9849H17.7776V18.8738H16.8887V17.9849Z" fill="#3B88C3"/>
</svg>
