<svg width="32" height="32" viewBox="0 0 32 32" fill="none" xmlns="http://www.w3.org/2000/svg">
<path d="M28.4444 4.44434H3.55556C2.61256 4.44434 1.70819 4.81894 1.0414 5.48573C0.374602 6.15253 0 7.0569 0 7.99989L0 12.4443H32V7.99989C32 7.0569 31.6254 6.15253 30.9586 5.48573C30.2918 4.81894 29.3874 4.44434 28.4444 4.44434Z" fill="#EEEEEE"/>
<path d="M0 24.0001C0 24.9431 0.374602 25.8475 1.0414 26.5143C1.70819 27.1811 2.61256 27.5557 3.55556 27.5557H28.4444C29.3874 27.5557 30.2918 27.1811 30.9586 26.5143C31.6254 25.8475 32 24.9431 32 24.0001V19.5557H0V24.0001Z" fill="#D62612"/>
<path d="M0 12.4443H32V19.5554H0V12.4443Z" fill="#00966E"/>
</svg>
