<svg width="32" height="32" viewBox="0 0 32 32" fill="none" xmlns="http://www.w3.org/2000/svg">
<path d="M3.55556 4.44434C2.61256 4.44434 1.70819 4.81894 1.0414 5.48573C0.374602 6.15253 0 7.0569 0 7.99989L0 23.9999C0 24.9429 0.374602 25.8473 1.0414 26.514C1.70819 27.1808 2.61256 27.5554 3.55556 27.5554H8.88889V4.44434H3.55556ZM28.4444 4.44434H23.1111V27.5554H28.4444C29.3874 27.5554 30.2918 27.1808 30.9586 26.514C31.6254 25.8473 32 24.9429 32 23.9999V7.99989C32 7.0569 31.6254 6.15253 30.9586 5.48573C30.2918 4.81894 29.3874 4.44434 28.4444 4.44434Z" fill="#D52B1E"/>
<path d="M8.88867 4.44434H23.1109V27.5554H8.88867V4.44434Z" fill="#EEEEEE"/>
<path d="M16.5461 19.6561C17.611 19.7797 18.5657 19.8908 19.6297 20.0126L19.3586 19.1219C19.3386 19.0452 19.3414 18.9645 19.3665 18.8894C19.3915 18.8142 19.4379 18.748 19.4999 18.6988L22.5924 16.1797L21.9524 15.8783C21.6706 15.7779 21.7479 15.6188 21.8501 15.2366L22.3221 13.5157L20.5257 13.8952C20.3506 13.9219 20.2341 13.8108 20.2075 13.7041L19.9755 12.8943L18.555 14.489C18.3532 14.745 17.9444 14.745 18.0715 14.1548L18.6786 10.9246L17.8635 11.3468C17.635 11.4748 17.4066 11.4961 17.2795 11.2677L16.155 9.16455L15.0306 11.2677C14.9026 11.4961 14.6741 11.4748 14.4457 11.3468L13.6315 10.9246L14.2386 14.1548C14.3666 14.745 13.9568 14.745 13.755 14.489L12.3346 12.8952L12.1035 13.705C12.0768 13.8117 11.9595 13.9228 11.7844 13.8961L9.98791 13.5166L10.4599 15.2374C10.5604 15.6197 10.6386 15.7788 10.3568 15.8792L9.7168 16.1805L12.8092 18.6997C12.9319 18.7948 12.9941 18.9663 12.9497 19.1228L12.6786 20.0134L15.763 19.657C15.8572 19.657 15.9195 19.7094 15.9186 19.8179L15.7284 23.1103H16.5781L16.3888 19.8179C16.3906 19.7086 16.4519 19.6561 16.5461 19.6561Z" fill="#D52B1E"/>
</svg>
