<svg width="32" height="32" viewBox="0 0 32 32" fill="none" xmlns="http://www.w3.org/2000/svg">
<path d="M11.5556 4.44434H3.55556C2.61256 4.44434 1.70819 4.81894 1.0414 5.48573C0.374602 6.15253 0 7.0569 0 7.99989L0 15.9999H11.5556V4.44434ZM7.41067 12.7039L5.73778 11.4888L4.06489 12.7039L4.704 10.7377L3.03111 9.52167H5.09867L5.73778 7.55545L6.37689 9.52167H8.44444L6.77156 10.7377L7.41067 12.7039Z" fill="#1F429B"/>
<path d="M28.4436 4.44434H11.5547V15.9999H31.9991V7.99989C31.9991 7.0569 31.6245 6.15253 30.9577 5.48573C30.2909 4.81894 29.3866 4.44434 28.4436 4.44434Z" fill="#EEEEEE"/>
<path d="M0 16V24C0 24.943 0.374602 25.8474 1.0414 26.5142C1.70819 27.181 2.61256 27.5556 3.55556 27.5556H28.4444C29.3874 27.5556 30.2918 27.181 30.9586 26.5142C31.6254 25.8474 32 24.943 32 24V16H0Z" fill="#D42D27"/>
<path d="M6.37703 9.52189L5.73792 7.55566L5.09881 9.52189H3.03125L4.70414 10.7379L4.06503 12.7041L5.73792 11.489L7.41081 12.7041L6.77169 10.7379L8.44458 9.52189H6.37703Z" fill="white"/>
</svg>
