<svg width="32" height="32" viewBox="0 0 32 32" fill="none" xmlns="http://www.w3.org/2000/svg">
<path d="M32 24C32 24.943 31.6254 25.8474 30.9586 26.5142C30.2918 27.181 29.3874 27.5556 28.4444 27.5556H3.55556C2.61256 27.5556 1.70819 27.181 1.0414 26.5142C0.374602 25.8474 0 24.943 0 24V8.00001C0 7.05702 0.374602 6.15265 1.0414 5.48586C1.70819 4.81906 2.61256 4.44446 3.55556 4.44446H28.4444C29.3874 4.44446 30.2918 4.81906 30.9586 5.48586C31.6254 6.15265 32 7.05702 32 8.00001V24Z" fill="#DE2910"/>
<path d="M9.89899 7.97951L10.5532 8.29596L11.0768 7.79285L10.9781 8.51285L11.6181 8.85596L10.9034 8.98396L10.7754 9.69862L10.4323 9.05862L9.71232 9.15729L10.2154 8.63374L9.89899 7.97951ZM14.0457 10.5937L13.7292 11.2471L14.2323 11.7715L13.5132 11.672L13.1701 12.3128L13.0421 11.5973L12.3265 11.4693L12.9674 11.1262L12.8679 10.4071L13.3923 10.9102L14.0457 10.5937ZM13.195 13.9528L13.4332 14.6391L14.1594 14.6542L13.5808 15.0924L13.7914 15.7884L13.195 15.3733L12.5985 15.7884L12.8083 15.0924L12.2297 14.6542L12.9559 14.6391L13.195 13.9528ZM9.89899 16.8684L10.5532 17.1848L11.0768 16.6817L10.9781 17.4017L11.6181 17.7448L10.9034 17.8728L10.7754 18.5875L10.4323 17.9475L9.71232 18.0462L10.2154 17.5226L9.89899 16.8684ZM6.22254 9.73418L7.04832 12.1084L9.56032 12.16L7.55765 13.6782L8.28565 16.0835L6.22254 14.648L4.15943 16.0835L4.88743 13.6782L2.88477 12.16L5.39677 12.1084L6.22254 9.73418Z" fill="#FFDE02"/>
</svg>
