<svg width="32" height="32" viewBox="0 0 32 32" fill="none" xmlns="http://www.w3.org/2000/svg">
<path d="M0 11.4666H32V20.5332H0V11.4666Z" fill="#EEEEEE"/>
<path d="M32 23.9999C32 24.9429 31.6254 25.8473 30.9586 26.514C30.2918 27.1808 29.3874 27.5554 28.4444 27.5554H3.55556C2.61256 27.5554 1.70819 27.1808 1.0414 26.514C0.374602 25.8473 0 24.9429 0 23.9999V20.4443H32V23.9999Z" fill="#171796"/>
<path d="M28.4444 4.44434H3.55556C2.61256 4.44434 1.70819 4.81894 1.0414 5.48573C0.374602 6.15253 0 7.0569 0 7.99989L0 11.5554H32V7.99989C32 7.0569 31.6254 6.15253 30.9586 5.48573C30.2918 4.81894 29.3874 4.44434 28.4444 4.44434Z" fill="#D52B1E"/>
<path d="M10.1406 6.60986V16.8623C10.1406 18.4161 10.7579 19.9063 11.8566 21.005C12.9553 22.1037 14.4455 22.721 15.9993 22.721C17.5531 22.721 19.0433 22.1037 20.142 21.005C21.2407 19.9063 21.858 18.4161 21.858 16.8623V6.60986H10.1406Z" fill="#D52B1E"/>
<path d="M12.6668 16.0001H14.889V18.2223H12.6668V16.0001ZM14.889 18.2223H17.1113V20.4446H14.889V18.2223ZM14.889 13.7779H17.1113V16.0001H14.889V13.7779ZM17.1113 16.0001H19.3335V18.2223H17.1113V16.0001ZM17.1113 11.5557H19.3335V13.7779H17.1113V11.5557ZM19.3335 13.7779H21.4144V16.0001H19.3335V13.7779ZM12.6668 11.5557H14.889V13.7779H12.6668V11.5557ZM19.3335 20.4446H20.049C20.6138 19.8075 21.0201 19.0461 21.2348 18.2223H19.3335V20.4446ZM17.1113 20.4446V22.161C17.9221 21.9892 18.6825 21.633 19.3335 21.1201V20.4446H17.1113ZM12.6668 20.4446V18.2223H10.7655C10.9799 19.0463 11.3862 19.8078 11.9513 20.4446H12.6668ZM10.5859 13.7779H12.6668V16.0001H10.5859V13.7779ZM12.6668 20.4446V21.1201C13.3179 21.633 14.0782 21.9892 14.889 22.161V20.4446H12.6668Z" fill="white"/>
<path d="M22.006 7.23656L20.23 7.93967L19.0496 6.44456L17.4238 7.44545L15.9998 6.177L14.5749 7.44634L12.9518 6.44367L11.7687 7.94056L9.99538 7.23567L8.99805 9.08456L10.1812 11.6286L10.3376 11.5557C11.0309 11.233 11.7625 10.9672 12.5092 10.7663L12.5447 10.7566C13.2795 10.5594 14.0298 10.4253 14.7874 10.3557L14.8443 10.3503C15.4709 10.297 16.5296 10.297 17.1563 10.3503L17.2078 10.3548C17.9403 10.4206 18.6994 10.5557 19.462 10.7574L19.4914 10.7654C20.2345 10.9654 20.9652 11.2312 21.6612 11.5557L21.8167 11.6286L22.9998 9.08545L22.006 7.23656Z" fill="#171796"/>
<path d="M14.789 7.71641L14.9855 9.99463C15.2788 9.97152 15.6335 9.94929 15.9997 9.94929C16.3659 9.94929 16.7206 9.97152 17.0139 9.99463L17.2104 7.71641L15.9997 6.63818L14.789 7.71641ZM21.8477 7.6693L20.3384 8.26752L19.7446 10.48C20.3944 10.6631 21.0335 10.896 21.6504 11.1724L22.6157 9.09596L21.8477 7.6693ZM10.1526 7.66752L9.38281 9.09507L10.349 11.1715C10.9624 10.896 11.6015 10.6631 12.2548 10.4791L11.6593 8.26574L10.1526 7.66752Z" fill="#0193DD"/>
</svg>
