<svg width="32" height="32" viewBox="0 0 32 32" fill="none" xmlns="http://www.w3.org/2000/svg">
<path d="M1.22852 26.6427C1.85846 27.2335 2.69106 27.5603 3.55474 27.5556H28.4436C30.4072 27.5556 31.9992 25.9636 31.9992 23.5556V16H15.5547L1.22852 26.6427Z" fill="#D7141A"/>
<path d="M28.444 4.44446H3.55512C2.68803 4.44423 1.85105 4.76245 1.20312 5.33868L15.5551 16H31.9996V8.00001C31.9996 7.05702 31.625 6.15265 30.9582 5.48586C30.2914 4.81906 29.387 4.44446 28.444 4.44446Z" fill="#EEEEEE"/>
<path d="M1.22933 26.6426L15.5556 16L1.20356 5.33862C0.825267 5.67116 0.522243 6.08054 0.314702 6.53946C0.107161 6.99838 -0.000125949 7.49629 1.10961e-07 7.99996V23.5555C1.10961e-07 24.8711 0.477333 25.9404 1.22933 26.6426Z" fill="#11457E"/>
</svg>
