<svg width="32" height="32" viewBox="0 0 32 32" fill="none" xmlns="http://www.w3.org/2000/svg">
<g clip-path="url(#clip0_665_6113)">
<path d="M28.4449 4.44446H18.2227V13.7778H32.0004V8.00001C32.0004 7.05702 31.6258 6.15265 30.959 5.48586C30.2922 4.81906 29.3879 4.44446 28.4449 4.44446Z" fill="#EEEEEE"/>
<path d="M18.2222 4.44446H13.7778V13.7778H0V18.2222H13.7778V27.5556H18.2222V18.2222H32V13.7778H18.2222V4.44446Z" fill="#E8112D"/>
<path d="M25.7029 8.52003C25.7303 7.96506 25.7959 7.41263 25.8994 6.8667C25.3769 6.93159 24.8485 6.93159 24.326 6.8667C24.43 7.41337 24.4949 7.96625 24.5225 8.52003C23.9675 8.49268 23.4151 8.42704 22.8691 8.32359C22.934 8.84603 22.934 9.37448 22.8691 9.89692C23.4151 9.79341 23.9675 9.72777 24.5225 9.70048C24.4951 10.2555 24.4295 10.8079 24.326 11.3538C24.8485 11.2889 25.3769 11.2889 25.8994 11.3538C25.7959 10.8079 25.7302 10.2555 25.7029 9.70048C26.2579 9.72783 26.8103 9.79347 27.3563 9.89692C27.2914 9.37448 27.2914 8.84603 27.3563 8.32359C26.8087 8.42848 26.2567 8.49337 25.7029 8.52003Z" fill="#E8112D"/>
<path d="M13.7778 4.44446H3.55556C2.61256 4.44446 1.70819 4.81906 1.0414 5.48586C0.374602 6.15265 0 7.05702 0 8.00001L0 13.7778H13.7778V4.44446Z" fill="#EEEEEE"/>
<path d="M7.48026 8.52003C7.50761 7.96506 7.57325 7.41263 7.67671 6.8667C7.15427 6.93159 6.62581 6.93159 6.10337 6.8667C6.20737 7.41337 6.27226 7.96625 6.29982 8.52003C5.74484 8.49268 5.19242 8.42704 4.64648 8.32359C4.71137 8.84603 4.71137 9.37448 4.64648 9.89692C5.19241 9.79341 5.74484 9.72777 6.29982 9.70048C6.27247 10.2555 6.20683 10.8079 6.10337 11.3538C6.62581 11.2889 7.15427 11.2889 7.67671 11.3538C7.57319 10.8079 7.50756 10.2555 7.48026 9.70048C8.03524 9.72783 8.58766 9.79347 9.13359 9.89692C9.0687 9.37448 9.0687 8.84603 9.13359 8.32359C8.58604 8.42848 8.03404 8.49337 7.48026 8.52003Z" fill="#E8112D"/>
<path d="M32.0004 23.9999V18.2222H18.2227V27.5555H28.4449C29.3879 27.5555 30.2922 27.1809 30.959 26.5141C31.6258 25.8473 32.0004 24.9429 32.0004 23.9999Z" fill="#EEEEEE"/>
<path d="M25.7029 23.48C25.7305 24.0338 25.7954 24.5858 25.8994 25.1334C25.3769 25.0685 24.8485 25.0685 24.326 25.1334C24.43 24.5867 24.4949 24.0338 24.5225 23.48C23.9675 23.5074 23.4151 23.573 22.8691 23.6765C22.934 23.154 22.934 22.6256 22.8691 22.1031C23.4158 22.2071 23.9687 22.272 24.5225 22.2996C24.4951 21.7446 24.4295 21.1922 24.326 20.6462C24.8485 20.7111 25.3769 20.7111 25.8994 20.6462C25.7959 21.1922 25.7302 21.7446 25.7029 22.2996C26.2579 22.2722 26.8103 22.2066 27.3563 22.1031C27.2914 22.6256 27.2914 23.154 27.3563 23.6765C26.8105 23.5721 26.258 23.5065 25.7029 23.48Z" fill="#E8112D"/>
<path d="M13.7778 18.2222H0V23.9999C0 24.9429 0.374602 25.8473 1.0414 26.5141C1.70819 27.1809 2.61256 27.5555 3.55556 27.5555H13.7778V18.2222Z" fill="#EEEEEE"/>
<path d="M7.48026 23.48C7.50782 24.0338 7.57271 24.5858 7.67671 25.1334C7.15427 25.0685 6.62581 25.0685 6.10337 25.1334C6.20737 24.5867 6.27226 24.0338 6.29982 23.48C5.74484 23.5074 5.19242 23.573 4.64648 23.6765C4.71137 23.154 4.71137 22.6256 4.64648 22.1031C5.19315 22.2071 5.74604 22.272 6.29982 22.2996C6.27247 21.7446 6.20683 21.1922 6.10337 20.6462C6.62581 20.7111 7.15427 20.7111 7.67671 20.6462C7.57319 21.1922 7.50756 21.7446 7.48026 22.2996C8.03524 22.2722 8.58766 22.2066 9.13359 22.1031C9.0687 22.6256 9.0687 23.154 9.13359 23.6765C8.5878 23.5721 8.03531 23.5065 7.48026 23.48Z" fill="#E8112D"/>
</g>
<defs>
<clipPath id="clip0_665_6113">
<rect width="32" height="32" fill="white"/>
</clipPath>
</defs>
</svg>
