<svg width="32" height="32" viewBox="0 0 32 32" fill="none" xmlns="http://www.w3.org/2000/svg">
<path d="M3.55594 27.5555H28.4448C29.0466 27.5561 29.6386 27.4031 30.1648 27.1111H1.83594C2.36214 27.4031 2.95413 27.5561 3.55594 27.5555Z" fill="#0D5EB0"/>
<path d="M7.55556 17.3334H0V19.5557H32V17.3334H12.4444H7.55556ZM0 24.0001C0 24.1512 0.0124444 24.2988 0.0311111 24.4446H31.9698C31.9876 24.2988 32 24.1512 32 24.0001V22.2223H0V24.0001ZM12.4444 12.4446H32V14.6668H12.4444V12.4446ZM12.4444 7.55566V9.77789H32V8.00011C32 7.849 31.9876 7.70144 31.9689 7.55566H12.4444Z" fill="#EEEEEE"/>
<path d="M12.4444 9.77767H32V12.4443H12.4444V9.77767ZM0 19.5554H32V22.2221H0V19.5554ZM1.83556 27.111H30.1644C30.6539 26.8398 31.0725 26.457 31.3861 25.9937C31.6998 25.5303 31.8998 24.9995 31.9698 24.4443H0.0311111C0.10073 24.9995 0.300446 25.5304 0.614003 25.9938C0.92756 26.4571 1.3461 26.8399 1.83556 27.111ZM0 12.4443H4.88889V17.3332H0V12.4443ZM12.4444 14.6666V12.4443H7.55556V17.3332H32V14.6666H12.4444ZM30.1644 4.88878C29.6382 4.59675 29.0462 4.44378 28.4444 4.44434H3.55556C2.69005 4.44529 1.85457 4.76175 1.20563 5.33444C0.556683 5.90714 0.138789 6.69677 0.0302222 7.55545C0.0124444 7.70123 0 7.84878 0 7.99989V9.77767H4.88889V4.88878H7.55556V9.77767H12.4444V7.55545H31.9689C31.8993 7.00029 31.6996 6.46942 31.386 6.00604C31.0724 5.54265 30.6539 5.15985 30.1644 4.88878Z" fill="#0D5EB0"/>
<path d="M7.55556 9.77767V4.44434H4.88889V9.77767H0V12.4443H4.88889V17.3332H7.55556V12.4443H12.4444V9.77767H7.55556Z" fill="#EEEEEE"/>
</svg>
