<svg width="32" height="32" viewBox="0 0 32 32" fill="none" xmlns="http://www.w3.org/2000/svg">
<path d="M0 23.9999C0 24.9429 0.374602 25.8473 1.0414 26.514C1.70819 27.1808 2.61256 27.5554 3.55556 27.5554H28.4444C29.3874 27.5554 30.2918 27.1808 30.9586 26.514C31.6254 25.8473 32 24.9429 32 23.9999V20.4443H0V23.9999Z" fill="#138808"/>
<path d="M0 11.5557H32V20.4446H0V11.5557Z" fill="#EEEEEE"/>
<path d="M32 11.5554V7.99989C32 7.0569 31.6254 6.15253 30.9586 5.48573C30.2918 4.81894 29.3874 4.44434 28.4444 4.44434H3.55556C2.61256 4.44434 1.70819 4.81894 1.0414 5.48573C0.374602 6.15253 0 7.0569 0 7.99989L0 11.5554H32Z" fill="#FF9933"/>
<path d="M16.0009 19.5554C17.9645 19.5554 19.5564 17.9636 19.5564 15.9999C19.5564 14.0362 17.9645 12.4443 16.0009 12.4443C14.0372 12.4443 12.4453 14.0362 12.4453 15.9999C12.4453 17.9636 14.0372 19.5554 16.0009 19.5554Z" fill="#000080"/>
<path d="M16.0007 18.6666C17.4734 18.6666 18.6673 17.4727 18.6673 15.9999C18.6673 14.5272 17.4734 13.3333 16.0007 13.3333C14.5279 13.3333 13.334 14.5272 13.334 15.9999C13.334 17.4727 14.5279 18.6666 16.0007 18.6666Z" fill="#EEEEEE"/>
<path d="M16.0007 13.3333L16.1304 15.3457L17.0202 13.5368L16.3713 15.4453L17.886 14.1137L16.5553 15.6293L18.4638 14.9795L16.6549 15.8701L18.6673 15.9999L16.6549 16.1297L18.4638 17.0195L16.5553 16.3706L17.886 17.8853L16.3713 16.5546L17.0202 18.463L16.1304 16.6541L16.0007 18.6666L15.8709 16.6541L14.9802 18.463L15.63 16.5546L14.1144 17.8853L15.446 16.3706L13.5375 17.0195L15.3464 16.1297L13.334 15.9999L15.3464 15.8701L13.5375 14.9795L15.446 15.6293L14.1144 14.1137L15.63 15.4453L14.9802 13.5368L15.8709 15.3457L16.0007 13.3333Z" fill="#6666B3"/>
<path d="M16.0002 16.8889C16.4911 16.8889 16.8891 16.4909 16.8891 16C16.8891 15.5091 16.4911 15.1111 16.0002 15.1111C15.5093 15.1111 15.1113 15.5091 15.1113 16C15.1113 16.4909 15.5093 16.8889 16.0002 16.8889Z" fill="#000080"/>
</svg>
