<svg width="32" height="32" viewBox="0 0 32 32" fill="none" xmlns="http://www.w3.org/2000/svg">
<path d="M0 23.9999C0 24.9429 0.374602 25.8473 1.0414 26.514C1.70819 27.1808 2.61256 27.5554 3.55556 27.5554H28.4444C29.3874 27.5554 30.2918 27.1808 30.9586 26.514C31.6254 25.8473 32 24.9429 32 23.9999V20.4443H0V23.9999Z" fill="#DA0001"/>
<path d="M0 11.5557H32V20.4446H0V11.5557Z" fill="#EEEEEE"/>
<path d="M32 11.5554V7.99989C32 7.0569 31.6254 6.15253 30.9586 5.48573C30.2918 4.81894 29.3874 4.44434 28.4444 4.44434H3.55556C2.61256 4.44434 1.70819 4.81894 1.0414 5.48573C0.374602 6.15253 0 7.0569 0 7.99989L0 11.5554H32Z" fill="#239F40"/>
<path d="M0 20.4443H32V21.3332H0V20.4443Z" fill="#E96667"/>
<path d="M17.302 13.3058C18.1526 13.7414 20.0024 15.9307 18.0113 18.4001C19.2478 18.1263 20.822 14.4818 17.302 13.3058ZM14.6913 13.3058C11.1722 14.4818 12.7455 18.1263 13.982 18.4001C11.9909 15.9307 13.8406 13.7414 14.6913 13.3058ZM15.9829 13.1787C16.0184 13.3538 16.9615 13.5663 16.8486 12.6694C16.6993 13.0321 16.2673 13.0214 15.9882 12.8534C15.6042 13.0676 15.246 13.0152 15.11 12.6516C14.9784 13.3218 15.6318 13.5183 15.9829 13.1787Z" fill="#BE1931"/>
<path d="M18.2555 15.9148C18.2422 14.8054 17.6537 13.8241 17.0742 13.4268C17.4564 13.8952 18.6315 16.481 16.3764 18.1832L16.4182 13.6526L15.9959 13.281L15.5737 13.6348L15.6448 18.209L15.6288 18.1957C13.3506 16.4943 14.5328 13.8961 14.9159 13.4268C14.3364 13.8241 13.747 14.8054 13.7346 15.9148C13.723 16.8668 14.1586 17.9086 15.3648 18.7637C14.8778 18.8892 14.3762 18.9492 13.8733 18.9423C14.2857 19.1672 15.0644 19.113 15.6573 19.0588L15.6582 19.1192L16.0119 19.5077L16.3675 19.1032V19.057C16.9648 19.1121 17.7604 19.1717 18.1799 18.9432C17.6604 18.9518 17.1423 18.8881 16.6404 18.7539C17.835 17.8997 18.267 16.8632 18.2555 15.9148Z" fill="#BE1931"/>
<path d="M0 10.6667H32V11.5556H0V10.6667Z" fill="#7BC58C"/>
</svg>
