<svg width="32" height="32" viewBox="0 0 32 32" fill="none" xmlns="http://www.w3.org/2000/svg">
<path d="M32 24C32 24.943 31.6254 25.8474 30.9586 26.5142C30.2918 27.181 29.3874 27.5556 28.4444 27.5556H3.55556C2.61256 27.5556 1.70819 27.181 1.0414 26.5142C0.374602 25.8474 0 24.943 0 24V8.00001C0 7.05702 0.374602 6.15265 1.0414 5.48586C1.70819 4.81906 2.61256 4.44446 3.55556 4.44446H28.4444C29.3874 4.44446 30.2918 4.81906 30.9586 5.48586C31.6254 6.15265 32 7.05702 32 8.00001V24Z" fill="#EEEEEE"/>
<path d="M15.9996 22.2223C19.436 22.2223 22.2218 19.4365 22.2218 16.0001C22.2218 12.5636 19.436 9.77783 15.9996 9.77783C12.5631 9.77783 9.77734 12.5636 9.77734 16.0001C9.77734 19.4365 12.5631 22.2223 15.9996 22.2223Z" fill="#ED1B2F"/>
</svg>
