<svg width="32" height="32" viewBox="0 0 32 32" fill="none" xmlns="http://www.w3.org/2000/svg">
<path d="M32 24C32 24.943 31.6254 25.8474 30.9586 26.5142C30.2918 27.181 29.3874 27.5556 28.4444 27.5556H3.55556C2.61256 27.5556 1.70819 27.181 1.0414 26.5142C0.374602 25.8474 0 24.943 0 24V8.00001C0 7.05702 0.374602 6.15265 1.0414 5.48586C1.70819 4.81906 2.61256 4.44446 3.55556 4.44446H28.4444C29.3874 4.44446 30.2918 4.81906 30.9586 5.48586C31.6254 6.15265 32 7.05702 32 8.00001V24Z" fill="#ED1C23"/>
<path d="M0 11.5555H32V20.4444H0V11.5555Z" fill="#EEEEEE"/>
<path d="M15.1043 11.7369C14.9416 11.9174 14.5576 12.1689 14.4705 12.3405C14.3834 12.5129 14.1034 12.6889 13.9541 12.7529C13.8039 12.8169 13.9354 12.92 14.099 12.8178C14.2634 12.7156 14.3994 12.72 14.4954 12.6276C14.5914 12.5352 14.7301 12.6232 14.595 12.6863C14.4608 12.7503 14.4092 12.8569 14.3505 12.9334C14.2919 13.0107 14.2625 13.0489 14.1265 13.0516C13.9905 13.0543 13.8696 13.0872 13.7745 13.2258C13.6785 13.3636 13.5612 13.5254 13.5105 13.6018C13.459 13.6783 13.4981 13.7387 13.6252 13.6445C13.7514 13.5503 13.8936 13.472 13.9568 13.5769C14.0199 13.6809 14.0172 13.7307 13.8483 13.7983C13.4883 13.9423 13.3843 14.0276 13.3194 14.1725C13.2545 14.3183 13.2928 14.3627 13.0679 14.4347C12.8421 14.5076 12.4776 14.7734 12.2394 14.952C12.0012 15.1316 12.1372 15.1405 12.3194 15.1316C12.5985 15.1174 12.9576 14.928 13.1408 15.008C13.1959 15.1129 13.2599 15.2472 13.3452 15.344C13.051 15.7583 13.0021 15.9183 12.6999 15.9254C12.3968 15.9325 12.2074 16.2392 12.067 16.3929C11.9265 16.5476 11.8048 16.6934 11.659 16.7574C11.531 16.8134 11.5025 16.8596 11.6021 16.9094C11.7016 16.9609 11.7896 16.8383 11.8812 16.8809C11.9728 16.9245 12.0332 16.9085 12.1745 16.8143C12.3159 16.72 12.4652 16.5956 12.691 16.568C12.7994 16.6943 12.8545 16.7618 12.9772 16.8267C12.7639 17.1183 12.4439 17.3449 12.1656 17.4418C11.8874 17.5378 11.8448 17.6445 11.6456 17.8987C11.4474 18.1529 11.4563 18.2356 11.2528 18.24C11.0483 18.2454 11.0572 18.2907 11.1648 18.3707C11.2723 18.4516 11.355 18.4125 11.5141 18.4472C11.6741 18.4809 11.8785 18.5147 12.0856 18.2907C12.2928 18.0658 12.8003 17.6747 13.2305 17.7129C13.435 17.7316 13.5799 17.7734 13.3354 18.0054C13.091 18.2374 12.7381 18.4152 12.4981 18.4623C12.0314 18.5565 11.8305 18.7423 11.6945 18.7369C11.5576 18.7316 11.4314 18.8258 11.6385 18.9494C11.8456 19.0738 11.9141 19.1032 12.1461 18.9992C12.3781 18.896 12.7594 18.7209 12.9105 18.6809C13.0608 18.6392 13.1728 18.576 13.2794 18.6045C13.3861 18.632 13.4688 18.5992 13.5879 18.5218C13.707 18.4436 13.8812 18.4329 14.0288 18.2934C14.2012 18.1307 14.3843 18.2703 14.499 18.3654C14.6145 18.4614 14.8421 18.8418 14.6368 19.104C14.4305 19.3654 14.2021 19.6427 14.1292 19.7805C14.0563 19.9183 14.0154 19.9272 13.9292 19.9583C13.7005 20.045 13.4844 20.1619 13.2865 20.3058C13.2048 20.3752 13.2359 20.3974 13.3496 20.4178C13.4634 20.4383 13.4785 20.4152 13.5816 20.3298C13.6856 20.2445 13.8119 20.1138 14.0688 20.1218C14.2048 20.1263 14.3168 20.0489 14.435 19.9245C14.5541 19.8009 14.8083 19.6898 14.9372 19.7165C15.0661 19.744 15.1034 19.7138 15.1781 19.6578C15.2519 19.6036 15.3123 19.5796 15.4279 19.6756C15.5434 19.7716 15.6412 19.7538 15.7612 19.6836C15.8812 19.6125 16.0101 19.64 16.0421 19.7156C16.0732 19.7903 16.0901 19.8578 16.1976 19.9316C16.3052 20.0045 16.6883 20.2312 16.811 20.2969C16.9328 20.3618 17.0136 20.2392 16.9212 20.1583C16.8288 20.0774 16.7816 20.0098 16.7959 19.9414C16.8101 19.8729 16.8803 19.8454 17.0883 19.8738C17.4145 19.92 17.8812 20.152 18.0501 20.2534C18.2199 20.3565 18.3728 20.4436 18.5088 20.44C18.6456 20.4374 18.6892 20.4054 18.5665 20.2943C18.4421 20.184 18.2919 20.1956 18.2359 20.0827C18.1408 19.888 17.9763 20.0285 17.8901 19.8329C17.8288 19.6934 17.7434 19.6765 17.6376 19.6863C17.5319 19.696 17.3905 19.6009 17.2928 19.4516C16.9479 18.9298 16.8545 18.4632 16.9674 18.112C17.0812 17.7618 17.411 17.656 17.6039 17.8036C17.7968 17.9512 18.0243 18.0436 18.123 18.0338C18.2304 18.0167 18.3404 18.0384 18.4332 18.0952C18.5639 18.168 18.7852 18.216 19.0545 18.104C19.3239 17.992 19.419 18.08 19.5905 18.0854C19.7354 18.0889 19.9088 18.1156 20.0261 18.2116C20.1408 18.3076 20.3168 18.3716 20.5816 18.4116C20.8465 18.4516 21.027 18.3787 20.8128 18.2552C20.5968 18.1316 20.4154 18.0596 20.3363 17.9476C20.259 17.8356 20.1443 17.816 20.0314 17.8178C19.9185 17.8205 19.7345 17.7414 19.5808 17.5867C19.4261 17.4303 19.3034 17.4027 19.1834 17.4205C19.1208 17.4314 19.0564 17.426 18.9965 17.4048C18.9366 17.3836 18.8831 17.3474 18.8412 17.2996C18.9576 17.1609 19.083 16.9014 19.1932 16.8232C19.2545 16.8161 19.3165 16.8218 19.3754 16.84C19.4344 16.8582 19.4888 16.8885 19.5354 16.9289C19.6288 17.0098 19.7568 16.992 19.8483 16.9903C19.9536 16.994 20.0561 17.0256 20.1452 17.0818C20.2225 17.1334 20.3434 17.1307 20.4554 17.0827C20.5665 17.0356 20.5425 16.9752 20.4056 16.8952C20.267 16.8152 20.1896 16.7636 20.1425 16.688C20.0972 16.6143 20.0572 16.5769 19.891 16.5805C19.7248 16.584 19.6456 16.5032 19.515 16.3618C19.2199 16.0436 19.0243 16.0249 18.8341 16.0507C18.6456 16.0774 18.4581 16.112 18.3016 15.8889C18.4954 15.7938 18.6536 16.0125 18.9052 15.8232C19.0394 15.7218 19.1283 15.6969 19.2972 15.7538C19.4652 15.8107 19.6616 15.7912 19.7123 15.752C19.7656 15.7129 19.8332 15.6507 19.9159 15.6418C19.9968 15.632 19.987 15.5227 19.8661 15.5369C19.6323 15.5645 19.5914 15.4214 19.3656 15.4649C19.1399 15.5076 19.0572 15.472 18.9105 15.3689C18.7639 15.2658 18.6412 15.1778 18.2119 15.248C18.2314 15.1112 18.2199 14.968 18.4314 14.9254C18.5914 15.0205 18.7416 15.0018 18.8705 14.9992C18.9994 14.9965 19.4385 14.9938 19.5665 15.0143C19.6972 15.0338 19.7248 14.9725 19.5328 14.8712C19.3561 14.7882 19.1657 14.7385 18.971 14.7245C18.8723 14.7192 18.8243 14.6525 18.7612 14.5245C18.6981 14.3974 18.5079 14.296 18.227 14.2943C18.0369 14.2908 17.855 14.2167 17.7168 14.0863C17.6003 13.9832 17.4936 13.9014 17.3568 13.8818C17.2199 13.8623 17.0963 13.7663 17.155 13.6516C17.2128 13.5369 17.4385 13.4872 17.6003 13.5885C17.7603 13.6916 17.8599 13.696 17.9559 13.6409C18.0528 13.5858 18.1141 13.5618 18.259 13.6116C18.403 13.6614 18.5479 13.6578 18.3239 13.4889C18.0012 13.2463 17.6848 13.344 17.5763 13.2107C17.4679 13.0765 17.3781 13.1316 17.3034 13.1636C17.2279 13.1956 17.0928 13.1209 17.2545 13.0356C17.3745 12.9725 17.4945 12.9396 17.6021 12.9903C17.6523 13.0117 17.7065 13.0222 17.7611 13.021C17.8157 13.0198 17.8694 13.0069 17.9185 12.9832C18.0021 12.9432 18.083 12.8667 17.8323 12.8187C17.5816 12.7707 17.2003 12.6205 17.0528 12.4872C16.9965 12.4319 16.9279 12.3909 16.8526 12.3676C16.7773 12.3443 16.6975 12.3392 16.6199 12.3529C16.4919 12.3787 16.3861 12.3956 16.1639 12.2569C15.9416 12.1183 15.651 11.9805 15.4483 11.6978C15.2492 11.424 15.2305 11.5992 15.1043 11.7369Z" fill="#008000"/>
<path d="M14.3569 13.3485C14.2102 13.3307 14.0911 13.3992 14.1676 13.4996C14.2431 13.6 14.2822 13.5369 14.3773 13.4898C14.4725 13.4418 14.5613 13.3716 14.3569 13.3485ZM14.7613 13.6685C14.6271 13.7334 14.4973 13.8107 14.4556 13.9476C14.4129 14.0845 14.4182 14.2054 14.5453 14.1725C14.7373 14.1227 14.7498 13.896 14.8902 13.8703C14.844 13.8027 14.8307 13.712 14.7613 13.6685ZM14.9969 13.5494C15.0093 13.6054 15.028 13.696 15.0742 13.7405C15.1978 13.6809 15.5125 13.5609 15.6316 13.5352C15.6396 13.4704 15.6262 13.4048 15.5933 13.3485C15.4236 13.3645 15.1756 13.4258 14.9969 13.5494ZM16.0556 14.0836C16.0573 14.1672 16.0929 14.3778 16.1098 14.4614C16.1862 14.4978 16.2849 14.5254 16.3613 14.5467C16.4061 14.4412 16.4271 14.3271 16.4227 14.2125C16.284 14.1245 16.1605 14.0294 16.0556 14.0836ZM15.7862 14.2036C15.7951 14.2712 15.7978 14.3698 15.8067 14.4303C15.708 14.432 15.5507 14.4889 15.4529 14.5209C15.3551 14.5538 15.2378 14.3743 15.4102 14.3032C15.5827 14.2312 15.6956 14.2134 15.7862 14.2036ZM13.3658 14.8845C13.5445 14.7894 13.6378 14.8489 13.8022 14.7992C13.8796 14.8729 13.972 14.9618 14.0342 15.0507C13.9391 15.2116 13.6493 15.1049 13.5525 15.1752C13.4729 15.0906 13.4096 14.9921 13.3658 14.8845ZM14.0956 14.7014C14.1427 14.7992 14.1907 14.8809 14.2289 14.9254C14.3649 14.9378 14.4165 14.8614 14.4751 14.7689C14.5338 14.6765 14.5311 14.5636 14.38 14.5743C14.2289 14.5858 14.1462 14.6178 14.0956 14.7014ZM12.916 16.4445C12.956 16.5414 13.0698 16.5769 13.1018 16.6525C13.228 16.5743 13.2893 16.5805 13.396 16.6009C13.5027 16.6205 13.788 16.5236 13.9507 16.3538C14.1133 16.184 14.0076 16.2018 13.8191 16.2285C13.6307 16.2552 13.4876 16.2889 13.3587 16.2614C13.2753 16.2497 13.1903 16.2605 13.1124 16.2927C13.0346 16.3249 12.9668 16.3773 12.916 16.4445ZM14.5853 15.6516C14.4956 15.7067 14.4511 15.7449 14.5213 15.8267C14.5916 15.9085 14.628 15.8703 14.7107 15.8223C14.7933 15.7752 14.8298 15.7067 14.7827 15.6463C14.7347 15.5885 14.6742 15.5974 14.5853 15.6516ZM15.028 15.512C14.9373 15.5138 14.9445 15.5707 14.9569 15.6152C14.9693 15.6605 14.9809 15.688 15.0547 15.6872C15.1285 15.6854 15.1391 15.6685 15.1151 15.5947C15.0911 15.5218 15.0849 15.5103 15.028 15.512ZM15.3018 15.5903C15.3045 15.6934 15.2867 15.6872 15.3889 15.7023C15.4911 15.7174 15.5258 15.7112 15.5285 15.6143C15.532 15.5183 15.5365 15.4836 15.4173 15.48C15.3 15.4774 15.3009 15.5165 15.3018 15.5903ZM15.724 15.672C15.6947 15.7538 15.6529 15.8214 15.7791 15.8694C15.9045 15.9183 15.9098 15.8836 15.9471 15.7752C15.9845 15.6667 15.9889 15.6152 15.892 15.5885C15.7951 15.5627 15.7613 15.5689 15.724 15.672ZM16.1729 15.7023C16.1596 15.7743 16.1403 15.845 16.1151 15.9138C16.1667 15.9352 16.2351 15.9618 16.2876 15.9947C16.3391 16.0276 16.4111 15.9352 16.3862 15.8507C16.3613 15.7663 16.268 15.632 16.1729 15.7023ZM16.7045 14.3458C16.6885 14.4027 16.636 14.5912 16.6147 14.6427C16.7631 14.6792 16.8769 14.6996 16.9791 14.6916C17.0813 14.6836 17.2449 14.6525 17.3249 14.6667C17.404 14.6818 17.4476 14.6018 17.3151 14.5023C17.1827 14.4036 17.1027 14.3885 17.0173 14.3894C16.9329 14.392 16.788 14.288 16.7045 14.3458ZM17.2698 15.048C17.1685 15.032 17.1125 15.1138 17.1827 15.1689C17.252 15.224 17.3418 15.1992 17.3516 15.1485C17.3622 15.0978 17.3667 15.0632 17.2698 15.048ZM17.4973 15.0205C17.5036 15.0712 17.5169 15.1618 17.5178 15.2018C17.5933 15.2738 17.6716 15.1983 17.7525 15.2703C17.8333 15.3423 17.8929 15.2676 17.9089 15.1929C17.9249 15.1192 17.9347 15.0792 17.8671 15.0809C17.7187 15.0836 17.62 14.9556 17.4973 15.0205ZM15.8876 13.2747C15.9053 13.3138 15.9525 13.4036 15.9542 13.4489C16.0227 13.4925 16.1836 13.5396 16.2271 13.4596C16.2707 13.3787 16.2867 13.3449 16.212 13.3067C16.1365 13.2694 15.9747 13.1307 15.8876 13.2747ZM16.4973 13.4152C16.4485 13.4703 16.4876 13.5005 16.5569 13.5387C16.6262 13.5769 16.676 13.5138 16.6689 13.4623C16.6618 13.4107 16.5693 13.3334 16.4973 13.4152ZM14.2573 17.2774C14.3089 17.3236 14.3507 17.3894 14.3373 17.464C14.324 17.5405 14.3702 17.5698 14.4236 17.592C14.4769 17.6125 14.6165 17.744 14.6431 17.6018C14.6707 17.4569 14.5516 17.2329 14.468 17.2196C14.3853 17.2054 14.3471 17.2063 14.308 17.1618C14.2689 17.1174 14.1569 17.1885 14.2573 17.2774ZM18.9196 16.6774C18.884 16.8063 18.7453 17.088 18.6565 17.144C18.5205 17.0792 18.2689 17.0232 18.2449 16.9485C18.2947 16.8116 18.3436 16.6969 18.3818 16.6134C18.5373 16.5796 18.7871 16.5663 18.9196 16.6774ZM18.0671 16.4836C18.0514 16.6182 18.0216 16.7508 17.9782 16.8792C17.82 16.8978 17.4405 16.8232 17.3125 16.8712C17.3178 16.7654 17.3142 16.6285 17.3436 16.5592C17.5853 16.5547 17.8085 16.3983 18.0671 16.4836Z" fill="#EEEEEE"/>
</svg>
