<svg width="32" height="32" viewBox="0 0 32 32" fill="none" xmlns="http://www.w3.org/2000/svg">
<g clip-path="url(#clip0_665_6060)">
<path d="M3.55556 4.44434C2.61256 4.44434 1.70819 4.81894 1.0414 5.48573C0.374602 6.15253 0 7.0569 0 7.99989L0 23.9999C0 24.9429 0.374602 25.8473 1.0414 26.514C1.70819 27.1808 2.61256 27.5554 3.55556 27.5554H9.77778V4.44434H3.55556Z" fill="#006847"/>
<path d="M28.4449 4.44434H22.2227V27.5554H28.4449C29.3879 27.5554 30.2922 27.1808 30.959 26.514C31.6258 25.8473 32.0004 24.9429 32.0004 23.9999V7.99989C32.0004 7.0569 31.6258 6.15253 30.959 5.48573C30.2922 4.81894 29.3879 4.44434 28.4449 4.44434Z" fill="#CE1126"/>
<path d="M9.77734 4.44434H22.2218V27.5554H9.77734V4.44434Z" fill="#EEEEEE"/>
<path d="M20.4438 16C20.4438 17.1787 19.9755 18.3092 19.142 19.1427C18.3086 19.9762 17.1781 20.4444 15.9993 20.4444C14.8206 20.4444 13.6901 19.9762 12.8567 19.1427C12.0232 18.3092 11.5549 17.1787 11.5549 16H10.666C10.666 17.4145 11.2279 18.771 12.2281 19.7712C13.2283 20.7714 14.5849 21.3333 15.9993 21.3333C17.4138 21.3333 18.7704 20.7714 19.7706 19.7712C20.7708 18.771 21.3327 17.4145 21.3327 16H20.4438Z" fill="#A6D388"/>
<path d="M12.0385 18.0169C12.0121 17.9647 11.9757 17.9182 11.9313 17.8802C11.8869 17.8422 11.8354 17.8133 11.7798 17.7953C11.7242 17.7773 11.6655 17.7705 11.6072 17.7752C11.549 17.78 11.4922 17.7963 11.4403 17.8231C11.3882 17.8496 11.3418 17.886 11.3038 17.9304C11.2658 17.9748 11.237 18.0263 11.2189 18.0819C11.2008 18.1374 11.1939 18.196 11.1984 18.2543C11.203 18.3125 11.2191 18.3693 11.2456 18.4213C11.3256 18.5787 11.4136 18.7324 11.5087 18.88L11.5123 18.8862L11.5194 18.8969L11.5221 18.9031L11.5229 18.9049L11.5265 18.9093L11.5292 18.9147V18.9164L11.5318 18.9209L11.5327 18.9227L11.5354 18.9271L11.5363 18.9289L11.5389 18.9324L11.5407 18.9351L11.5425 18.9378L11.5434 18.9404L11.5461 18.9449L11.5469 18.9458L11.5487 18.9484L11.5514 18.9538L11.5523 18.9556L11.5549 18.96L11.5558 18.9618L11.5621 18.9707V18.9716L11.5665 18.9778C11.6127 19.0462 11.6598 19.1129 11.7096 19.1796C11.7443 19.2262 11.7879 19.2656 11.8379 19.2954C11.8878 19.3252 11.9432 19.3448 12.0007 19.3531C12.0583 19.3615 12.1169 19.3584 12.1733 19.344C12.2297 19.3296 12.2826 19.3042 12.3292 19.2693C12.376 19.2346 12.4156 19.1909 12.4456 19.1409C12.4755 19.0908 12.4953 19.0354 12.5038 18.9777C12.5123 18.9199 12.5094 18.8611 12.4951 18.8045C12.4809 18.748 12.4556 18.6948 12.4207 18.648C12.2788 18.4468 12.1511 18.2359 12.0385 18.0169ZM11.5967 16.6107C11.5636 16.3653 11.5499 16.1177 11.5558 15.8702C11.5592 15.7525 11.5157 15.6382 11.4348 15.5526C11.354 15.4669 11.2425 15.4168 11.1247 15.4133L11.0927 15.4142C10.9805 15.4191 10.8744 15.4663 10.7955 15.5463C10.7167 15.6262 10.6711 15.7331 10.6678 15.8453C10.6658 15.9375 10.6655 16.0296 10.6669 16.1218V16.2018L10.6678 16.2062V16.2311L10.6687 16.2338L10.6678 16.2356V16.2382L10.6687 16.24V16.2658L10.6696 16.2684V16.2782L10.6705 16.2951L10.6714 16.3031V16.3129C10.6794 16.4551 10.6936 16.5964 10.7123 16.7369C10.7288 16.853 10.7906 16.9579 10.8842 17.0287C10.9778 17.0995 11.0956 17.1304 11.2118 17.1147C11.2703 17.107 11.3266 17.0879 11.3776 17.0584C11.4286 17.0289 11.4733 16.9895 11.5091 16.9427C11.5449 16.8959 11.571 16.8424 11.5861 16.7854C11.6011 16.7284 11.6047 16.6691 11.5967 16.6107ZM16.3025 20.4329L16.2972 20.4338L16.1869 20.4409C15.9764 20.4494 15.7655 20.4431 15.5558 20.4222C15.4385 20.4104 15.3214 20.4457 15.2301 20.5203C15.1388 20.5949 15.0809 20.7027 15.0692 20.82C15.0574 20.9373 15.0927 21.0544 15.1673 21.1457C15.2419 21.237 15.3497 21.2949 15.4669 21.3067L15.5781 21.3164L15.5816 21.3173L15.5834 21.3164L15.5861 21.3173H15.5878L15.5932 21.3182H15.5985L15.6012 21.3191L15.6074 21.3182L15.6101 21.3191H15.6145L15.6198 21.32L15.6243 21.3209H15.6358L15.6412 21.3218H15.6527C15.7878 21.3307 15.9238 21.3351 16.0607 21.3324H16.0954L16.1016 21.3316L16.1069 21.3324H16.1203L16.1247 21.3316H16.1416L16.1469 21.3307L16.1523 21.3316L16.1532 21.3307L16.1585 21.3316H16.1594L16.1638 21.3307H16.1709L16.1763 21.3298H16.1816L16.1825 21.3307L16.1878 21.3298H16.1941L16.1985 21.3289H16.2163L16.2207 21.328H16.2243L16.2278 21.3271L16.2314 21.328H16.2358L16.2394 21.3271H16.2438C16.2812 21.3262 16.3194 21.3227 16.3567 21.3209C16.4718 21.3116 16.5786 21.2573 16.654 21.1698C16.7294 21.0822 16.7672 20.9686 16.7594 20.8533C16.7571 20.7957 16.7435 20.7391 16.7192 20.6867C16.695 20.6344 16.6607 20.5873 16.6182 20.5482C16.5758 20.5092 16.5261 20.4789 16.4719 20.4591C16.4177 20.4393 16.3601 20.4304 16.3025 20.4329ZM14.1345 20.0347C13.9103 19.9307 13.6951 19.8085 13.4909 19.6693C13.412 19.6149 13.3174 19.5877 13.2216 19.592C13.1285 19.5959 13.039 19.629 12.9658 19.6866C12.8925 19.7441 12.8392 19.8233 12.8134 19.9128C12.7875 20.0023 12.7905 20.0976 12.8218 20.1854C12.8531 20.2731 12.9112 20.3488 12.9878 20.4018L12.9887 20.4027L12.9941 20.4053L12.9994 20.4107L13.0047 20.4142L13.0101 20.4187C13.2465 20.5796 13.4972 20.7209 13.7585 20.8418C13.8113 20.8664 13.8686 20.8804 13.9268 20.8829C13.9851 20.8854 14.0433 20.8764 14.0981 20.8563C14.1528 20.8362 14.2031 20.8055 14.246 20.766C14.2888 20.7264 14.3234 20.6788 14.3478 20.6258C14.3729 20.573 14.3872 20.5158 14.39 20.4574C14.3928 20.3991 14.3841 20.3407 14.3643 20.2858C14.3444 20.2308 14.3139 20.1804 14.2745 20.1373C14.235 20.0942 14.1875 20.0593 14.1345 20.0347ZM18.6056 19.6809C18.5271 19.6846 18.451 19.7091 18.3852 19.752C18.1773 19.8841 17.9591 19.9991 17.7327 20.096C17.6349 20.1348 17.5542 20.2072 17.5049 20.3002C17.4556 20.3931 17.4411 20.5006 17.4639 20.6033C17.4867 20.706 17.5453 20.7973 17.6293 20.8607C17.7132 20.9241 17.817 20.9555 17.9221 20.9493C17.9748 20.9468 18.0268 20.9354 18.0758 20.9156L18.1949 20.8622H18.1967L18.2021 20.8587L18.2038 20.8578L18.2074 20.856H18.2109L18.2145 20.8542L18.2163 20.8524L18.2216 20.8516L18.2234 20.8498L18.2261 20.848L18.2305 20.8462L18.2332 20.8453L18.2376 20.8436L18.2394 20.8427L18.2438 20.8409L18.2456 20.84C18.2483 20.8382 18.2483 20.8373 18.2501 20.8373L18.2518 20.8364L18.2572 20.8338H18.2589L18.2643 20.8311L18.2696 20.8284L18.2714 20.8276L18.2758 20.8249L18.2776 20.824L18.2829 20.8213L18.2838 20.8204L18.2901 20.8196L18.2963 20.816L18.2981 20.8151L18.3016 20.8124H18.3034L18.3087 20.8089L18.3158 20.8071L18.3212 20.8036L18.3283 20.8L18.3292 20.7991L18.3416 20.7938L18.3478 20.7911L18.3603 20.784L18.3674 20.7813L18.3727 20.7787L18.3861 20.7716L18.3914 20.7689L18.4118 20.7582L18.4181 20.7564L18.4305 20.7493L18.4367 20.7458H18.4376C18.4385 20.7449 18.4403 20.744 18.4438 20.744C18.4456 20.7413 18.4474 20.7404 18.4492 20.7396L18.4563 20.736L18.4616 20.7333V20.7324L18.4741 20.7271L18.4812 20.7236L18.4821 20.7227L18.4865 20.72L18.4936 20.7164L18.4989 20.7138H18.5007L18.5061 20.7102L18.5123 20.7067L18.5132 20.7058L18.5185 20.7031L18.5238 20.7004L18.5256 20.6996L18.5292 20.6969L18.5318 20.696L18.5363 20.6933L18.5381 20.6924L18.5425 20.6898L18.5443 20.6889L18.5496 20.6871C18.5487 20.6862 18.5496 20.6862 18.5505 20.6862L18.5558 20.6836L18.5576 20.6827L18.5612 20.68L18.5629 20.6791L18.5683 20.6764L18.5701 20.6756C18.5701 20.6738 18.5718 20.6738 18.5736 20.6729L18.5763 20.672L18.5798 20.6702L18.5825 20.6684L18.5861 20.6667L18.5887 20.6649L18.5914 20.6631L18.5941 20.6604L18.5985 20.6596L18.6021 20.6587L18.6038 20.6569L18.6074 20.6551L18.6109 20.6524L18.6127 20.6516L18.6163 20.6498L18.6198 20.6471L18.6225 20.6453C18.6243 20.6462 18.6252 20.6453 18.6269 20.6444L18.6287 20.6427L18.6323 20.6409L18.6349 20.6391L18.6376 20.6373L18.6412 20.6356L18.6447 20.6329L18.6465 20.632C18.6483 20.6311 18.6518 20.6311 18.6536 20.6293C18.6518 20.6293 18.6518 20.6284 18.6536 20.6293L18.6572 20.6267L18.6634 20.6222L18.6652 20.6213L18.6714 20.6187L18.6821 20.6124L18.6892 20.608C18.6947 20.604 18.7006 20.6008 18.7069 20.5982C18.7629 20.5644 18.8216 20.5298 18.8767 20.4942C18.9759 20.4307 19.0458 20.3305 19.0712 20.2155C19.0965 20.1005 19.0752 19.9802 19.0118 19.8809C18.9651 19.8175 18.9038 19.7662 18.8331 19.7314C18.7624 19.6966 18.6844 19.6793 18.6056 19.6809ZM20.8909 15.576L20.8696 15.5769C20.7553 15.5817 20.6473 15.6304 20.568 15.7128C20.4886 15.7953 20.4442 15.9051 20.4438 16.0196C20.4438 16.2658 20.4216 16.5147 20.3798 16.7564C20.36 16.8728 20.3873 16.9922 20.4555 17.0885C20.5238 17.1848 20.6275 17.25 20.7438 17.2698C20.8602 17.2896 20.9796 17.2624 21.0759 17.1941C21.1722 17.1258 21.2374 17.0221 21.2572 16.9058V16.9013L21.2581 16.8996L21.2589 16.8978L21.2581 16.896L21.2589 16.8942V16.8924L21.2598 16.8907V16.888L21.2607 16.8862V16.8782C21.2625 16.8773 21.2625 16.8756 21.2625 16.8747V16.8693C21.2816 16.754 21.297 16.6381 21.3087 16.5218L21.3078 16.5209L21.3087 16.5182L21.3096 16.5138V16.504L21.3114 16.5013L21.3105 16.4978V16.496L21.3114 16.4933V16.4898L21.3132 16.4889L21.3114 16.4862V16.4827C21.3132 16.4818 21.3132 16.4809 21.3132 16.48V16.4631L21.3149 16.4604C21.327 16.3141 21.3332 16.1664 21.3336 16.0196C21.3334 15.9021 21.2867 15.7896 21.2037 15.7065C21.1208 15.6234 21.0084 15.5765 20.8909 15.576ZM20.4972 17.9724C20.446 17.9441 20.3899 17.9262 20.3318 17.9196C20.2737 17.9131 20.215 17.918 20.1588 17.9342C20.1027 17.9504 20.0503 17.9775 20.0046 18.0139C19.959 18.0504 19.9209 18.0955 19.8927 18.1467C19.7734 18.3631 19.6357 18.5689 19.4812 18.7618C19.4086 18.8541 19.3755 18.9715 19.3892 19.0882C19.4029 19.2048 19.4622 19.3113 19.5542 19.3844C19.6461 19.4575 19.7633 19.4912 19.88 19.4781C19.9968 19.465 20.1036 19.4063 20.1772 19.3147C20.2803 19.1849 20.3789 19.0489 20.4705 18.9102C20.4723 18.904 20.4767 18.8978 20.4803 18.8924L20.4812 18.8916L20.4847 18.8862L20.4883 18.8791C20.4901 18.8773 20.4918 18.8756 20.4918 18.8738L20.4927 18.8747L20.4963 18.8693V18.8684C20.4979 18.8668 20.4989 18.8646 20.4989 18.8622L20.5007 18.8613L20.5043 18.856C20.5061 18.8551 20.5061 18.8524 20.5069 18.8507L20.5078 18.8498L20.5114 18.8444L20.5123 18.8427L20.5141 18.8382L20.5167 18.8364L20.5185 18.832H20.5203L20.5221 18.8267L20.5229 18.8249L20.5265 18.8213L20.5274 18.8196C20.5283 18.8178 20.5283 18.816 20.5301 18.8151L20.5309 18.8124L20.5345 18.8098C20.5345 18.8089 20.5345 18.808 20.5363 18.8071V18.8036L20.5389 18.8018L20.5416 18.7973L20.5425 18.7956L20.5452 18.7902L20.5469 18.7884L20.5487 18.7849L20.5505 18.7822C20.5505 18.7813 20.5505 18.7804 20.5523 18.7796C20.5523 18.7787 20.5523 18.7778 20.5541 18.7769L20.5567 18.7724L20.5576 18.7698L20.5594 18.7671L20.5612 18.7644C20.5629 18.7636 20.5629 18.7627 20.5629 18.7618C20.5647 18.7609 20.5647 18.76 20.5647 18.7582L20.5665 18.7556L20.5692 18.752L20.5718 18.7484V18.7458L20.5736 18.7431L20.5763 18.7396L20.5789 18.7369V18.7342L20.5825 18.7298V18.7271C20.5843 18.7262 20.5852 18.7253 20.5852 18.7236L20.5869 18.7218L20.5887 18.7191L20.5914 18.7147L20.5932 18.712V18.7102L20.5967 18.7058C20.5967 18.7049 20.5967 18.704 20.5985 18.7031L20.5994 18.7004L20.6021 18.6969L20.6038 18.6933L20.6056 18.6907C20.6065 18.6898 20.6056 18.688 20.6074 18.6871C20.6074 18.6862 20.6074 18.6853 20.6092 18.6853L20.6109 18.6809L20.6127 18.6791L20.6145 18.6738L20.6163 18.6729L20.6181 18.6693L20.6198 18.6676L20.6216 18.6631L20.6234 18.6613L20.6252 18.656C20.6269 18.6551 20.6252 18.6542 20.6252 18.6542L20.6287 18.6498L20.6296 18.648L20.6332 18.6436V18.6427L20.6358 18.6373L20.6376 18.6356L20.6394 18.6302L20.6438 18.6249L20.6465 18.6196V18.6187L20.6501 18.6124L20.6518 18.6116L20.6741 18.5698C20.7292 18.467 20.7416 18.3466 20.7085 18.2347C20.6753 18.1229 20.5994 18.0286 20.4972 17.9724Z" fill="#5C913B"/>
<path d="M16.0007 19.5556C17.4734 19.5556 18.6673 19.1576 18.6673 18.6667C18.6673 18.1758 17.4734 17.7778 16.0007 17.7778C14.5279 17.7778 13.334 18.1758 13.334 18.6667C13.334 19.1576 14.5279 19.5556 16.0007 19.5556Z" fill="#55ACEE"/>
<path d="M16.4447 19.5556C17.181 19.5556 17.778 19.1576 17.778 18.6667C17.778 18.1758 17.181 17.7778 16.4447 17.7778C15.7083 17.7778 15.1113 18.1758 15.1113 18.6667C15.1113 19.1576 15.7083 19.5556 16.4447 19.5556Z" fill="#FFCC4D"/>
<path d="M16.9928 18.9102C16.9159 18.9095 16.8406 18.8891 16.7739 18.8509C16.7073 18.8126 16.6516 18.7578 16.6123 18.6918C16.573 18.6258 16.5514 18.5508 16.5495 18.474C16.5477 18.3971 16.5656 18.3211 16.6017 18.2533C16.7439 17.992 16.8932 17.7546 17.0479 17.5466C16.9206 17.552 16.7931 17.5547 16.6657 17.5546C16.4203 17.5546 16.1963 17.3546 16.1963 17.1093C16.1963 16.864 16.3697 16.6649 16.6159 16.6649L16.6888 16.6657C16.9519 16.6657 17.2221 16.6497 17.4639 16.6275C17.5312 16.6207 17.5992 16.6297 17.6625 16.6538C17.7258 16.6779 17.7825 16.7163 17.8283 16.7662C17.8408 16.7564 17.8532 16.7466 17.8666 16.7386C17.9554 16.68 18.0381 16.6329 18.1154 16.5955C18.1704 16.5531 18.2347 16.5245 18.303 16.512L18.335 16.5057C18.5021 16.4515 18.6194 16.4444 18.6666 16.4444C18.7362 16.4442 18.8048 16.4603 18.867 16.4916C18.9292 16.5229 18.9832 16.5684 19.0245 16.6244C19.0658 16.6804 19.0933 16.7454 19.1048 16.8141C19.1162 16.8827 19.1114 16.9531 19.0906 17.0195C19.0177 17.256 18.855 17.3093 18.5697 17.3662C18.4951 17.396 18.4241 17.4342 18.3581 17.48C18.2777 17.5322 18.1827 17.5575 18.0869 17.5521C17.9912 17.5466 17.8996 17.5108 17.8257 17.4497C17.8862 17.5279 17.919 17.6241 17.9187 17.7229C17.9183 17.8218 17.885 17.9178 17.8239 17.9955C17.6728 18.1884 17.5243 18.4177 17.383 18.6782C17.345 18.7485 17.2886 18.8072 17.2199 18.848C17.1512 18.8889 17.0727 18.9103 16.9928 18.9102ZM15.7306 17.4977C15.7109 17.4979 15.6913 17.4967 15.6719 17.4942C15.3544 17.453 15.0406 17.3873 14.7332 17.2977C14.6772 17.2811 14.6251 17.2537 14.5797 17.2169C14.5343 17.1801 14.4967 17.1347 14.4689 17.0834C14.441 17.032 14.4236 16.9757 14.4176 16.9176C14.4115 16.8595 14.417 16.8008 14.4337 16.7449L14.439 16.7271L14.4283 16.7475C14.3998 16.7985 14.3615 16.8434 14.3157 16.8795C14.2698 16.9157 14.2173 16.9425 14.161 16.9583C14.1048 16.9742 14.046 16.9788 13.988 16.9719C13.93 16.965 13.8739 16.9468 13.823 16.9182C13.5277 16.7545 13.2564 16.5508 13.0168 16.3129C12.9358 16.229 12.891 16.1168 12.892 16.0002C12.893 15.8837 12.9398 15.7722 13.0222 15.6898C13.1046 15.6074 13.2161 15.5607 13.3326 15.5597C13.4491 15.5587 13.5614 15.6035 13.6452 15.6844C13.8203 15.8595 14.0257 16.0133 14.2568 16.1422C14.3473 16.1929 14.4173 16.2738 14.4545 16.3707C14.4916 16.4677 14.4937 16.5746 14.4603 16.6729C14.507 16.5793 14.5852 16.5052 14.6811 16.4636C14.777 16.4219 14.8846 16.4155 14.9848 16.4453C15.2301 16.5182 15.4994 16.5742 15.7848 16.6124C15.8967 16.6266 15.9991 16.6829 16.071 16.7699C16.143 16.8568 16.1792 16.9678 16.1723 17.0805C16.1654 17.1931 16.1159 17.2989 16.0339 17.3764C15.9518 17.4539 15.8434 17.4973 15.7306 17.4977ZM13.551 15.4186C13.1723 15.4186 12.6826 15.272 12.3857 14.9217C11.9306 14.3849 11.663 13.696 11.7039 13.168C11.7146 13.0266 11.5768 12.9129 11.4417 12.8773C11.3643 12.8569 11.2283 12.8444 11.1643 12.9822C11.1396 13.0357 11.0946 13.0772 11.0392 13.0975C10.9839 13.1179 10.9227 13.1154 10.8692 13.0906C10.8157 13.0659 10.7742 13.0209 10.7539 12.9655C10.7335 12.9102 10.736 12.849 10.7608 12.7955C10.8994 12.4942 11.2106 12.36 11.5537 12.4471C11.8719 12.5297 12.1768 12.816 12.1466 13.2026C12.1146 13.6133 12.3474 14.1884 12.7243 14.6337C12.9226 14.8684 13.2674 14.9635 13.5021 14.9724C13.6932 14.9822 13.7901 14.9386 13.8106 14.92C13.7608 14.8017 13.1021 14.4551 12.8212 14.3075C12.5821 14.1822 12.511 14.0097 12.4932 13.888C12.4337 13.4835 12.8488 13.0737 13.2506 12.6791C13.3919 12.5395 13.5261 12.408 13.599 12.3111C13.6817 12.2017 13.6683 12.1289 13.6523 12.0835C13.591 11.9173 13.3252 11.7529 13.0052 11.6817C12.7092 11.616 12.5092 11.4729 12.4114 11.256C12.2826 10.9706 12.351 10.5973 12.6194 10.1137C12.6336 10.0882 12.6527 10.0658 12.6756 10.0476C12.6984 10.0295 12.7246 10.016 12.7527 10.008C12.7808 10 12.8101 9.99763 12.8391 10.001C12.8681 10.0043 12.8962 10.0133 12.9217 10.0275C12.9472 10.0417 12.9696 10.0608 12.9878 10.0836C13.0059 10.1065 13.0194 10.1327 13.0274 10.1608C13.0354 10.1888 13.0378 10.2182 13.0344 10.2472C13.0311 10.2762 13.0221 10.3042 13.0079 10.3297C12.7546 10.7849 12.7794 10.9911 12.8168 11.0737C12.8541 11.1555 12.9492 11.2133 13.1012 11.2471C13.4772 11.3306 13.9297 11.5537 14.0683 11.9289C14.1474 12.1431 14.1074 12.3742 13.9546 12.5777C13.8621 12.7013 13.7163 12.8444 13.5626 12.9964C13.3332 13.2222 12.9057 13.6426 12.9332 13.824C12.9386 13.8613 12.9874 13.8942 13.0283 13.9146C13.6959 14.2649 14.1394 14.5182 14.2301 14.8284C14.246 14.8813 14.2508 14.9369 14.2444 14.9918C14.238 15.0467 14.2204 15.0997 14.1928 15.1475C14.1066 15.2977 13.927 15.3902 13.6728 15.4133C13.6346 15.4169 13.5928 15.4186 13.551 15.4186Z" fill="#5C913B"/>
<path d="M17.3331 16.8889C17.5786 16.8889 17.7776 16.4909 17.7776 16C17.7776 15.5091 17.5786 15.1111 17.3331 15.1111C17.0877 15.1111 16.8887 15.5091 16.8887 16C16.8887 16.4909 17.0877 16.8889 17.3331 16.8889Z" fill="#FFCC4D"/>
<path d="M15.3713 15.2782C15.3713 15.5342 15.0647 15.7413 14.686 15.7413C14.3082 15.7413 14.0007 15.5342 14.0007 15.2782C14.0007 15.0222 14.3073 14.8151 14.686 14.8151C15.0638 14.8151 15.3713 15.0222 15.3713 15.2782ZM14.3162 11.1653C14.3607 11.3537 14.1145 11.5742 13.766 11.6569C13.4176 11.7395 13.0993 11.6533 13.054 11.4649C13.0096 11.2755 13.2558 11.0551 13.6033 10.9724C13.9527 10.8906 14.2718 10.976 14.3162 11.1653Z" fill="#FFCC4D"/>
<path d="M20.0287 15.9599C20.1087 16.0221 20.2447 15.3119 20.2242 15.0906C20.2242 15.0754 20.1985 14.6052 20.298 14.2692C20.3594 14.1554 20.3629 13.3066 20.2687 13.0834C20.3434 13.0772 20.4331 13.0532 20.4438 12.9626C20.0989 13.0897 20.018 12.2363 19.6865 11.7457C19.3647 11.2541 18.9656 10.9679 18.5487 10.6692C18.5834 10.582 18.6321 10.5009 18.6927 10.4292C18.1816 10.6852 17.3851 9.75811 16.2082 9.82745C15.9442 9.85322 15.8189 9.86922 15.7514 10.031C15.5318 10.0488 15.3087 10.0986 15.3087 10.3874C15.3087 10.4568 15.3718 10.583 15.5122 10.5839C15.7042 10.6399 15.8607 10.5963 15.9914 10.8648L16.026 11.1421C16.026 11.1421 15.8545 10.9226 15.7602 10.8879L15.818 10.7697C15.7291 10.7181 15.5718 10.7599 15.5718 10.7599C15.5718 10.7599 15.2296 10.5999 14.9549 10.6426L14.9016 10.4203C14.8536 10.5572 14.746 10.5501 14.7309 10.679C14.7007 10.5866 14.6607 10.4719 14.6322 10.3794C14.5354 10.511 14.5638 10.6532 14.5291 10.7901C14.4918 10.8221 14.4154 10.823 14.3958 10.735C14.386 10.6266 14.3727 10.6168 14.3727 10.4879C14.3034 10.6097 14.2198 10.6692 14.1922 10.8781L14.1185 10.647C14.1211 10.9199 13.8865 11.0826 13.6642 11.2754C13.6011 11.391 13.674 11.3919 13.6794 11.4514L13.7967 11.5101L14.0074 11.495C14.042 11.5386 14.0136 11.5421 14.1051 11.5697C14.3505 11.6381 14.6562 11.3439 14.8962 11.807C14.786 11.8994 14.6749 12.1154 14.7105 12.1563C14.7549 12.1563 14.6216 12.2186 14.8011 12.1617C14.6145 12.343 14.4882 12.5821 14.4882 12.5963C14.4669 12.6479 14.5629 12.5892 14.5434 12.6826L14.5878 12.6772C14.162 13.1377 14.5736 13.6328 14.5282 13.8986C14.5994 14.0132 14.6082 13.8959 14.6971 13.8843C14.7718 14.2114 14.9869 14.4097 15.1185 14.6683L14.8411 14.671C14.8474 14.7937 14.9585 14.9101 15.0465 15.0177L14.8607 15.0763C14.7412 15.1359 14.6348 15.2187 14.5478 15.3199C14.4865 15.4692 14.8438 15.5048 15.0162 15.5314L15.01 15.7119C15.2794 15.7377 15.5905 15.6577 15.5905 15.6426L15.658 15.5901L15.81 15.6737C15.8607 15.6737 15.9398 15.471 15.9034 15.3154C16.0011 15.4319 16.0936 15.6194 16.1914 15.7368L16.2829 15.7243C16.3665 15.8568 16.4811 15.9883 16.5647 16.1208L16.658 16.1563C16.7122 16.1377 16.7585 16.1314 16.7878 16.0248L16.8305 16.0994L16.978 15.9981L17.0811 15.9777L17.1585 16.1039C17.2038 16.087 17.2482 15.9883 17.2509 15.8834C17.2971 15.975 17.3096 15.9679 17.3434 15.9919L17.4118 15.8479L17.7807 16.1928L18.0598 16.2088C18.1594 16.2763 18.4322 16.319 18.4785 16.2097C18.7025 16.3057 18.9665 16.1972 18.9531 16.0906C19.1594 16.1723 19.4767 16.1172 19.4767 16.1039C19.5149 16.0994 19.6127 16.0034 19.5202 15.9314C18.8385 15.4568 17.8278 14.671 17.4376 14.4817C17.4376 14.3412 17.3318 13.8354 17.218 13.6968L17.3105 13.5421C17.5762 13.7901 17.6722 13.7661 17.8136 13.8052C17.9647 13.9252 18.0171 14.1074 18.1682 14.2737L18.3034 14.2986C18.1932 14.0093 18.0257 13.7454 17.8109 13.5226C17.9567 13.5954 18.1985 13.7901 18.3602 13.9314C18.4669 14.1101 18.498 14.2523 18.5958 14.4763C18.6669 14.5217 18.7398 14.6879 18.73 14.5501C18.7131 14.2914 18.5309 13.8817 18.5309 13.8523C18.8207 14.0817 18.8171 14.439 18.9051 14.6568C18.9789 14.767 19.0162 14.9146 19.0482 14.8799L18.9629 14.2079L18.9131 13.9617C19.1274 14.0852 19.2038 14.5563 19.3042 15.1217C19.3042 15.2114 19.3407 15.3101 19.3354 15.3679C19.3816 15.4248 19.434 15.5821 19.4331 15.4888C19.4331 15.4888 19.4331 14.5697 19.37 14.359C19.354 14.2461 19.3967 14.063 19.3967 14.063C19.4749 14.4443 19.5585 14.8577 19.6376 15.2381V15.5181L19.7549 15.6363C19.7771 15.4052 19.8038 15.1759 19.8269 14.9466L19.7389 14.1243V13.8897C19.7371 13.807 19.8145 13.8221 19.8634 13.9163C19.8749 14.1181 19.8749 14.2754 19.8829 14.4763C19.9176 14.7057 19.9416 14.8737 19.9585 15.1661C19.9682 15.4026 19.9789 15.9697 20.0287 15.9599Z" fill="#C1694F"/>
</g>
<defs>
<clipPath id="clip0_665_6060">
<rect width="32" height="32" fill="white"/>
</clipPath>
</defs>
</svg>
