<svg width="32" height="32" viewBox="0 0 32 32" fill="none" xmlns="http://www.w3.org/2000/svg">
<g clip-path="url(#clip0_665_6044)">
<path d="M28.4451 4.44434H21.334V27.5554H28.4451C29.3881 27.5554 30.2925 27.1808 30.9593 26.514C31.626 25.8473 32.0007 24.9429 32.0007 23.9999V7.99989C32.0007 7.0569 31.626 6.15253 30.9593 5.48573C30.2925 4.81894 29.3881 4.44434 28.4451 4.44434Z" fill="#DD2E44"/>
<path d="M3.55556 4.44434C2.61256 4.44434 1.70819 4.81894 1.0414 5.48573C0.374602 6.15253 0 7.0569 0 7.99989L0 23.9999C0 24.9429 0.374602 25.8473 1.0414 26.514C1.70819 27.1808 2.61256 27.5554 3.55556 27.5554H10.6667V4.44434H3.55556Z" fill="#265FB5"/>
<path d="M10.666 4.44434H21.3327V27.5554H10.666V4.44434Z" fill="#FFCC4D"/>
<path d="M14.2227 13.3333H17.7782V15.9999H14.2227V13.3333Z" fill="#DD2E44"/>
<path d="M14.2227 16V17.7778L16.0004 18.6667L17.7782 17.7778V16H14.2227Z" fill="#226699"/>
<path d="M14.2214 9.77783V10.6667H15.1102V12.4445H16.888V9.77783H14.2214ZM16.888 18.6667L15.9991 19.2223L15.1102 18.6667L14.2214 21.3334L15.9991 22.2223L17.7769 21.3334L16.888 18.6667ZM13.3325 11.5556L12.4436 10.6667L11.5547 11.5556V20.4445L13.3325 18.6667V12.4445H14.2214L13.3325 11.5556ZM19.5547 10.6667L18.6658 11.5556L17.7769 12.4445H18.6658V18.6667L20.4436 20.4445V11.5556L19.5547 10.6667Z" fill="#A0724A"/>
<path d="M14.4297 15.6392H14.9017V16H14.4297V15.6392ZM17.0964 15.6392H17.5684V16H17.0964V15.6392Z" fill="#FFCC4D"/>
<path d="M13.8989 20.2161C13.8047 20.2712 13.6651 20.2072 13.5878 20.0748L11.6038 16.6383C11.5273 16.505 11.5416 16.353 11.6367 16.2979L11.7576 16.2285C11.8518 16.1734 11.9913 16.2374 12.0678 16.3699L14.0518 19.8072C14.1291 19.9397 14.114 20.0917 14.0198 20.1468L13.8989 20.2161Z" fill="#77B255"/>
<path d="M20.2821 16.3493C20.3772 16.4036 20.3932 16.5538 20.3167 16.6845L18.3692 20.0605C18.2927 20.1911 18.1558 20.2525 18.0598 20.1982L17.9398 20.1289C17.8456 20.0738 17.8296 19.9245 17.9052 19.7929L19.8536 16.4169C19.9292 16.2871 20.0669 16.224 20.1621 16.28L20.2821 16.3493Z" fill="#FFCC4D"/>
<path d="M14.2229 18.6667L13.334 19.5556V20.4445L14.2229 19.5556V18.6667ZM17.7784 18.6667V19.5556L18.6673 20.4445V19.5556L17.7784 18.6667Z" fill="#DD2E44"/>
<path d="M16.0002 15.1111L15.1113 14.2222V16.8515L16.0002 17.7777L16.8891 16.8515V14.2222L16.0002 15.1111Z" fill="#FFCC4D"/>
</g>
<defs>
<clipPath id="clip0_665_6044">
<rect width="32" height="32" fill="white"/>
</clipPath>
</defs>
</svg>
