<svg width="32" height="32" viewBox="0 0 32 32" fill="none" xmlns="http://www.w3.org/2000/svg">
<path d="M32 23.9999C32 24.9429 31.6254 25.8473 30.9586 26.514C30.2918 27.1808 29.3874 27.5554 28.4444 27.5554H3.55556C2.61256 27.5554 1.70819 27.1808 1.0414 26.514C0.374602 25.8473 0 24.9429 0 23.9999V7.99989C0 7.0569 0.374602 6.15253 1.0414 5.48573C1.70819 4.81894 2.61256 4.44434 3.55556 4.44434H28.4444C29.3874 4.44434 30.2918 4.81894 30.9586 5.48573C31.6254 6.15253 32 7.0569 32 7.99989V23.9999Z" fill="#FFCC4D"/>
<path d="M31.1109 23.9999C31.1109 24.7072 30.8299 25.3854 30.3298 25.8855C29.8297 26.3856 29.1515 26.6666 28.4442 26.6666H3.55534C2.84809 26.6666 2.16982 26.3856 1.66972 25.8855C1.16962 25.3854 0.888672 24.7072 0.888672 23.9999V7.99992C0.888672 7.29267 1.16962 6.6144 1.66972 6.1143C2.16982 5.6142 2.84809 5.33325 3.55534 5.33325H28.4442C29.1515 5.33325 29.8297 5.6142 30.3298 6.1143C30.8299 6.6144 31.1109 7.29267 31.1109 7.99992V23.9999Z" fill="#DD2E44"/>
<path d="M20.3429 15.4677C20.8798 13.3254 19.1394 11.4303 19.1394 11.4303L18.6834 13.6534L17.7456 14.889L18.1349 15.5814L17.7465 15.7966L16.8247 14.5192L17.166 13.7468L18.3536 13.1343L17.0389 12.6997L16.2425 13.6268L16.0007 14.6517L15.6967 13.6268L14.8362 12.6997L13.6025 12.9806L14.6362 13.6703L15.0496 14.5192L14.2025 15.8374L13.7394 15.5806L14.1287 14.8881L13.1918 13.6526L12.7358 11.4294C12.7358 11.4294 10.9962 13.3246 11.5322 15.4668C12.0691 17.609 14.3776 17.9086 14.3776 17.9086L12.9091 18.9014L12.0496 18.9708L11.9029 19.9148L12.6816 20.2766L13.366 19.5263L15.0709 18.9014L14.0985 20.3183L16.0007 21.3334L17.8398 20.3192L16.8896 18.9788V18.9237L18.5251 19.529L19.2016 20.2792L19.9767 19.9174L19.8274 18.9734L18.966 18.9041L17.4976 17.9112C17.4976 17.9094 19.806 17.609 20.3429 15.4677Z" fill="#FFCC4D"/>
<path d="M15.9991 17.3333V18.4861C15.9991 18.4861 15.8382 18.2453 15.3325 18.0968C14.6658 17.9021 14.5547 17.3333 14.5547 17.3333H15.9991ZM16.0009 17.3333V18.4861C16.0009 18.4861 16.1618 18.2453 16.6676 18.0968C17.3342 17.9021 17.4454 17.3333 17.4454 17.3333H16.0009Z" fill="#5C913B"/>
<path d="M14.8752 14.9307C14.8752 14.9307 15.5276 15.1947 16.0005 14.9582V17.2222H14.5561C14.5561 17.2222 14.501 16.736 14.6947 16.0969C14.8165 15.6978 14.5836 15.3751 14.5836 15.3751L14.8752 14.9307ZM17.1276 14.9307C17.1276 14.9307 16.4752 15.1947 16.0023 14.9582V17.2222H17.4467C17.4467 17.2222 17.5019 16.736 17.3081 16.0969C17.1863 15.6978 17.4192 15.3751 17.4192 15.3751L17.1276 14.9307ZM20.5143 18.8196C20.5177 18.9146 20.5018 19.0094 20.4678 19.0983C20.4337 19.1871 20.3821 19.2682 20.316 19.3366C20.25 19.4051 20.1708 19.4595 20.0832 19.4967C19.9956 19.5339 19.9014 19.5531 19.8063 19.5531C19.7111 19.5531 19.617 19.5339 19.5294 19.4967C19.4418 19.4595 19.3626 19.4051 19.2966 19.3366C19.2305 19.2682 19.1789 19.1871 19.1448 19.0983C19.1107 19.0094 19.0949 18.9146 19.0983 18.8196C19.1048 18.6361 19.1822 18.4624 19.3143 18.3349C19.4464 18.2074 19.6227 18.1362 19.8063 18.1362C19.9898 18.1362 20.1662 18.2074 20.2983 18.3349C20.4304 18.4624 20.5078 18.6361 20.5143 18.8196Z" fill="#226699"/>
<path d="M16.9166 12.4649C16.9166 12.6604 16.5281 12.8186 16.0481 12.8186C15.5681 12.8186 15.1797 12.6604 15.1797 12.4649C15.1797 12.2693 15.5681 12.1111 16.0481 12.1111C16.5281 12.1111 16.9166 12.2693 16.9166 12.4649Z" fill="#FFCC4D"/>
<path d="M16.0269 10.8889C15.2749 10.8889 14.666 11.24 14.666 11.6738C14.666 12.1076 15.2749 12.4587 16.0269 12.4587C16.7789 12.4587 17.3878 12.1076 17.3878 11.6738C17.3878 11.24 16.7789 10.8889 16.0269 10.8889ZM15.0687 12.0027C14.9016 11.9298 14.9016 11.736 14.93 11.5965C14.9576 11.4578 15.194 11.3191 15.194 11.3191C15.194 11.3191 15.0331 11.656 15.1691 11.8C15.3051 11.9449 15.2358 12.0756 15.0687 12.0027ZM15.6429 11.9911C15.5825 11.9725 15.5753 11.9058 15.5371 11.7929C15.4989 11.68 15.4571 11.5974 15.4847 11.4578C15.5122 11.3191 15.8589 11.2027 15.8589 11.2027C15.8589 11.2027 15.762 11.4854 15.7896 11.624C15.8171 11.7627 15.9282 11.9102 15.9282 11.9102C15.9282 11.9102 15.7033 12.0098 15.6429 11.9911ZM16.5025 11.7929C16.4642 11.9058 16.4571 11.9725 16.3967 11.9911C16.3362 12.0098 16.1105 11.912 16.1105 11.912C16.1105 11.912 16.2216 11.7645 16.2491 11.6258C16.2767 11.4871 16.1798 11.2045 16.1798 11.2045C16.1798 11.2045 16.5265 11.32 16.554 11.4596C16.5825 11.5974 16.5407 11.6809 16.5025 11.7929ZM16.9718 12.0027C16.8047 12.0756 16.7353 11.944 16.8713 11.8C17.0073 11.656 16.8465 11.3191 16.8465 11.3191C16.8465 11.3191 17.0829 11.4578 17.1105 11.5965C17.138 11.736 17.138 11.9307 16.9718 12.0027ZM20.5105 18.896C20.4985 18.9424 20.4687 18.9821 20.4276 19.0066C20.3865 19.0311 20.3373 19.0383 20.2909 19.0267L19.3096 18.7716C19.2634 18.759 19.2241 18.729 19.1998 18.6878C19.1756 18.6466 19.1684 18.5976 19.1798 18.5511C19.1917 18.5048 19.2215 18.4651 19.2627 18.4408C19.3039 18.4165 19.353 18.4095 19.3993 18.4214L20.3807 18.6765C20.4038 18.6821 20.4256 18.6922 20.4447 18.7064C20.4638 18.7205 20.4799 18.7383 20.492 18.7588C20.5041 18.7793 20.512 18.802 20.5151 18.8255C20.5183 18.8491 20.5167 18.8731 20.5105 18.896Z" fill="#FFCC4D"/>
<path d="M19.9957 18.7831C19.9906 18.8035 19.9815 18.8227 19.969 18.8396C19.9564 18.8565 19.9406 18.8707 19.9224 18.8813C19.9043 18.892 19.8842 18.899 19.8634 18.9018C19.8425 18.9046 19.8213 18.9033 19.801 18.8978C19.7807 18.8925 19.7615 18.8833 19.7448 18.8706C19.728 18.8579 19.7139 18.8419 19.7033 18.8238C19.6927 18.8056 19.6859 18.7855 19.6831 18.7646C19.6804 18.7437 19.6818 18.7226 19.6873 18.7022L19.9068 17.6969C19.9121 17.6766 19.9213 17.6576 19.934 17.6409C19.9466 17.6242 19.9624 17.6102 19.9805 17.5996C19.9986 17.589 20.0186 17.5821 20.0394 17.5793C20.0601 17.5765 20.0812 17.5778 20.1015 17.5831C20.1218 17.5883 20.1409 17.5975 20.1577 17.6101C20.1744 17.6227 20.1885 17.6385 20.1991 17.6566C20.2097 17.6748 20.2166 17.6948 20.2194 17.7156C20.2221 17.7364 20.2207 17.7575 20.2153 17.7778L19.9957 18.7831ZM13.1868 21.2222C13.1335 21.2427 13.0393 21.1316 12.9779 20.9751L11.249 16.5831C11.1868 16.4258 11.1797 16.2809 11.233 16.2596L11.321 16.2249C11.3753 16.2045 11.6001 16.2631 11.6624 16.4196L13.3913 20.8116C13.4535 20.9689 13.3281 21.1653 13.2748 21.1876L13.1868 21.2222ZM15.2748 16.2205H16.7246V17.2222H15.2748V16.2205Z" fill="#FFCC4D"/>
</svg>
