<svg width="32" height="32" viewBox="0 0 32 32" fill="none" xmlns="http://www.w3.org/2000/svg">
<path d="M0 12.4445H32V19.5556H0V12.4445Z" fill="#EEEEEE"/>
<path d="M28.4444 4.44446H3.55556C2.61256 4.44446 1.70819 4.81906 1.0414 5.48586C0.374602 6.15265 0 7.05702 0 8.00001L0 12.4445H32V8.00001C32 7.05702 31.6254 6.15265 30.9586 5.48586C30.2918 4.81906 29.3874 4.44446 28.4444 4.44446Z" fill="#AE1F28"/>
<path d="M3.55556 27.5555H28.4444C29.3874 27.5555 30.2918 27.1809 30.9586 26.5141C31.6254 25.8473 32 24.943 32 24V19.5555H0V24C0 24.943 0.374602 25.8473 1.0414 26.5141C1.70819 27.1809 2.61256 27.5555 3.55556 27.5555Z" fill="#20478B"/>
</svg>
