<svg width="32" height="32" viewBox="0 0 32 32" fill="none" xmlns="http://www.w3.org/2000/svg">
<g clip-path="url(#clip0_665_6014)">
<path d="M28.4444 4.44434H3.55556C3.37334 4.44434 3.19378 4.45767 3.01867 4.48434L3.01511 6.04345L0.588448 6.03989C0.20369 6.62108 -0.00100626 7.30289 3.71948e-06 7.99989V23.9999C3.71948e-06 24.9429 0.374606 25.8473 1.0414 26.514C1.7082 27.1808 2.61257 27.5554 3.55556 27.5554H28.4444C29.3874 27.5554 30.2918 27.1808 30.9586 26.514C31.6254 25.8473 32 24.9429 32 23.9999V7.99989C32 7.0569 31.6254 6.15253 30.9586 5.48573C30.2918 4.81894 29.3874 4.44434 28.4444 4.44434Z" fill="#00247D"/>
<path d="M25.951 8.44438H24.8283L24.6559 7.92883L24.4452 7.30127L24.2346 7.92883L24.0621 8.44438H22.9395L23.415 8.83816L23.8346 9.18483L23.6577 9.7066L23.4203 10.4017L24.0035 9.95371L24.4452 9.61327L24.887 9.95371L25.4701 10.4017L25.2328 9.7066L25.0559 9.18483L25.4755 8.83816L25.951 8.44438Z" fill="#EEEDED"/>
<path d="M24.4436 8L24.2205 8.66667H23.5547L24.0925 9.112L23.8658 9.77778L24.4436 9.33333L25.0214 9.77778L24.7947 9.112L25.3325 8.66667H24.6667L24.4436 8Z" fill="#CF1B2B"/>
<path d="M25.951 22.889H24.8283L24.6559 22.3734L24.4452 21.7458L24.2346 22.3734L24.0621 22.889H22.9395L23.415 23.2827L23.8346 23.6294L23.6577 24.1512L23.4203 24.8463L24.0035 24.3983L24.4452 24.0578L24.887 24.3983L25.4701 24.8463L25.2328 24.1512L25.0559 23.6294L25.4755 23.2827L25.951 22.889Z" fill="#EEEDED"/>
<path d="M24.4436 22.4443L24.2205 23.111H23.5547L24.0925 23.5563L23.8658 24.2221L24.4436 23.7777L25.0214 24.2221L24.7947 23.5563L25.3325 23.111H24.6667L24.4436 22.4443Z" fill="#CF1B2B"/>
<path d="M29.5057 12H28.383L28.2106 11.4845L27.9999 10.8569L27.7893 11.4845L27.6168 12H26.4941L26.9697 12.3938L27.3893 12.7405L27.2124 13.2623L26.975 13.9574L27.5581 13.5094L27.9999 13.1689L28.4417 13.5094L29.0248 13.9574L28.7875 13.2623L28.6106 12.7405L29.0301 12.3938L29.5057 12Z" fill="#EEEDED"/>
<path d="M28.0002 11.5557L27.7771 12.2223H27.1113L27.6491 12.6677L27.4224 13.3334L28.0002 12.889L28.578 13.3334L28.3513 12.6677L28.8891 12.2223H28.2233L28.0002 11.5557Z" fill="#CF1B2B"/>
<path d="M22.3944 13.7779H21.2717L21.0993 13.2623L20.8886 12.6348L20.6779 13.2623L20.5055 13.7779H19.3828L19.8584 14.1717L20.2779 14.5183L20.101 15.0401L19.8637 15.7352L20.4468 15.2872L20.8886 14.9468L21.3304 15.2872L21.9135 15.7352L21.6761 15.0401L21.4993 14.5183L21.9188 14.1717L22.3944 13.7779Z" fill="#EEEDED"/>
<path d="M20.8889 13.3333L20.6658 13.9999H20L20.5378 14.4453L20.3111 15.111L20.8889 14.6666L21.4667 15.111L21.24 14.4453L21.7778 13.9999H21.112L20.8889 13.3333Z" fill="#CF1B2B"/>
<path d="M16.8889 15.9999V4.44434H3.55556C3.27111 4.44434 3.01867 4.48434 3.01867 4.48434L3.01511 6.04345L0.588447 6.03989C0.588447 6.03989 0.551114 6.09234 0.475558 6.22211C0.163303 6.76251 -0.000743507 7.37577 2.53327e-06 7.99989V15.9999H16.8889Z" fill="#00247D"/>
<path d="M16.8889 4.44434H14.8169L10.6667 7.35011V4.44434H6.22222V6.72789L3.01867 4.48434C2.48431 4.56416 1.97565 4.76646 1.53244 5.07545L5.712 7.99989H4.16889L0.859556 5.68078C0.761962 5.79486 0.671423 5.91478 0.588444 6.03989L3.38933 7.99989H0V12.4443H3.45333L0 14.903V15.9999H2.96178L6.22222 13.7172V15.9999H10.6667V13.0941L14.816 15.9999H16.8889V14.1963L14.3867 12.4443H16.8889V7.99989H14.3876L16.8889 6.24789V4.44434Z" fill="#EEEEEE"/>
<path d="M9.77778 4.44434H7.11111V8.88878H0V11.5554H7.11111V15.9999H9.77778V11.5554H16.8889V8.88878H9.77778V4.44434Z" fill="#CF1B2B"/>
<path d="M16.8888 4.44434H15.5901L10.6666 7.89234V7.99989H12.063L16.8888 4.62034V4.44434ZM1.53234 5.07545C1.28349 5.24813 1.05741 5.45151 0.859455 5.68078L4.16879 7.99989H5.71101L1.53234 5.07545ZM5.72168 12.4443L0.652344 15.9999H2.18745L6.22212 13.175V12.4443H5.72168ZM16.8888 15.8239V14.7394L13.6115 12.4443H12.0621L16.8888 15.8239Z" fill="#CF1B2B"/>
</g>
<defs>
<clipPath id="clip0_665_6014">
<rect width="32" height="32" fill="white"/>
</clipPath>
</defs>
</svg>
