<svg width="32" height="32" viewBox="0 0 32 32" fill="none" xmlns="http://www.w3.org/2000/svg">
<path d="M30.7716 5.33145L28.4444 5.33322L27.1111 4.44434H17.7778L16 5.33322L14.2222 4.44434H4.88889L3.55556 5.33322L1.22844 5.33145C0.844174 5.66202 0.535568 6.07143 0.323598 6.53188C0.111629 6.99232 0.00126245 7.493 0 7.99989L0 13.7777L0.888889 15.9999L0 18.2221V23.9999C0 25.0692 0.481778 26.0168 1.22844 26.6683L3.55556 26.6666L4.88889 27.5554H14.2222L16 26.6666L17.7778 27.5554H27.1111L28.4444 26.6666L30.7716 26.6683C31.1558 26.3378 31.4644 25.9283 31.6764 25.4679C31.8884 25.0075 31.9987 24.5068 32 23.9999V18.2221L31.1111 15.9999L32 13.7777V7.99989C31.9987 7.493 31.8884 6.99232 31.6764 6.53188C31.4644 6.07143 31.1558 5.66202 30.7716 5.33145Z" fill="#D20000"/>
<path d="M32 18.2221V13.7777L19.8391 15.4666C19.7545 14.8387 19.5167 14.2413 19.1467 13.727L30.7831 5.32256C30.1362 4.75531 29.3048 4.44311 28.4444 4.44434H27.1111L18.5218 13.0586C17.9231 12.5441 17.1809 12.2258 16.3956 12.1466L17.7778 4.44434H14.2222L15.6044 12.1466C14.819 12.2256 14.0768 12.5439 13.4782 13.0586L4.88889 4.44434H3.55556C2.69492 4.44322 1.86331 4.75539 1.216 5.32256L12.8533 13.727C12.4833 14.2413 12.2455 14.8387 12.1609 15.4666L0 13.7777V18.2221L12.1609 16.5332C12.2507 17.1768 12.4889 17.7697 12.8533 18.2728L1.216 26.6772L1.21689 26.6781C1.86397 27.245 2.6953 27.5568 3.55556 27.5554H4.88889L13.4782 18.9412C14.0769 19.4557 14.8191 19.774 15.6044 19.8532L14.2222 27.5554H17.7778L16.3956 19.8532C17.181 19.7742 17.9232 19.4558 18.5218 18.9412L27.1111 27.5554H28.4444C29.3051 27.5567 30.1368 27.2445 30.784 26.6772L19.1467 18.2728C19.5111 17.7697 19.7493 17.1768 19.8391 16.5332L32 18.2221Z" fill="#FFE600"/>
<path d="M16.0008 12.1067C13.8541 12.1067 12.1074 13.8534 12.1074 16C12.1074 18.1467 13.8541 19.8934 16.0008 19.8934C18.1474 19.8934 19.8941 18.1467 19.8941 16C19.8941 13.8534 18.1474 12.1067 16.0008 12.1067ZM16.0008 18.984C14.3554 18.984 13.0168 17.6454 13.0168 16C13.0168 14.3547 14.3554 13.016 16.0008 13.016C17.6461 13.016 18.9848 14.3547 18.9848 16C18.9848 17.6454 17.6461 18.984 16.0008 18.984Z" fill="#D20000"/>
</svg>
