<svg width="32" height="32" viewBox="0 0 32 32" fill="none" xmlns="http://www.w3.org/2000/svg">
<path d="M10.6667 6.76167L2.66667 4.61856C1.19378 4.2239 0 5.09767 0 6.57145V24.3492C0 25.8212 1.19378 27.335 2.66667 27.7306L10.6667 29.8737V6.76167ZM21.3333 27.0159L29.3333 29.159C30.8053 29.5528 32 28.679 32 27.207V9.42923C32 7.95634 30.8053 6.44256 29.3333 6.0479L21.3333 3.90479V27.0159Z" fill="#CCD6DD"/>
<path d="M21.3327 27.0152L10.666 29.8729V6.76183L21.3327 3.90405V27.0152Z" fill="#E1E8ED"/>
<path d="M10.6662 8.53958L3.55512 6.6338C2.57379 6.37069 1.77734 6.9538 1.77734 7.93513V23.9351C1.77734 24.9165 2.57379 25.9262 3.55512 26.1885L10.6662 28.0951V8.53958ZM28.444 7.58669L21.3329 5.68091V25.2365L28.444 27.1422C29.4253 27.4054 30.2218 26.8231 30.2218 25.84V9.84002C30.2218 8.85957 29.4253 7.8498 28.444 7.58669Z" fill="#55ACEE"/>
<path d="M21.3327 25.2374L10.666 28.0952V8.53966L21.3327 5.68188V25.2374Z" fill="#88C9F9"/>
<path d="M10.6661 19.1165C10.4278 19.1219 10.1372 19.209 9.91494 19.2454C9.52738 19.3103 9.6225 19.705 9.50339 19.6392C9.22873 19.4905 8.984 19.2922 8.78161 19.0543C8.48205 18.7041 9.00383 18.6303 9.15316 18.5014C9.3025 18.3725 8.87227 18.3485 8.72205 18.2063C8.57183 18.065 8.30339 18.2987 8.06516 17.961C7.82516 17.6267 7.97539 17.2587 7.94694 16.9121C7.91672 16.5654 8.3345 16.609 8.60383 16.6152C8.87316 16.6179 9.08205 16.7432 9.08205 17.1503C9.08205 17.5556 9.41094 17.7796 9.32116 17.2801C9.23139 16.7814 9.41094 16.6961 9.53005 16.489C9.64916 16.2845 9.85894 16.0001 10.1274 15.5645C10.3238 15.2463 10.4732 15.313 10.6661 15.4187V12.4454C10.6172 12.4063 10.5683 12.3654 10.5194 12.345C10.2501 12.2276 10.6047 13.0143 10.3958 13.3307C10.1852 13.6472 9.86427 13.5023 9.53361 13.4143C9.20561 13.3263 8.89983 12.9299 9.13983 12.5192C9.37805 12.1085 9.83494 12.281 10.0741 11.9387C10.3132 11.5965 9.22338 11.3414 8.83494 11.1023C8.44561 10.8614 7.97894 10.7387 7.5905 10.9725C7.20205 11.2072 6.37005 11.0907 6.04116 11.1379C5.71227 11.1859 5.65361 10.8099 5.59405 10.5219C5.5345 10.2356 5.01361 10.2294 4.47672 10.2214C3.93805 10.2125 2.92916 10.4712 3.10161 11.785C3.16205 12.2419 3.63939 11.8952 3.73005 11.817C3.81983 11.7387 4.26783 11.9947 4.3265 12.3832C4.38694 12.7734 4.35761 13.1716 4.2385 13.4783C4.11672 13.785 4.53716 14.3725 4.77539 14.9112C5.0145 15.449 5.28472 15.521 5.40383 15.5539C5.52383 15.5859 6.21094 16.0756 6.18161 16.4392C6.15227 16.8045 6.80916 17.3201 7.0785 17.6303C7.34783 17.9414 7.51761 18.2187 7.86694 18.3823C8.21627 18.545 8.62427 19.3023 8.80383 19.4179C8.94161 19.5067 9.17538 19.8187 9.31583 19.9334C9.13094 20.1485 8.77183 20.5983 8.77183 20.8481C8.77183 21.1885 9.16294 21.8285 9.31227 22.0036C9.46072 22.1779 9.89005 22.3965 9.97983 22.7592C10.0696 23.121 9.91761 24.2223 9.64916 24.4543C9.37894 24.6872 9.28116 25.3814 9.28116 25.3814C9.28116 25.3814 9.37627 25.6419 9.6945 25.4916C9.96916 25.3636 10.3843 24.9885 10.6669 24.7796V19.1165H10.6661Z" fill="#5C913B"/>
<path d="M10.9042 15.4782C10.8153 15.4924 10.738 15.4888 10.666 15.4879V12.5146C10.8918 12.5724 11.1211 12.7964 11.2945 13.1688C11.5025 13.6213 11.8313 13.2275 11.9513 13.5013C12.0705 13.775 12.7291 14.175 12.4002 14.1608C12.0705 14.1475 11.7416 14.1679 11.6527 14.5644C11.562 14.9626 11.802 15.2702 11.562 15.3004C11.322 15.3297 11.2331 15.4266 10.9042 15.4782ZM13.2065 20.4186C12.8189 20.3528 12.8873 20.3982 12.6482 19.8862C12.41 19.3733 12.2651 19.2257 11.7273 19.303C11.1896 19.3804 11.2091 19.4239 11.0598 19.1582C10.9958 19.0444 10.8456 19.0853 10.666 19.1857V24.8479C10.746 24.7466 10.8171 24.6604 10.8687 24.6106C11.3426 24.1596 11.7784 23.6702 12.1718 23.1475C12.5896 22.5955 12.4385 22.3262 12.6473 21.831C12.8571 21.335 13.1282 21.2826 13.4865 20.8133C13.8465 20.3422 13.5949 20.4862 13.2065 20.4186ZM21.3327 13.983V8.37061C21.2971 8.37416 21.2722 8.38127 21.2349 8.38394C21.0491 8.39372 20.8065 8.50394 20.5425 8.66838C20.5211 8.66394 20.5016 8.65416 20.4802 8.64972C19.6838 8.49416 19.314 9.72083 18.6678 9.67372C18.0198 9.62661 17.1567 9.36794 16.5949 10.1306C16.034 10.8924 15.9042 11.4906 16.5949 11.2808C17.2856 11.071 17.7611 10.0142 18.106 10.3128C18.4509 10.6115 18.3638 10.9537 17.5442 11.295C16.7247 11.6373 15.8393 12.0213 15.3647 12.1484C14.89 12.2755 14.7825 12.6231 15.1051 12.8791C15.4287 13.1351 14.9105 13.2977 14.3709 13.7857C13.8313 14.2719 14.5007 14.2408 14.954 14.4124C15.4073 14.5839 15.7522 14.1253 15.9469 13.5839C16.1398 13.0435 16.9762 12.2319 17.3247 12.2115C17.6731 12.191 17.6731 12.3866 17.6073 12.7466C17.5958 12.8097 17.6082 12.8382 17.6171 12.8693C17.466 13.3493 17.3416 13.7848 17.2927 14.0302C17.2689 14.2054 17.2609 14.3824 17.2687 14.559C17.1922 14.5626 17.106 14.5777 17.0482 14.5599C16.6589 14.4453 15.7736 14.3644 15.5362 14.5982C15.2989 14.8337 15.17 15.0444 14.8891 15.2408C14.6073 15.4355 13.4642 16.3288 13.4429 17.0933C13.4207 17.8568 13.3993 18.7199 13.8527 18.623C14.306 18.5262 15.4073 17.8888 15.7522 17.4782C16.0962 17.0666 16.5709 17.0142 16.7229 17.3395C16.874 17.6675 16.7656 17.9164 16.6162 18.543C16.4642 19.1724 16.714 19.399 16.9549 19.8479C17.1976 20.2959 17.3913 20.5368 17.3913 20.9048C17.3913 21.271 17.7371 21.5475 18.2536 20.7955C18.434 20.5246 18.5932 20.2402 18.73 19.9448C19.0936 19.5279 19.4127 19.1244 19.4038 18.9706C19.3924 18.7859 19.3853 18.601 19.3825 18.4159L19.4633 18.2204C19.5762 17.9599 19.6776 17.5573 19.7851 17.1937C19.7904 17.1861 19.7963 17.1789 19.8029 17.1724C20.0136 16.8728 19.9673 16.8586 20.3185 16.5004C20.5531 16.2604 20.5442 16.0453 20.5087 15.8977C20.602 15.7422 20.6278 15.6488 20.4793 15.6888L20.4651 15.6924C20.4633 15.6924 20.4607 15.7093 20.4598 15.7048C20.4393 15.5724 20.2767 15.7075 20.0145 15.8364C19.762 15.8435 19.5113 15.7777 19.4207 15.5093C19.3025 15.1573 18.8856 14.6239 18.8527 14.3217C18.8553 14.2853 18.8571 14.2533 18.8616 14.2115C18.8723 14.1791 18.894 14.1514 18.9229 14.1333C18.9536 14.1162 18.9875 14.1056 19.0225 14.1022C19.0589 14.2008 19.0891 14.3502 19.0989 14.5146C19.122 14.9386 19.4491 14.6888 19.4491 14.9573C19.4491 15.2266 19.9202 15.3946 20.0367 15.4444C20.0696 15.4586 20.1202 15.4204 20.178 15.3573C20.2056 15.3671 20.2313 15.3866 20.2607 15.3902C20.5202 15.4177 21.0802 14.5155 21.2536 14.3555C21.3442 14.271 21.346 14.1164 21.2829 14.0053L21.3327 13.983Z" fill="#77B255"/>
<path d="M24.5642 17.9743C24.5171 18.3654 24.7278 18.153 25.1029 18.601C25.4789 19.0525 25.0104 18.9512 24.846 18.8819C24.6815 18.8108 24.5171 18.7654 24.3313 18.4214C24.142 18.0739 24.3313 17.8037 24.3313 17.5085C24.3313 17.5085 24.6122 17.5832 24.5642 17.9743ZM24.886 17.1734C25.2318 17.321 24.9873 16.745 25.1029 16.4259C25.2202 16.1094 25.3838 16.0988 25.5962 16.1032C25.806 16.105 25.9713 15.9334 26.1127 15.7574C26.2522 15.5805 26.5109 15.3539 26.4878 15.1059C26.4647 14.8579 26.3953 14.6774 26.2993 14.3565C26.206 14.0365 26.5802 14.0294 26.7455 13.7245C26.9091 13.4196 26.7455 13.7245 27.1198 13.7174C27.4949 13.7103 27.3313 13.6659 27.4007 13.5236C27.4718 13.3823 27.5189 13.233 27.4487 12.9192C27.3793 12.6054 27.1198 12.8303 26.862 12.7619C26.6051 12.6934 26.9562 12.3841 26.9793 12.0685C27.0024 11.7521 27.3322 11.9219 27.5669 11.9574C27.8006 11.9921 27.8709 12.3877 27.9411 12.4881C28.0131 12.5877 28.7367 12.1637 28.926 11.9183C29.1135 11.6739 28.7607 11.6597 28.8558 11.5601C28.95 11.4614 28.294 11.2605 28.0335 11.1432C27.7767 11.025 27.1198 10.817 26.862 10.5663C26.6051 10.3148 25.6211 10.1877 25.3615 10.2668C25.1029 10.3432 24.9384 10.1397 24.8229 9.90587C24.7064 9.67298 24.2131 9.64187 24.0727 9.49076C23.9322 9.33965 23.7918 9.60365 23.6024 9.63298C23.4158 9.66409 23.3455 9.67121 23.11 9.44721C22.8762 9.22321 23.1811 9.11743 22.854 8.89521C22.5384 8.68365 22.1313 8.73343 21.334 8.36987V13.9823C21.4735 13.9948 21.6087 14.0143 21.6575 14.0277C21.774 14.0588 22.0558 14.537 22.0558 14.7245C22.0558 14.9121 22.1962 15.4605 22.3144 15.7868C22.4309 16.1121 22.6878 16.2365 22.9242 16.5139C23.1589 16.7912 23.2744 16.6357 23.2744 16.6357C23.2744 16.6357 23.1811 16.1521 23.1811 15.7779C23.1811 15.401 23.462 15.1548 23.462 15.1548C23.462 15.1548 23.9064 15.6508 23.9313 15.7636C23.9544 15.8774 24.3055 16.3468 24.3304 16.5423C24.3535 16.737 24.5411 17.0276 24.886 17.1734ZM26.7455 15.3352C26.9091 15.4063 27.6131 15.4872 27.238 15.0383C26.862 14.5885 27.1438 14.7725 27.1909 14.3823C27.238 13.9912 26.9562 13.9165 26.9562 13.9165C26.9562 14.2117 26.7687 14.4836 26.9562 14.8285C27.1429 15.1752 26.5802 15.2641 26.7455 15.3352ZM28.5269 20.1094C28.4104 19.9165 28.1527 19.7672 27.8709 19.6997C27.5909 19.6321 27.6131 19.273 27.3322 19.2259C27.0513 19.177 26.8487 18.8801 26.7224 18.7708C26.4451 18.5343 26.6282 18.9565 26.7224 19.3921C26.8167 19.8259 27.1678 19.6108 27.4949 19.913C27.8229 20.2152 27.8478 19.9272 28.1527 20.1165C28.4567 20.3041 28.5749 20.5788 28.8673 20.6303C29.1598 20.6828 28.6451 20.3023 28.5269 20.1094ZM25.782 18.8365C26.0149 19.1939 25.9233 18.8748 26.23 18.8223C26.5349 18.7699 25.9713 18.3236 25.7838 18.1121C25.5962 17.9005 25.4104 17.8445 25.246 18.1556C25.0593 18.5103 25.55 18.4792 25.782 18.8365ZM27.918 21.129C27.7998 20.8285 27.4575 20.4952 27.318 20.3201C27.1767 20.1485 26.9562 20.0428 26.7687 20.0721C26.5802 20.0996 26.4638 19.9903 26.3704 19.7512C26.2762 19.5148 26.1126 19.5441 25.9713 19.5343C25.8318 19.5236 25.2682 19.6401 24.9393 19.7388C24.6122 19.8392 24.462 19.9628 24.2478 20.145C23.9082 20.4294 24.0967 20.2383 24.2478 20.5219C24.3971 20.8045 24.0815 21.4694 24.0584 21.8934C24.0344 22.3174 24.6593 21.921 24.8931 21.9281C25.1278 21.9388 25.0584 21.7601 25.2451 21.649C25.4335 21.5379 25.5553 21.5343 25.7598 21.8019C25.9669 22.073 26.2371 22.345 26.2371 22.5868C26.2371 22.8268 26.9784 23.4285 27.2602 23.3441C27.5411 23.257 27.7055 22.9814 27.9633 22.7797C28.222 22.5797 28.1287 22.0472 28.198 21.7414C28.27 21.4356 28.0335 21.4268 27.918 21.129Z" fill="#5C913B"/>
</svg>
