<svg width="32" height="32" viewBox="0 0 32 32" fill="none" xmlns="http://www.w3.org/2000/svg">
<g clip-path="url(#clip0_665_5997)">
<path d="M32 24C32 24.943 31.6254 25.8474 30.9586 26.5142C30.2918 27.181 29.3874 27.5556 28.4444 27.5556H3.55556C2.61256 27.5556 1.70819 27.181 1.0414 26.5142C0.374602 25.8474 0 24.943 0 24V8.00001C0 7.05702 0.374602 6.15265 1.0414 5.48586C1.70819 4.81906 2.61256 4.44446 3.55556 4.44446H28.4444C29.3874 4.44446 30.2918 4.81906 30.9586 5.48586C31.6254 6.15265 32 7.05702 32 8.00001V24Z" fill="#006600"/>
<path d="M28.4451 4.44446H13.334V27.5556H28.4451C29.3881 27.5556 30.2925 27.181 30.9593 26.5142C31.626 25.8474 32.0006 24.943 32.0006 24V8.00001C32.0006 7.05702 31.626 6.15265 30.9593 5.48586C30.2925 4.81906 29.3881 4.44446 28.4451 4.44446Z" fill="#D52B1E"/>
<path d="M13.3338 8.88892C11.4478 8.88892 9.63904 9.63812 8.30545 10.9717C6.97186 12.3053 6.22266 14.114 6.22266 16C6.22266 17.886 6.97186 19.6947 8.30545 21.0283C9.63904 22.3619 11.4478 23.1111 13.3338 23.1111C15.2198 23.1111 17.0285 22.3619 18.3621 21.0283C19.6957 19.6947 20.4449 17.886 20.4449 16C20.4449 14.114 19.6957 12.3053 18.3621 10.9717C17.0285 9.63812 15.2198 8.88892 13.3338 8.88892ZM7.89999 12.9725L9.32399 14.3965L7.13732 15.4898C7.20789 14.6057 7.46801 13.7471 7.89999 12.9725ZM7.13732 16.5094L11.0484 18.4711L8.6431 20.0747L8.65555 20.0934C7.77722 19.093 7.24481 17.8362 7.13732 16.5094ZM12.4449 22.1511C11.63 22.0349 10.8467 21.7568 10.1409 21.3334H12.4449V22.1511ZM12.4449 20.4445H9.69021L12.4449 18.608V20.4445ZM12.4449 17.5396L11.9053 17.8996L8.10532 16L9.98621 15.0596L12.4449 17.5174V17.5396ZM12.4449 16.2605L9.29554 13.1111L12.4449 13.6356V16.2605ZM12.4449 12.712L8.50532 12.0782C9.49107 10.8657 10.8979 10.0696 12.4449 9.84892V12.712ZM18.7675 12.9725C19.1996 13.7474 19.4598 14.6063 19.5302 15.4907L17.3435 14.3974L18.7675 12.9725ZM14.2227 9.84892C15.7695 10.07 17.1762 10.866 18.1622 12.0782L14.2227 12.712V9.84892ZM14.2227 13.6356L17.372 13.1102L14.2227 16.2605V13.6356ZM14.2227 17.5174L16.6804 15.0596L18.5622 16L14.7631 17.8996L14.2227 17.5396V17.5174ZM14.2227 22.1511V21.3334H16.5267C15.8209 21.7568 15.0375 22.0349 14.2227 22.1511ZM14.2227 20.4445V18.608L16.9773 20.4445H14.2227ZM18.0129 20.0934L18.0253 20.0747L15.62 18.4711L19.5311 16.5094C19.4228 17.836 18.8905 19.0926 18.0129 20.0934Z" fill="#FFCC4D"/>
<path d="M9.77734 11.5555V17.7778C9.77734 18.7208 10.1519 19.6251 10.8187 20.2919C11.4855 20.9587 12.3899 21.3333 13.3329 21.3333C14.2759 21.3333 15.1803 20.9587 15.8471 20.2919C16.5139 19.6251 16.8885 18.7208 16.8885 17.7778V11.5555H9.77734Z" fill="#D52B1E"/>
<path d="M10.666 12.4445V17.7778C10.666 18.485 10.947 19.1633 11.4471 19.6634C11.9472 20.1635 12.6254 20.4445 13.3327 20.4445C14.0399 20.4445 14.7182 20.1635 15.2183 19.6634C15.7184 19.1633 15.9993 18.485 15.9993 17.7778V12.4445H10.666Z" fill="white"/>
<path d="M11.5547 15.1111H15.1102V16.8889H11.5547V15.1111Z" fill="#829ACD"/>
<path d="M12.4453 14.2222H14.2231V17.7777H12.4453V14.2222Z" fill="#829ACD"/>
<path d="M10.666 15.1111H11.5549V16.8889H10.666V15.1111ZM12.4438 15.1111H14.2216V16.8889H12.4438V15.1111ZM15.1105 15.1111H15.9993V16.8889H15.1105V15.1111ZM12.4438 17.7778H14.2216V19.5556H12.4438V17.7778ZM12.4438 12.4445H14.2216V14.2222H12.4438V12.4445Z" fill="#003399"/>
</g>
<defs>
<clipPath id="clip0_665_5997">
<rect width="32" height="32" fill="white"/>
</clipPath>
</defs>
</svg>
