<svg width="32" height="32" viewBox="0 0 32 32" fill="none" xmlns="http://www.w3.org/2000/svg">
<g clip-path="url(#clip0_665_6006)">
<path d="M3.55556 4.44434C2.61256 4.44434 1.70819 4.81894 1.0414 5.48573C0.374602 6.15253 0 7.0569 0 7.99989L0 23.9999C0 24.9429 0.374602 25.8473 1.0414 26.514C1.70819 27.1808 2.61256 27.5554 3.55556 27.5554H10.6667V4.44434H3.55556Z" fill="#002B7F"/>
<path d="M10.666 4.44434H21.3327V27.5554H10.666V4.44434Z" fill="#FCD116"/>
<path d="M28.4451 4.44434H21.334V27.5554H28.4451C29.3881 27.5554 30.2925 27.1808 30.9593 26.514C31.626 25.8473 32.0007 24.9429 32.0007 23.9999V7.99989C32.0007 7.0569 31.626 6.15253 30.9593 5.48573C30.2925 4.81894 29.3881 4.44434 28.4451 4.44434Z" fill="#CE1126"/>
</g>
<defs>
<clipPath id="clip0_665_6006">
<rect width="32" height="32" fill="white"/>
</clipPath>
</defs>
</svg>
