<svg width="32" height="32" viewBox="0 0 32 32" fill="none" xmlns="http://www.w3.org/2000/svg">
<path d="M32 23.9999C32 24.9429 31.6254 25.8473 30.9586 26.514C30.2918 27.1808 29.3874 27.5554 28.4444 27.5554H3.55556C2.61256 27.5554 1.70819 27.1808 1.0414 26.514C0.374602 25.8473 0 24.9429 0 23.9999V20.4443H32V23.9999Z" fill="#CE2028"/>
<path d="M0 11.5557H32V20.4446H0V11.5557Z" fill="#22408C"/>
<path d="M28.4444 4.44434H3.55556C2.61256 4.44434 1.70819 4.81894 1.0414 5.48573C0.374602 6.15253 0 7.0569 0 7.99989L0 11.5554H32V7.99989C32 7.0569 31.6254 6.15253 30.9586 5.48573C30.2918 4.81894 29.3874 4.44434 28.4444 4.44434Z" fill="#EEEEEE"/>
</svg>
