<svg width="32" height="32" viewBox="0 0 32 32" fill="none" xmlns="http://www.w3.org/2000/svg">
<path d="M0 11.5557H32V20.4446H0V11.5557Z" fill="#0C4076"/>
<path d="M0 23.9999C0 24.9429 0.374602 25.8473 1.0414 26.514C1.70819 27.1808 2.61256 27.5554 3.55556 27.5554H28.4444C29.3874 27.5554 30.2918 27.1808 30.9586 26.514C31.6254 25.8473 32 24.9429 32 23.9999V20.4443H0V23.9999Z" fill="#EEEEEE"/>
<path d="M32 7.99989C32 7.0569 31.6254 6.15253 30.9586 5.48573C30.2918 4.81894 29.3874 4.44434 28.4444 4.44434H3.55556C2.61256 4.44434 1.70819 4.81894 1.0414 5.48573C0.374602 6.15253 0 7.0569 0 7.99989L0 11.5554H32V7.99989ZM6.22222 11.5554V19.9999C6.22222 21.2965 6.7373 22.54 7.65414 23.4569C8.57099 24.3737 9.8145 24.8888 11.1111 24.8888C12.4077 24.8888 13.6512 24.3737 14.5681 23.4569C15.4849 22.54 16 21.2965 16 19.9999V11.5554H6.22222Z" fill="#C6363C"/>
<path d="M11.1103 6.27734C7.6099 6.27734 6.51302 7.76357 6.80457 8.31912C7.09613 8.87468 7.97079 10.3049 7.97079 10.3049C7.97079 10.3049 7.69346 10.416 7.97079 10.9716C8.24813 11.5271 9.33168 11.152 11.1095 11.152C12.8872 11.152 13.9708 11.5271 14.2481 10.9716C14.5255 10.416 14.2481 10.3049 14.2481 10.3049C14.2481 10.3049 15.1228 8.87468 15.4152 8.31912C15.7077 7.76357 14.6108 6.27734 11.1103 6.27734ZM8.05435 8.91646C7.80279 8.99468 8.05435 9.76357 7.96546 9.43112C7.89257 9.15645 7.6099 9.04179 7.6099 9.19468C7.6099 9.34757 7.49879 9.19468 7.52635 8.91734C7.5539 8.63912 7.47124 8.4729 7.30413 8.23645C7.1379 8.00001 7.1379 7.79201 7.34679 7.65246C7.55479 7.51379 8.01346 7.40268 8.01346 7.40268C8.01346 7.40268 8.1939 8.19468 8.29079 8.37512C8.38768 8.55557 8.56813 8.67379 8.56813 8.67379C8.56813 8.67379 8.48457 8.80534 8.56813 8.87468C8.65168 8.94401 8.74857 9.11112 8.74857 9.11112C8.74857 9.11112 8.44368 8.86134 8.38857 8.91646C8.33346 8.97157 8.4579 9.04179 8.44368 9.13868C8.42946 9.23646 8.27657 8.84712 8.05435 8.91646ZM10.8881 8.93068C10.8188 9.00001 10.7628 8.87468 10.6241 8.77779C10.4855 8.6809 10.4019 8.7369 10.4295 8.84801C10.457 8.95912 10.2623 8.9449 10.2623 9.11201C10.2623 9.27912 10.0819 9.2089 10.0819 9.2089C10.0819 9.2089 10.3041 8.62579 9.92901 8.63912C9.71657 8.64712 9.79035 9.08357 9.92901 9.23645C9.86768 9.14312 9.69257 9.13957 9.54679 9.02845C9.40102 8.91734 9.56724 8.73601 9.45613 8.77779C9.34501 8.81957 9.27568 9.00001 9.16457 9.04179C9.05346 9.08357 9.10946 8.91557 9.16457 8.77779C9.18088 8.74124 9.18339 8.70002 9.17162 8.66177C9.15985 8.62352 9.13461 8.59084 9.10057 8.56979C9.10057 8.56979 9.10946 8.4729 9.19302 8.4169C9.27657 8.36179 9.30413 8.26401 9.19302 8.1529C9.0819 8.04179 8.68013 7.4169 8.80457 7.20801C8.9299 7.00001 9.3459 6.76357 10.513 6.79112C10.721 7.74934 10.4019 8.22134 10.4019 8.22134C10.4019 8.22134 10.6383 8.37423 10.7077 8.45779C10.5406 8.52801 10.6659 8.59734 10.777 8.69423C10.8881 8.79201 10.9575 8.86134 10.8881 8.93068ZM13.0552 8.77779C13.1103 8.91646 13.1663 9.08357 13.0552 9.04179C12.9441 9.00001 12.8748 8.81957 12.7637 8.77779C12.6526 8.73601 12.8188 8.91734 12.673 9.02845C12.5272 9.13957 12.353 9.14312 12.2908 9.23645C12.4295 9.08357 12.5032 8.64712 12.2908 8.63912C11.9157 8.6249 12.1379 9.2089 12.1379 9.2089C12.1379 9.2089 11.9575 9.27823 11.9575 9.11201C11.9575 8.94579 11.7628 8.95912 11.7903 8.84801C11.8179 8.7369 11.7352 8.6809 11.5957 8.77779C11.457 8.87468 11.401 9.00001 11.3317 8.93068C11.2623 8.86134 11.3317 8.79201 11.4428 8.69423C11.5548 8.59734 11.6801 8.52801 11.513 8.45868C11.5823 8.37512 11.8188 8.22223 11.8188 8.22223C11.8188 8.22223 11.4997 7.75023 11.7077 6.79201C12.8739 6.76445 13.2908 7.00001 13.4161 7.2089C13.5415 7.4169 13.1388 8.04268 13.0268 8.1529C12.9148 8.26312 12.9432 8.3609 13.0268 8.4169C13.1103 8.47201 13.1192 8.56979 13.1192 8.56979C13.1192 8.56979 12.9992 8.63912 13.0552 8.77779ZM14.9157 8.23645C14.7486 8.4729 14.6659 8.63912 14.6935 8.91734C14.721 9.19468 14.6099 9.34757 14.6099 9.19468C14.6099 9.04179 14.3272 9.15734 14.2543 9.43112C14.1655 9.76357 14.417 8.99557 14.1655 8.91646C13.9432 8.84712 13.6517 9.51379 13.721 9.44446C13.7903 9.37512 13.8881 8.97246 13.8321 8.91646C13.777 8.86046 13.4712 9.11112 13.4712 9.11112C13.4712 9.11112 13.5681 8.94401 13.6517 8.87468C13.7352 8.80534 13.6517 8.67379 13.6517 8.67379C13.6517 8.67379 13.8321 8.55557 13.929 8.37512C14.0259 8.19468 14.2063 7.40268 14.2063 7.40268C14.2063 7.40268 14.665 7.51379 14.873 7.65246C15.081 7.79112 15.0828 8.00001 14.9157 8.23645Z" fill="#EDB92E"/>
<path d="M11.2087 6.43742C11.2087 6.47986 11.1918 6.52055 11.1618 6.55056C11.1318 6.58057 11.0911 6.59742 11.0487 6.59742C11.0062 6.59742 10.9655 6.58057 10.9355 6.55056C10.9055 6.52055 10.8887 6.47986 10.8887 6.43742V5.03476C10.8887 4.99232 10.9055 4.95162 10.9355 4.92162C10.9655 4.89161 11.0062 4.87476 11.0487 4.87476C11.0911 4.87476 11.1318 4.89161 11.1618 4.92162C11.1918 4.95162 11.2087 4.99232 11.2087 5.03476V6.43742Z" fill="#FFAC33"/>
<path d="M11.5287 5.40969C11.5289 5.42887 11.5252 5.44788 11.5179 5.46562C11.5106 5.48336 11.4999 5.49948 11.4863 5.51304C11.4728 5.5266 11.4566 5.53733 11.4389 5.54462C11.4212 5.5519 11.4021 5.55559 11.383 5.55547H10.6887C10.6696 5.55559 10.6506 5.5519 10.6328 5.54462C10.6151 5.53733 10.599 5.5266 10.5854 5.51304C10.5718 5.49948 10.5611 5.48336 10.5538 5.46562C10.5465 5.44788 10.5429 5.42887 10.543 5.40969C10.543 5.3288 10.6079 5.26392 10.6887 5.26392H11.383C11.4639 5.26392 11.5287 5.3288 11.5287 5.40969Z" fill="#EDB92E"/>
<path d="M11.5701 6.2773C11.5701 6.41922 11.5137 6.55533 11.4134 6.65568C11.313 6.75603 11.1769 6.81241 11.035 6.81241C10.8931 6.81241 10.757 6.75603 10.6566 6.65568C10.5563 6.55533 10.4999 6.41922 10.4999 6.2773C10.4999 6.13538 10.5563 5.99927 10.6566 5.89892C10.757 5.79856 10.8931 5.74219 11.035 5.74219C11.1769 5.74219 11.313 5.79856 11.4134 5.89892C11.5137 5.99927 11.5701 6.13538 11.5701 6.2773ZM8.53723 10.912C8.53723 11.0426 8.38701 11.1484 8.20123 11.1484C8.01546 11.1484 7.86523 11.0426 7.86523 10.912C7.86523 10.7822 8.01546 10.6764 8.20123 10.6764C8.38701 10.6764 8.53723 10.7813 8.53723 10.912Z" fill="#0C4076"/>
<path d="M9.8888 10.831C9.8888 10.9617 9.73857 11.0675 9.5528 11.0675C9.36702 11.0675 9.2168 10.9617 9.2168 10.831C9.2168 10.7012 9.36702 10.5955 9.5528 10.5955C9.73769 10.5955 9.8888 10.7012 9.8888 10.831ZM12.8888 10.831C12.8888 10.9617 12.7386 11.0675 12.5528 11.0675C12.367 11.0675 12.2168 10.9617 12.2168 10.831C12.2168 10.7012 12.367 10.5955 12.5528 10.5955C12.7377 10.5955 12.8888 10.7012 12.8888 10.831Z" fill="#C6363C"/>
<path d="M14.2773 10.9119C14.2773 11.0426 14.1271 11.1484 13.9413 11.1484C13.7556 11.1484 13.6053 11.0426 13.6053 10.9119C13.6053 10.7822 13.7556 10.6764 13.9413 10.6764C14.1271 10.6764 14.2773 10.7813 14.2773 10.9119ZM11.3849 10.8142C11.3849 10.9448 11.2347 11.0506 11.0489 11.0506C10.8631 11.0506 10.7129 10.9448 10.7129 10.8142C10.7129 10.6835 10.8631 10.5786 11.0489 10.5786C11.2347 10.5786 11.3849 10.6835 11.3849 10.8142Z" fill="#0C4076"/>
<path d="M9.14314 20.0552C8.83914 20.745 8.80714 21.0845 8.44714 21.0605C8.08625 21.0365 7.83203 20.9752 7.83203 21.121C7.83203 21.2658 8.40536 21.2054 8.40536 21.2054C8.40536 21.2054 7.86403 21.4365 7.9707 21.7023C8.07648 21.969 8.54403 21.3636 8.54403 21.3636C8.54403 21.3636 8.63914 21.3876 8.81959 21.2418C9.00003 21.097 9.47736 20.3947 9.47736 20.3947L9.14314 20.0552ZM13.0649 20.0552C13.3689 20.745 13.4009 21.0845 13.7609 21.0605C14.1218 21.0365 14.376 20.9752 14.376 21.121C14.376 21.2658 13.8036 21.2054 13.8036 21.2054C13.8036 21.2054 14.3449 21.4365 14.2383 21.7023C14.1325 21.969 13.6649 21.3636 13.6649 21.3636C13.6649 21.3636 13.5698 21.3876 13.3894 21.2418C13.2089 21.097 12.7316 20.3947 12.7316 20.3947L13.0649 20.0552Z" fill="#EDB92E"/>
<path d="M15.2117 13.9448C15.0552 12.871 14.0446 13.2044 13.6152 13.9448C13.1859 14.6853 12.8152 15.1297 12.4179 14.6115C12.0206 14.0933 11.7584 13.5377 12.3326 12.8337L12.9068 12.1297C12.825 11.7039 12.481 11.7964 11.9886 11.9999C11.4961 12.2035 11.185 12.111 11.2339 12.3333C11.2837 12.5555 11.4632 12.5742 11.4632 12.5742C11.4632 12.5742 11.153 12.8764 11.0712 13.919C10.9895 12.8764 10.6792 12.5742 10.6792 12.5742C10.6792 12.5742 10.8597 12.5555 10.9086 12.3333C10.9575 12.111 10.6464 12.2035 10.1539 11.9999C9.66147 11.7964 9.31747 11.7039 9.23569 12.1297L9.80991 12.8337C10.3841 13.5377 10.1219 14.0933 9.72458 14.6115C9.32814 15.1297 8.95658 14.7413 8.52725 13.9999C8.09792 13.2595 7.08636 12.9262 6.9308 13.9999C6.77436 15.0737 6.95569 16.9439 6.95569 16.9439C6.95569 16.9439 6.85703 17.9626 7.05436 18.8328C7.2508 19.703 7.36636 20.4808 7.05436 21.1475C7.39836 21.055 7.61169 20.6106 7.61169 20.6106C7.61169 20.6106 7.49703 21.1475 7.71036 21.0924C7.92369 21.0373 7.97258 20.6293 8.13614 20.4808C8.30058 20.3333 8.43214 19.9999 8.43214 19.9999C8.43214 19.9999 8.77703 19.8702 8.43214 20.4444C8.71125 20.463 8.89169 20.2773 8.89169 20.2773L8.98947 20.7964L9.15392 20.519L9.23569 21.0186L9.5308 20.5368L9.72458 20.759C9.72458 20.759 9.76103 19.815 10.0232 19.9999C10.2855 20.1848 10.3015 20.7964 10.1219 21.1662C9.94147 21.5359 10.1219 21.6853 10.1219 21.6853C10.1219 21.6853 9.85969 22.0746 9.72547 22.2968C9.59125 22.519 9.7948 22.7777 9.7948 22.7777C9.7948 22.7777 9.28636 23.5368 9.42769 23.8337C9.56458 24.1182 10.4117 24.2995 11.0312 24.3128L11.0366 24.3155L11.0712 24.3146L11.1059 24.3155L11.1112 24.3128C11.7308 24.2995 12.5779 24.1182 12.7148 23.8337C12.857 23.5377 12.3477 22.7777 12.3477 22.7777C12.3477 22.7777 12.5504 22.519 12.417 22.2968C12.2828 22.0746 12.0197 21.6853 12.0197 21.6853C12.0197 21.6853 12.2001 21.5359 12.0197 21.1662C11.8401 20.7964 11.8561 20.1848 12.1184 19.9999C12.3806 19.815 12.4161 20.759 12.4161 20.759L12.6099 20.5368L12.905 21.0186L12.9868 20.519L13.1512 20.7964L13.249 20.2773C13.249 20.2773 13.4295 20.4622 13.7086 20.4444C13.3637 19.8702 13.7086 19.9999 13.7086 19.9999C13.7086 19.9999 13.8401 20.3333 14.0037 20.4817C14.1672 20.6302 14.217 21.0373 14.4304 21.0933C14.6437 21.1484 14.529 20.6115 14.529 20.6115C14.529 20.6115 14.7424 21.0559 15.0864 21.1484C14.7752 20.4817 14.8899 19.703 15.0864 18.8337C15.2837 17.9635 15.185 16.9448 15.185 16.9448C15.185 16.9448 15.3681 15.0186 15.2117 13.9448Z" fill="white"/>
<path d="M10.5703 12.7218C10.1792 12.3466 9.20319 11.8604 8.87963 11.9298C8.55608 12 8.29652 12.2222 8.53741 12.5698C8.7783 12.9173 8.87963 12.9031 8.87963 12.9031C8.87963 12.9031 9.26452 12.5555 9.43163 12.7502C9.59874 12.9449 9.45919 13.0142 9.1543 13.0418C8.84852 13.0693 8.5383 12.8613 8.5383 12.8613C8.5383 12.8613 8.63874 13.2222 9.06274 13.264C9.34808 13.5413 9.70808 13.3333 9.88941 13.3333C10.0707 13.3333 10.917 13.056 10.5703 12.7218ZM11.5756 12.7218C11.9667 12.3466 12.9427 11.8604 13.2663 11.9298C13.5899 11.9991 13.8494 12.2213 13.6085 12.5689C13.3676 12.9164 13.2663 12.9022 13.2663 12.9022C13.2663 12.9022 12.8814 12.5546 12.7143 12.7493C12.5472 12.944 12.6867 13.0133 12.9916 13.0409C13.2974 13.0684 13.6076 12.8604 13.6076 12.8604C13.6076 12.8604 13.5072 13.2213 13.0832 13.2631C12.7979 13.5413 12.4379 13.3333 12.2565 13.3333C12.0752 13.3333 11.2281 13.056 11.5756 12.7218ZM8.86185 22.3991C8.98363 22.1182 8.8983 22.0782 8.80052 21.9804C8.73647 21.9133 8.68632 21.8341 8.65297 21.7475C8.65297 21.7475 8.60408 21.8826 8.50541 21.9804C8.40674 22.0773 8.32141 22.1173 8.44319 22.3991C8.14719 22.224 8.0983 22.5449 8.2343 22.7395C8.27252 22.5644 8.50541 22.6044 8.50541 22.8178C8.50541 23.0311 8.31252 22.9342 8.33563 23.0213C8.35963 23.1093 8.53563 23.2933 8.65208 23.2933C8.76852 23.2933 8.94541 23.1093 8.96852 23.0213C8.99252 22.9333 8.79963 23.0311 8.79963 22.8178C8.79963 22.6044 9.03163 22.5644 9.07074 22.7395C9.20763 22.5449 9.15874 22.224 8.86185 22.3991ZM13.6956 22.3991C13.8174 22.1182 13.7321 22.0782 13.6334 21.9804C13.5694 21.9133 13.5192 21.8341 13.4859 21.7475C13.4859 21.7475 13.437 21.8826 13.3383 21.9804C13.2396 22.0773 13.1543 22.1173 13.2761 22.3991C12.9801 22.224 12.9312 22.5449 13.0672 22.7395C13.1054 22.5644 13.3383 22.6044 13.3383 22.8178C13.3383 23.0311 13.1454 22.9342 13.1694 23.0213C13.1925 23.1093 13.3694 23.2933 13.4859 23.2933C13.6023 23.2933 13.7792 23.1093 13.8023 23.0213C13.8263 22.9333 13.6334 23.0311 13.6334 22.8178C13.6334 22.6044 13.8654 22.5644 13.9045 22.7395C14.0405 22.5449 13.9925 22.224 13.6956 22.3991Z" fill="#EDB92E"/>
<path d="M9.10547 15V18.4302C9.10547 18.9569 9.31468 19.462 9.68709 19.8344C10.0595 20.2068 10.5646 20.416 11.0912 20.416C11.6179 20.416 12.123 20.2068 12.4954 19.8344C12.8678 19.462 13.077 18.9569 13.077 18.4302V15H9.10547Z" fill="#C6363C"/>
<path d="M13.0781 17.0418H11.5208V15H10.6656V17.0418H9.10742V17.8978H10.6656V20.368C10.8034 20.3982 10.9456 20.4169 11.0932 20.4169C11.2408 20.4169 11.383 20.3982 11.5216 20.368V17.8978H13.0799V17.0418H13.0781Z" fill="#EEEEEE"/>
</svg>
