<svg width="32" height="32" viewBox="0 0 32 32" fill="none" xmlns="http://www.w3.org/2000/svg">
<path d="M32 23.9999V20.4443H0V23.9999C0 24.9429 0.374602 25.8473 1.0414 26.514C1.70819 27.1808 2.61256 27.5554 3.55556 27.5554H28.4444C29.3874 27.5554 30.2918 27.1808 30.9586 26.514C31.6254 25.8473 32 24.9429 32 23.9999Z" fill="#EE2024"/>
<path d="M32 20.4443H0V7.99989C0 7.0569 0.374602 6.15253 1.0414 5.48573C1.70819 4.81894 2.61256 4.44434 3.55556 4.44434H28.4444C29.3874 4.44434 30.2918 4.81894 30.9586 5.48573C31.6254 6.15253 32 7.0569 32 7.99989V20.4443Z" fill="#EEEEEE"/>
<path d="M0 11.5557H32V20.4446H0V11.5557Z" fill="#0A4EA2"/>
<path d="M10.5212 22.3022C9.51765 21.7279 7.28743 20.2773 6.47232 18.3128C5.6501 16.3333 5.83321 13.4924 6.04476 10.2026L6.0981 9.37061H16.7319L16.7861 10.2026C16.9977 13.4915 17.1808 16.3315 16.3585 18.3119C15.5425 20.2773 13.3132 21.7288 12.3088 22.3022L11.4163 22.8106L10.5212 22.3022Z" fill="white"/>
<path d="M15.8979 10.2595H6.93075C6.71919 13.5546 6.55563 16.1973 7.29252 17.9715C8.20008 20.1582 11.3067 21.7226 11.409 21.7724V21.7777L11.4134 21.7751L11.4179 21.7777V21.7724C11.5201 21.7217 14.6267 20.1582 15.5352 17.9715C16.273 16.1973 16.1103 13.5537 15.8979 10.2595Z" fill="#EE2024"/>
<path d="M14.1018 14.3192C14.1018 14.3192 12.8564 14.4374 11.7622 14.4659C11.7443 14.085 11.7452 13.7035 11.7649 13.3228C12.6298 13.3761 13.2271 13.5414 13.2271 13.5414C13.4467 13.5414 13.6244 13.3637 13.6244 13.1441V12.6054C13.6244 12.3859 13.4467 12.2081 13.2271 12.2081C13.2271 12.2081 12.5702 12.3201 11.8333 12.3672C11.8964 11.6721 11.972 11.0917 11.972 11.0917C11.972 10.8721 11.7942 10.6943 11.5747 10.6943H11.0369C10.8173 10.6943 10.6395 10.8721 10.6395 11.0917C10.6395 11.0917 10.7213 11.6837 10.7907 12.3743C10.3187 12.347 9.84885 12.2915 9.38354 12.2081C9.16398 12.2081 8.98621 12.3859 8.98621 12.6054V13.1441C8.98621 13.3637 9.16398 13.5414 9.38354 13.5414C9.38354 13.5414 9.95154 13.3583 10.868 13.3148C10.8804 13.5192 10.8893 13.7174 10.8893 13.889C10.8893 14.0321 10.884 14.2339 10.8751 14.4659C9.77109 14.4366 8.48132 14.3201 8.48132 14.3201C8.26176 14.3201 8.08398 14.4979 8.08398 14.7174V15.2561C8.08398 15.4757 8.26176 15.6534 8.48132 15.6534C8.48132 15.6534 9.65376 15.5574 10.8235 15.5397C10.7498 16.9006 10.6395 18.4926 10.6395 18.4926C10.6395 18.7121 10.8173 18.8899 11.0369 18.8899H11.5747C11.7942 18.8899 11.972 18.7121 11.972 18.4926C11.972 18.4926 11.8733 16.9166 11.8075 15.5441C12.9382 15.5708 14.1018 15.6534 14.1018 15.6534C14.3213 15.6534 14.4991 15.4757 14.4991 15.2561V14.7174C14.4991 14.4979 14.3213 14.3192 14.1018 14.3192Z" fill="white"/>
<path d="M15.1816 18.6355C14.7301 17.6701 13.4883 17.3972 12.8989 18.5768C12.5096 17.1599 11.4047 17.1599 11.4047 17.1599C11.4047 17.1599 10.2989 17.1599 9.9105 18.5768C9.32561 17.407 8.09716 17.6666 7.63672 18.6132C8.80472 20.4568 11.3194 21.7279 11.4118 21.7732V21.7777L11.4163 21.775L11.4207 21.7777V21.7724C11.5123 21.727 14.0074 20.4666 15.1816 18.6355Z" fill="#0A4EA2"/>
</svg>
