<svg width="32" height="32" viewBox="0 0 32 32" fill="none" xmlns="http://www.w3.org/2000/svg">
<path d="M32 23.9999V20.4443H0V23.9999C0 24.9429 0.374602 25.8473 1.0414 26.514C1.70819 27.1808 2.61256 27.5554 3.55556 27.5554H28.4444C29.3874 27.5554 30.2918 27.1808 30.9586 26.514C31.6254 25.8473 32 24.9429 32 23.9999Z" fill="#ED1C23"/>
<path d="M32 20.4443H0V7.99989C0 7.0569 0.374602 6.15253 1.0414 5.48573C1.70819 4.81894 2.61256 4.44434 3.55556 4.44434H28.4444C29.3874 4.44434 30.2918 4.81894 30.9586 5.48573C31.6254 6.15253 32 7.0569 32 7.99989V20.4443Z" fill="#EEEEEE"/>
<path d="M0 11.5557H32V20.4446H0V11.5557Z" fill="#005DA4"/>
<path d="M9.88953 7.03735C7.88953 7.03735 6.48242 7.7778 6.48242 7.7778C6.48242 7.7778 6.6122 9.55558 6.77842 12.296C6.94464 15.0365 9.88953 16 9.88953 16C9.88953 16 12.8335 15.0374 13.0006 12.296C13.1678 9.55469 13.2966 7.7778 13.2966 7.7778C13.2966 7.7778 11.8895 7.03735 9.88953 7.03735Z" fill="#ED1C23"/>
<path d="M12.9702 7.63193C12.4475 7.41682 11.3266 7.03638 9.88842 7.03638C8.4502 7.03638 7.32931 7.41682 6.80664 7.63193C6.81642 7.8186 6.92842 9.85682 7.07242 12.2222C7.22353 14.703 9.88753 15.5742 9.88753 15.5742C9.88753 15.5742 12.5524 14.703 12.7026 12.2222C12.8484 9.85771 12.9604 7.8186 12.9702 7.63193Z" fill="#004A77"/>
<path d="M10.7598 14.1512C10.4451 14.1512 10.2967 14.3387 9.83354 14.3387C9.37043 14.3387 9.29665 14.1512 8.98198 14.1512C8.74376 14.1512 8.59621 14.2578 8.41398 14.3103C9.13576 14.8525 9.88954 15.0747 9.88954 15.0747C10.5215 14.9698 11.0184 14.6605 11.3944 14.3112C11.1553 14.2587 10.9989 14.1512 10.7598 14.1512ZM9.01932 12.9218C9.31532 12.9218 9.57487 13.1529 9.88954 13.1529C10.2042 13.1529 10.4264 12.9218 10.7598 12.9218C11.0451 12.9218 11.4202 13.2943 11.9687 13.0809C12.1118 12.8428 12.234 12.5927 12.334 12.3334L11.2229 10.7405L10.6673 11.4152L9.88954 9.92627L9.1491 11.4152L8.61221 10.7049C8.61221 10.7049 8.13043 11.2765 7.33398 12.3503C7.4291 12.6045 7.5571 12.8249 7.69576 13.0312C8.32598 13.3423 8.75087 12.9218 9.01932 12.9218ZM11.6487 13.5929C11.2415 13.5929 11.0744 13.3618 10.7598 13.3618C10.4451 13.3618 10.2967 13.5929 9.83354 13.5929C9.37043 13.5929 9.29665 13.3618 8.98198 13.3618C8.66732 13.3618 8.51087 13.5929 8.22287 13.5929C8.11887 13.5929 8.00243 13.5609 7.89132 13.5174C8.00421 13.6667 8.11532 13.8205 8.23798 13.9476C8.5811 13.9165 8.83621 13.7049 9.01932 13.7049C9.31532 13.7049 9.57487 13.952 9.88954 13.952C10.2042 13.952 10.4264 13.7049 10.7598 13.7049C10.9651 13.7049 11.2184 13.9138 11.5482 13.9458C11.6451 13.8196 11.7304 13.6943 11.8087 13.5698C11.7571 13.5778 11.7082 13.5929 11.6487 13.5929Z" fill="white"/>
<path d="M9.17199 7.82837L9.36488 8.03548L9.09022 7.97148L9.00666 8.24171L8.92488 7.97148L8.64844 8.03548L8.84221 7.82837L8.64844 7.62126L8.92488 7.68526L9.00666 7.41504L9.09022 7.68526L9.36488 7.62126L9.17199 7.82837ZM11.0333 7.82837L11.2262 8.03548L10.9507 7.97148L10.868 8.24171L10.7853 7.97148L10.5098 8.03548L10.7027 7.82837L10.5098 7.62126L10.7853 7.68526L10.868 7.41504L10.9507 7.68526L11.2262 7.62126L11.0333 7.82837ZM10.0698 9.06926L10.2618 9.27637L9.9871 9.21237L9.90444 9.48171L9.82177 9.21237L9.54622 9.27637L9.7391 9.06926L9.54622 8.86215L9.82177 8.92615L9.90444 8.65593L9.9871 8.92615L10.2618 8.86215L10.0698 9.06926Z" fill="#FFDD00"/>
</svg>
