<svg width="32" height="32" viewBox="0 0 32 32" fill="none" xmlns="http://www.w3.org/2000/svg">
<g clip-path="url(#clip0_665_5990)">
<path d="M28.444 4.44434H5.77734L16.8885 11.9999H31.9996V7.99989C31.9996 7.0569 31.625 6.15253 30.9582 5.48573C30.2914 4.81894 29.387 4.44434 28.444 4.44434Z" fill="#DE3830"/>
<path d="M5.77734 27.5556H28.444C29.387 27.5556 30.2914 27.181 30.9582 26.5142C31.625 25.8474 31.9996 24.943 31.9996 24V20H16.8885L5.77734 27.5556Z" fill="#002395"/>
<path d="M0 9.77783V22.2223L9.33333 16.0001L0 9.77783Z" fill="#141414"/>
<path d="M0 8V9.77778L9.33333 16L0 22.2222V24L12 16L0 8Z" fill="#FFB611"/>
<path d="M3.14756 4.46924C2.28122 4.56931 1.48187 4.9843 0.901531 5.63527C0.321193 6.28625 0.000343966 7.1278 0 7.9999L12 15.9999L0 23.9999C0.000343966 24.872 0.321193 25.7136 0.901531 26.3645C1.48187 27.0155 2.28122 27.4305 3.14756 27.5306L16.4444 18.2221H32V13.7777H16.4444L3.14756 4.46924Z" fill="#007A4D"/>
<path d="M5.77866 4.44434H3.55644C3.41777 4.44434 3.28266 4.45411 3.14844 4.46922L16.4453 13.7777H32.0009V11.9999H16.8898L5.77866 4.44434ZM3.14844 27.5306C3.28266 27.5457 3.41777 27.5554 3.55644 27.5554H5.77866L16.8898 19.9999H32.0009V18.2221H16.4453L3.14844 27.5306Z" fill="#EEEEEE"/>
</g>
<defs>
<clipPath id="clip0_665_5990">
<rect width="32" height="32" fill="white"/>
</clipPath>
</defs>
</svg>
