<svg width="32" height="32" viewBox="0 0 32 32" fill="none" xmlns="http://www.w3.org/2000/svg">
<path d="M32 23.9999C32 24.9429 31.6254 25.8473 30.9586 26.514C30.2918 27.1808 29.3874 27.5554 28.4444 27.5554H3.55556C2.61256 27.5554 1.70819 27.1808 1.0414 26.514C0.374602 25.8473 0 24.9429 0 23.9999V7.99989C0 7.0569 0.374602 6.15253 1.0414 5.48573C1.70819 4.81894 2.61256 4.44434 3.55556 4.44434H28.4444C29.3874 4.44434 30.2918 4.81894 30.9586 5.48573C31.6254 6.15253 32 7.0569 32 7.99989V23.9999Z" fill="#EEEEEE"/>
<path d="M19.0588 11.6312C17.9001 10.8201 16.4666 10.5024 15.0737 10.7481C13.6808 10.9938 12.4425 11.7828 11.6312 12.9414C11.2482 13.5213 11.1066 14.2278 11.2365 14.9106C11.3665 15.5933 11.7578 16.1984 12.3271 16.597C12.8965 16.9956 13.5989 17.1562 14.2849 17.0448C14.9709 16.9333 15.5863 16.5585 16.0001 16.0001C16.201 15.7132 16.4565 15.4688 16.7518 15.2806C17.0472 15.0925 17.3768 14.9643 17.7217 14.9035C18.0666 14.8427 18.42 14.8505 18.762 14.9263C19.1039 15.0021 19.4275 15.1446 19.7143 15.3454C20.0012 15.5463 20.2457 15.8018 20.4339 16.0971C20.622 16.3925 20.7501 16.7221 20.8109 17.067C20.8717 17.4119 20.864 17.7654 20.7882 18.1073C20.7123 18.4492 20.5699 18.7728 20.369 19.0597C20.7708 18.4859 21.0556 17.8386 21.2072 17.1547C21.3588 16.4709 21.3742 15.7639 21.2526 15.0741C21.1309 14.3842 20.8745 13.7252 20.4981 13.1344C20.1217 12.5437 19.6326 12.0329 19.0588 11.6312Z" fill="#C60C30"/>
<path d="M19.7139 15.3458C19.1346 14.9401 18.418 14.7811 17.7215 14.9038C17.0251 15.0265 16.4059 15.4208 16.0001 16C15.5873 16.5613 14.9712 16.9388 14.2837 17.0517C13.5962 17.1647 12.8917 17.0042 12.321 16.6045C11.7503 16.2048 11.3586 15.5977 11.2297 14.913C11.1008 14.2283 11.2449 13.5203 11.6312 12.9404C11.2177 13.5136 10.9222 14.1632 10.762 14.8515C10.6017 15.5398 10.5799 16.2531 10.6977 16.95C10.8155 17.6468 11.0706 18.3133 11.4482 18.9107C11.8259 19.5081 12.3185 20.0244 12.8974 20.4298C13.4763 20.8352 14.1301 21.1214 14.8206 21.2719C15.5111 21.4224 16.2247 21.4342 16.9198 21.3065C17.6149 21.1789 18.2777 20.9143 18.8697 20.5283C19.4616 20.1422 19.971 19.6424 20.3681 19.0578C20.569 18.7711 20.7115 18.4477 20.7874 18.106C20.8633 17.7642 20.871 17.4109 20.8103 17.0662C20.7495 16.7214 20.6214 16.3921 20.4333 16.0969C20.2452 15.8017 20.0007 15.5464 19.7139 15.3458Z" fill="#003478"/>
<path d="M21.6306 22.7307L23.3444 20.688L24.0253 21.2596L22.3115 23.3023L21.6306 22.7307ZM23.9151 20.008L25.6288 17.9663L26.3097 18.5378L24.596 20.5796L23.9151 20.008ZM22.9924 23.8756L24.7062 21.8338L25.3871 22.4054L23.6733 24.4472L22.9924 23.8756ZM25.2786 21.1503L26.9942 19.1085L27.6751 19.6809L25.9595 21.7218L25.2786 21.1503ZM24.3533 25.0187L26.0688 22.9769L26.7488 23.5485L25.0342 25.5903L24.3533 25.0187ZM26.6386 22.2943L28.3515 20.2498L29.0333 20.8214L27.3204 22.8658L26.6386 22.2943ZM26.6422 9.70582L27.3231 9.13427L29.0386 11.1778L28.3568 11.7494L26.6422 9.70582ZM24.356 6.98049L25.0368 6.40894L26.7506 8.45249L26.0688 9.02316L24.356 6.98049ZM22.9933 8.12538L23.6742 7.55382L27.6742 12.32L26.9933 12.8916L22.9933 8.12538ZM21.6315 9.26671L22.3133 8.69516L24.0262 10.7378L23.3453 11.3085L21.6315 9.26671ZM23.916 11.9912L24.5968 11.4196L26.3124 13.4614L25.6324 14.0329L23.916 11.9912ZM5.68929 18.5369L6.37018 17.9654L10.3693 22.7325L9.68751 23.304L5.68929 18.5369ZM4.32929 19.68L5.00929 19.1094L6.72395 21.152L6.04218 21.7236L4.32929 19.68ZM6.61107 22.4054L7.29195 21.8338L9.00751 23.8756L8.32662 24.4472L6.61107 22.4054ZM2.96573 20.8223L3.64662 20.2507L7.64662 25.0169L6.96484 25.5885L2.96573 20.8223ZM2.96484 11.176L6.96307 6.40982L7.64484 6.98049L3.64484 11.7476L2.96484 11.176ZM4.32662 12.32L8.32662 7.55294L9.00751 8.12449L5.00751 12.8907L4.32662 12.32ZM5.68929 13.4623L9.68929 8.69516L10.3702 9.26671L6.37018 14.0338L5.68929 13.4623Z" fill="#292F33"/>
</svg>
