<svg width="32" height="32" viewBox="0 0 32 32" fill="none" xmlns="http://www.w3.org/2000/svg">
<path d="M32 23.9999C32 24.9429 31.6254 25.8473 30.9586 26.514C30.2918 27.1808 29.3874 27.5554 28.4444 27.5554H3.55556C2.61256 27.5554 1.70819 27.1808 1.0414 26.514C0.374602 25.8473 0 24.9429 0 23.9999V7.99989C0 7.0569 0.374602 6.15253 1.0414 5.48573C1.70819 4.81894 2.61256 4.44434 3.55556 4.44434H28.4444C29.3874 4.44434 30.2918 4.81894 30.9586 5.48573C31.6254 6.15253 32 7.0569 32 7.99989V23.9999Z" fill="#C60A1D"/>
<path d="M0 10.6667H32V21.3334H0V10.6667Z" fill="#FFC400"/>
<path d="M8 15.1111V17.7778C8 18.485 8.28095 19.1633 8.78105 19.6634C9.28115 20.1635 9.95942 20.4444 10.6667 20.4444C11.3739 20.4444 12.0522 20.1635 12.5523 19.6634C13.0524 19.1633 13.3333 18.485 13.3333 17.7778V15.1111H8Z" fill="#EA596E"/>
<path d="M10.666 14.2222H13.3327V16.8888H10.666V14.2222Z" fill="#F4A2B2"/>
<path d="M8 14.2222H10.6667V16.8888H8V14.2222Z" fill="#DD2E44"/>
<path d="M10.6667 14.2223C12.1394 14.2223 13.3333 13.6254 13.3333 12.889C13.3333 12.1526 12.1394 11.5557 10.6667 11.5557C9.19391 11.5557 8 12.1526 8 12.889C8 13.6254 9.19391 14.2223 10.6667 14.2223Z" fill="#EA596E"/>
<path d="M10.6667 12.889C12.1394 12.889 13.3333 12.5905 13.3333 12.2223C13.3333 11.8541 12.1394 11.5557 10.6667 11.5557C9.19391 11.5557 8 11.8541 8 12.2223C8 12.5905 9.19391 12.889 10.6667 12.889Z" fill="#FFAC33"/>
<path d="M6.22266 14.2222H7.11155V20.4444H6.22266V14.2222ZM14.2227 14.2222H15.1115V20.4444H14.2227V14.2222Z" fill="#99AAB5"/>
<path d="M5.33398 19.5555H8.00065V20.4444H5.33398V19.5555ZM13.334 19.5555H16.0007V20.4444H13.334V19.5555ZM6.22287 13.3333H7.11176V14.2221H6.22287V13.3333ZM14.2229 13.3333H15.1118V14.2221H14.2229V13.3333Z" fill="#66757F"/>
</svg>
