<svg width="32" height="32" viewBox="0 0 32 32" fill="none" xmlns="http://www.w3.org/2000/svg">
<path d="M27.5564 24C27.5564 24.943 27.1818 25.8474 26.515 26.5142C25.8482 27.181 24.9439 27.5556 24.0009 27.5556H8.00087C7.05788 27.5556 6.15351 27.181 5.48671 26.5142C4.81991 25.8474 4.44531 24.943 4.44531 24V8.00001C4.44531 7.05702 4.81991 6.15265 5.48671 5.48586C6.15351 4.81906 7.05788 4.44446 8.00087 4.44446H24.0009C24.9439 4.44446 25.8482 4.81906 26.515 5.48586C27.1818 6.15265 27.5564 7.05702 27.5564 8.00001V24Z" fill="#D32D27"/>
<path d="M22.2218 14.2782H17.7773V9.83374H14.2218V14.2782H9.77734V17.7777H14.2218V22.2782H17.7773V17.7777H22.2218V14.2782Z" fill="white"/>
</svg>
