<svg width="32" height="32" viewBox="0 0 32 32" fill="none" xmlns="http://www.w3.org/2000/svg">
<path d="M0 23.5715V24C0 24.943 0.374602 25.8473 1.0414 26.5141C1.70819 27.1809 2.61256 27.5555 3.55556 27.5555H28.4444C29.3874 27.5555 30.2918 27.1809 30.9586 26.5141C31.6254 25.8473 32 24.943 32 24V23.5715H0Z" fill="#A7122D"/>
<path d="M0 19.7166H32V23.7032H0V19.7166Z" fill="#EEEEEE"/>
<path d="M0 12.0115H32V19.8524H0V12.0115Z" fill="#292648"/>
<path d="M0 8.16089H32V12.1476H0V8.16089Z" fill="#EEEEEE"/>
<path d="M0 8.29589V7.99989C0 7.0569 0.374602 6.15253 1.0414 5.48573C1.70819 4.81894 2.61256 4.44434 3.55556 4.44434H28.4444C29.3874 4.44434 30.2918 4.81894 30.9586 5.48573C31.6254 6.15253 32 7.0569 32 7.99989V8.29589H0Z" fill="#A7122D"/>
</svg>
