<svg width="32" height="32" viewBox="0 0 32 32" fill="none" xmlns="http://www.w3.org/2000/svg">
<path d="M31.5067 6.22211C30.8907 5.16345 29.7573 4.44434 28.4444 4.44434H16V6.22211H31.5067ZM0 22.2221H32V23.9999H0V22.2221ZM16 15.111H32V16.8888H16V15.111ZM16 11.5554H32V13.3332H16V11.5554ZM0 18.6666H32V20.4443H0V18.6666ZM3.55556 27.5554H28.4444C29.7573 27.5554 30.8907 26.8363 31.5067 25.7777H0.493333C1.10933 26.8363 2.24267 27.5554 3.55556 27.5554ZM16 7.99989H32V9.77767H16V7.99989Z" fill="#B22334"/>
<path d="M0.0604444 24.6035C0.0755556 24.6862 0.0924444 24.7688 0.112889 24.8497C0.136 24.9395 0.164444 25.0257 0.194667 25.1128C0.273778 25.3431 0.369778 25.5653 0.490667 25.7733L0.493333 25.7777H31.5067L31.5084 25.7742C31.6278 25.5646 31.7266 25.344 31.8036 25.1155C31.8621 24.9487 31.9073 24.7775 31.9387 24.6035C31.9751 24.4079 32 24.2071 32 23.9999H0C0 24.2071 0.0248889 24.4071 0.0604444 24.6035ZM0 20.4444H32V22.2222H0V20.4444ZM0 16.8888V18.6666H32V16.8888H16H0ZM16 13.3333H32V15.1111H16V13.3333ZM16 9.77772H32V11.5555H16V9.77772ZM0.113778 7.15017C0.136 7.0595 0.167111 6.97328 0.195556 6.88617C0.164687 6.97301 0.137405 7.06108 0.113778 7.15017ZM16 7.99995H32C32 7.79283 31.9751 7.59195 31.9387 7.3955C31.9075 7.22137 31.862 7.05012 31.8027 6.8835C31.7256 6.654 31.6265 6.43252 31.5067 6.22217H16V7.99995Z" fill="#EEEEEE"/>
<path d="M16 4.44434H3.55556C2.61256 4.44434 1.70819 4.81894 1.0414 5.48573C0.374602 6.15253 0 7.0569 0 7.99989L0 16.8888H16V4.44434Z" fill="#3C3B6E"/>
<path d="M1.7793 6.8675L2.32863 7.26661L2.11885 7.91106L2.6673 7.51283L3.21663 7.91106L3.00685 7.26661L3.55619 6.8675H2.87707L2.6673 6.22217L2.45841 6.8675H1.7793ZM3.55707 8.64528L4.10641 9.04439L3.89663 9.68883L4.44507 9.29061L4.99441 9.68883L4.78463 9.04439L5.33396 8.64528H4.65485L4.44507 7.99995L4.23619 8.64528H3.55707ZM7.11263 8.64528L7.66196 9.04439L7.45219 9.68883L8.00063 9.29061L8.54996 9.68883L8.34019 9.04439L8.88952 8.64528H8.21041L8.00063 7.99995L7.79174 8.64528H7.11263ZM10.6682 8.64528L11.2175 9.04439L11.0077 9.68883L11.5562 9.29061L12.1055 9.68883L11.8957 9.04439L12.4451 8.64528H11.766L11.5562 7.99995L11.3473 8.64528H10.6682ZM3.55707 12.2008L4.10641 12.5999L3.89663 13.2444L4.44507 12.8462L4.99441 13.2444L4.78463 12.5999L5.33396 12.2008H4.65485L4.44507 11.5555L4.23619 12.2008H3.55707ZM7.11263 12.2008L7.66196 12.5999L7.45219 13.2444L8.00063 12.8462L8.54996 13.2444L8.34019 12.5999L8.88952 12.2008H8.21041L8.00063 11.5555L7.79174 12.2008H7.11263ZM10.6682 12.2008L11.2175 12.5999L11.0077 13.2444L11.5562 12.8462L12.1055 13.2444L11.8957 12.5999L12.4451 12.2008H11.766L11.5562 11.5555L11.3473 12.2008H10.6682ZM5.33485 6.8675L5.88419 7.26661L5.67441 7.91106L6.22285 7.51283L6.77219 7.91106L6.56241 7.26661L7.11174 6.8675H6.43263L6.22285 6.22217L6.01396 6.8675H5.33485ZM8.89041 6.8675L9.43974 7.26661L9.22996 7.91106L9.77841 7.51283L10.3277 7.91106L10.118 7.26661L10.6673 6.8675H9.98819L9.77841 6.22217L9.56952 6.8675H8.89041ZM12.446 6.8675L12.9953 7.26661L12.7855 7.91106L13.334 7.51283L13.8833 7.91106L13.6735 7.26661L14.2229 6.8675H13.5437L13.334 6.22217L13.1251 6.8675H12.446ZM1.7793 10.4231L2.32863 10.8222L2.11885 11.4666L2.6673 11.0684L3.21663 11.4666L3.00685 10.8222L3.55619 10.4231H2.87707L2.6673 9.77772L2.45841 10.4231H1.7793ZM5.67441 11.4666L6.22285 11.0684L6.77219 11.4666L6.56241 10.8222L7.11174 10.4231H6.43263L6.22285 9.77772L6.01396 10.4231H5.33485L5.88419 10.8222L5.67441 11.4666ZM8.89041 10.4231L9.43974 10.8222L9.22996 11.4666L9.77841 11.0684L10.3277 11.4666L10.118 10.8222L10.6673 10.4231H9.98819L9.77841 9.77772L9.56952 10.4231H8.89041ZM12.446 10.4231L12.9953 10.8222L12.7855 11.4666L13.334 11.0684L13.8833 11.4666L13.6735 10.8222L14.2229 10.4231H13.5437L13.334 9.77772L13.1251 10.4231H12.446ZM1.7793 13.9786L2.32863 14.3777L2.11885 15.0222L2.6673 14.6239L3.21663 15.0222L3.00685 14.3777L3.55619 13.9786H2.87707L2.6673 13.3333L2.45841 13.9786H1.7793ZM5.67441 15.0222L6.22285 14.6239L6.77219 15.0222L6.56241 14.3777L7.11174 13.9786H6.43263L6.22285 13.3333L6.01396 13.9786H5.33485L5.88419 14.3777L5.67441 15.0222ZM8.89041 13.9786L9.43974 14.3777L9.22996 15.0222L9.77841 14.6239L10.3277 15.0222L10.118 14.3777L10.6673 13.9786H9.98819L9.77841 13.3333L9.56952 13.9786H8.89041ZM12.446 13.9786L12.9953 14.3777L12.7855 15.0222L13.334 14.6239L13.8833 15.0222L13.6735 14.3777L14.2229 13.9786H13.5437L13.334 13.3333L13.1251 13.9786H12.446Z" fill="white"/>
</svg>
