<svg width="32" height="32" viewBox="0 0 32 32" fill="none" xmlns="http://www.w3.org/2000/svg">
<g clip-path="url(#clip0_665_6098)">
<path d="M0 24C0 24.943 0.374602 25.8474 1.0414 26.5142C1.70819 27.181 2.61256 27.5556 3.55556 27.5556H28.4444C29.3874 27.5556 30.2918 27.181 30.9586 26.5142C31.6254 25.8474 32 24.943 32 24V23.1111H0V24ZM0 16.8889H32V20.4445H0V16.8889Z" fill="#0038A8"/>
<path d="M0 20.4443H32V23.111H0V20.4443Z" fill="#EEEEEE"/>
<path d="M32.0004 7.99989C32.0004 7.0569 31.6258 6.15253 30.959 5.48573C30.2922 4.81894 29.3879 4.44434 28.4449 4.44434H14.2227V7.99989H32.0004ZM14.2227 10.6666H32.0004V14.2221H14.2227V10.6666Z" fill="#0038A8"/>
<path d="M14.2222 7.99989V4.44434H3.55556C2.61256 4.44434 1.70819 4.81894 1.0414 5.48573C0.374602 6.15253 0 7.0569 0 7.99989L0 16.8888H32V14.2221H14.2222V10.6666H32V7.99989H14.2222Z" fill="#EEEEEE"/>
<path d="M11.5549 10.6666C11.5549 9.48787 11.0867 8.35741 10.2532 7.52392C9.41966 6.69042 8.2892 6.22217 7.11046 6.22217C5.93172 6.22217 4.80126 6.69042 3.96776 7.52392C3.13427 8.35741 2.66602 9.48787 2.66602 10.6666C2.66602 11.8454 3.13427 12.9758 3.96776 13.8093C4.80126 14.6428 5.93172 15.1111 7.11046 15.1111C8.2892 15.1111 9.41966 14.6428 10.2532 13.8093C11.0867 12.9758 11.5549 11.8454 11.5549 10.6666Z" fill="#FFD983"/>
<path d="M10.6658 10.6666C10.6658 9.72365 10.2912 8.81928 9.6244 8.15248C8.9576 7.48569 8.05323 7.11108 7.11024 7.11108C6.16725 7.11108 5.26288 7.48569 4.59609 8.15248C3.92929 8.81928 3.55469 9.72365 3.55469 10.6666C3.55469 11.6096 3.92929 12.514 4.59609 13.1808C5.26288 13.8476 6.16725 14.2222 7.11024 14.2222C8.05323 14.2222 8.9576 13.8476 9.6244 13.1808C10.2912 12.514 10.6658 11.6096 10.6658 10.6666Z" fill="#FFCC4D"/>
<path d="M7.11148 4.9751L7.67414 8.5671L9.9577 5.73776L8.64837 9.12976L12.0404 7.82043L9.21103 10.104L12.803 10.6667L9.21103 11.2293L12.0404 13.5129L8.64837 12.2035L9.9577 15.5955L7.67414 12.7662L7.11148 16.3582L6.54881 12.7662L4.26525 15.5955L5.57459 12.2035L2.18259 13.5129L5.01192 11.2293L1.41992 10.6667L5.01192 10.104L2.18259 7.82043L5.57459 9.12976L4.26525 5.73776L6.54881 8.5671L7.11148 4.9751Z" fill="#FFAC33"/>
<path d="M9.77865 10.6667C9.77865 9.95942 9.49769 9.28115 8.9976 8.78105C8.4975 8.28095 7.81922 8 7.11198 8C6.40474 8 5.72646 8.28095 5.22636 8.78105C4.72626 9.28115 4.44531 9.95942 4.44531 10.6667C4.44531 11.3739 4.72626 12.0522 5.22636 12.5523C5.72646 13.0524 6.40474 13.3333 7.11198 13.3333C7.81922 13.3333 8.4975 13.0524 8.9976 12.5523C9.49769 12.0522 9.77865 11.3739 9.77865 10.6667Z" fill="#C1694F"/>
<path d="M5.18555 10.6703C5.18543 10.1626 5.38699 9.67566 5.7459 9.31659C6.1048 8.95752 6.59164 8.75573 7.09932 8.75562C7.60701 8.7555 8.09394 8.95706 8.45301 9.31596C8.81208 9.67487 9.01387 10.1617 9.01399 10.6694C9.01411 11.1771 8.81255 11.664 8.45364 12.0231C8.27593 12.2009 8.06494 12.3419 7.83272 12.4382C7.6005 12.5344 7.35159 12.584 7.10021 12.5841C6.59253 12.5842 6.10559 12.3826 5.74652 12.0237C5.38745 11.6648 5.18566 11.178 5.18555 10.6703Z" fill="#FFAC33"/>
</g>
<defs>
<clipPath id="clip0_665_6098">
<rect width="32" height="32" fill="white"/>
</clipPath>
</defs>
</svg>
